<svg width="32" height="32" viewBox="0 0 32 32" fill="none" xmlns="http://www.w3.org/2000/svg">
<rect width="32" height="32" rx="8" fill="#D2E4FF" fill-opacity="0.06"/>
<rect x="4.2998" y="3" width="23.4" height="26" rx="3" fill="#771469"/>
<path d="M9.63393 5.20154C9.54727 5.37487 9.50393 5.60599 9.54727 5.72154C9.60504 5.86599 9.51838 5.92376 9.25838 5.92376C8.98393 5.92376 8.89727 5.98154 8.95504 6.12599C8.99838 6.24154 9.08504 6.58821 9.12838 6.89154V6.89154C9.14972 7.00742 8.99536 7.06755 8.9327 6.96776L8.83949 6.81932C8.56504 6.38598 8.47838 6.08265 8.53616 5.8371C8.60838 5.59154 8.56504 5.49043 8.40616 5.49043C8.1606 5.49043 7.61171 5.99599 7.61171 6.21265C7.61171 6.28487 7.42393 6.31376 7.17838 6.27043C6.52838 6.12599 5.97949 6.67487 6.6006 6.83376C6.75949 6.8771 6.96171 7.09376 7.06282 7.32487C7.14949 7.54154 7.32282 7.83043 7.42393 7.96043C7.59727 8.17709 7.56838 8.23487 7.1206 8.50932C6.75949 8.74043 6.51394 8.7982 6.2106 8.72598C5.80616 8.62487 5.80616 8.62487 6.0806 8.9282C6.22505 9.10154 6.4706 9.27487 6.61505 9.3182C6.77394 9.37598 6.88949 9.54932 6.88949 9.73709C6.88949 9.91043 6.96171 10.1271 7.06282 10.2282C7.19282 10.3582 7.30838 10.3149 7.56838 10.0115V10.0115C7.6279 9.93908 7.74286 10.0067 7.70843 10.0939L7.68393 10.156C7.52505 10.546 7.49616 10.7771 7.61171 10.9793C7.68393 11.1238 7.75616 11.4271 7.75616 11.6293C7.75616 11.9326 7.81393 11.9904 8.01616 11.9326C8.24727 11.846 8.2906 11.9182 8.27616 12.4526C8.26171 12.9149 8.31949 13.0738 8.50727 13.1171C8.6806 13.146 8.78171 13.0449 8.85393 12.7993C8.95504 12.366 9.28727 12.3082 9.41727 12.6693C9.57615 13.146 10.0673 13.6082 10.5873 13.796V13.796C10.7587 13.8516 10.7608 14.0934 10.5904 14.152L10.1973 14.2871C9.28727 14.5904 9.28727 14.5904 8.98393 14.3015C8.43504 13.796 7.22171 14.0271 7.39505 14.6049C7.46727 14.8071 7.42393 14.8793 7.20727 14.8793C6.81727 14.8793 6.45616 15.3415 6.45616 15.8471C6.45616 16.3671 6.58616 16.526 6.83171 16.3093C6.93282 16.2226 7.20727 16.1938 7.45282 16.2515C7.84282 16.3382 7.87171 16.3815 7.79949 16.8726C7.74171 17.2626 7.79949 17.4793 7.94393 17.6093C8.2906 17.8838 8.69504 17.7393 8.66616 17.3638C8.63727 17.1182 8.69504 17.046 8.95504 17.046C9.14282 17.046 9.34504 16.9882 9.43171 16.916C9.50393 16.8438 10.0239 16.7426 10.5728 16.7138C11.1362 16.6704 12.0317 16.5693 12.5806 16.4682L12.7903 16.4348C13.2829 16.3562 13.7826 16.5254 14.1261 16.8871V16.8871C14.4439 17.2049 14.6895 17.5371 14.6895 17.6238C14.6895 17.8115 13.8084 17.8115 13.3028 17.6238C12.985 17.4938 12.8839 17.5226 12.725 17.7249C12.6239 17.8693 12.2773 18.2738 11.9595 18.606C11.1795 19.4437 11.165 19.7904 11.945 19.7904C12.2628 19.7904 12.5228 19.8482 12.5228 19.9349C12.5228 20.0215 12.1473 20.0793 11.6706 20.0793C11.1939 20.0793 10.7028 20.1226 10.5728 20.1804C10.3562 20.2526 10.3417 20.1949 10.4139 19.8337C10.5295 19.3138 10.3562 19.1404 9.63393 19.0393C8.89727 18.9382 8.17505 19.1838 7.72727 19.7037C7.30838 20.1949 7.22171 20.4549 7.48171 20.5415C7.59727 20.5849 7.59727 20.686 7.45282 20.9171C7.17838 21.3649 7.42393 21.5526 8.0306 21.3793C8.60838 21.2204 9.12838 21.3937 9.51838 21.8849C9.67727 22.0871 9.90838 22.246 10.0384 22.2604C10.1684 22.2604 10.4862 22.3904 10.7173 22.5493C10.9628 22.6937 11.3095 22.896 11.5117 22.9826C11.9884 23.1849 13.1873 23.0693 13.505 22.766C13.6495 22.636 13.9095 22.5349 14.0828 22.5349C14.2995 22.5349 14.4006 22.4482 14.4006 22.2604C14.4006 22.116 14.4873 21.8271 14.5884 21.6104L14.5973 21.5939C14.6751 21.4494 14.8855 21.4593 14.9495 21.6104V21.6104C15.0506 21.8126 15.1228 22.1882 15.1228 22.4482C15.1228 22.8815 15.1661 22.9249 15.4695 22.8671C15.9317 22.7804 16.0473 23.1415 15.7728 23.806C15.4839 24.4704 15.3539 24.5571 14.5017 24.5571C13.7073 24.5571 13.0428 24.846 12.7973 25.3082C12.6673 25.5537 12.6817 25.6404 12.8695 25.7415C13.0139 25.8137 13.1006 26.0593 13.1006 26.3482C13.1006 26.6371 13.2162 26.926 13.3895 27.0849C13.7073 27.3737 13.7073 27.3737 13.9528 26.9115C14.1839 26.4637 14.4728 26.4926 14.6895 26.9982C14.8628 27.446 15.2961 27.7204 15.3828 27.446C15.4117 27.3593 15.5995 27.0993 15.8017 26.8682C16.0617 26.5504 16.2784 26.4349 16.6395 26.4349C17.0006 26.4349 17.3184 26.2615 17.9973 25.6837C18.4884 25.2793 18.9217 24.7882 18.965 24.6004C19.0661 24.2393 18.7773 23.4015 18.575 23.4015C18.5028 23.4015 18.445 23.2282 18.445 23.0115C18.445 22.7949 18.315 22.4915 18.1706 22.3326C17.9395 22.0871 17.8961 21.8993 17.9684 21.4082C18.0117 21.0615 18.1417 20.7437 18.2573 20.7004C18.3584 20.6571 18.6761 20.8015 18.965 21.0182C19.2395 21.2349 19.6439 21.4515 19.8461 21.5093C20.265 21.6249 20.4095 21.8126 20.5395 22.4193C20.5828 22.6504 20.6984 22.8237 20.785 22.8237C21.0884 22.8237 21.7673 22.0582 21.7673 21.726C21.7673 21.4804 21.8828 21.3793 22.215 21.3071C22.4606 21.2493 22.8795 21.0182 23.1539 20.7726C23.775 20.2237 23.9917 19.4726 23.7895 18.5626C23.6017 17.7538 23.4428 17.4215 22.5761 16.136C21.7673 14.9226 21.4784 13.9982 21.7095 13.3771C21.8828 12.9438 23.0673 13.1893 23.0673 13.666C23.0673 13.7815 23.1684 13.9115 23.2984 13.9693C23.5584 14.0704 24.2228 13.4782 24.2228 13.1315C24.2228 12.9438 24.3961 12.886 25.1039 12.8282C25.8839 12.7704 26.0572 12.6982 26.4039 12.3082C26.635 12.0482 26.8228 11.6726 26.8228 11.4704C26.8228 10.676 26.1439 9.9682 25.3639 9.9682C25.1184 9.9682 25.0895 10.0404 25.1617 10.4304C25.2772 11.0804 25.0895 11.2826 24.3384 11.3693L24.2084 11.3841C23.9498 11.4135 23.731 11.1946 23.7606 10.936V10.936C23.8039 10.546 23.7461 10.3871 23.4861 10.1993C22.9806 9.85265 22.7784 9.91043 22.7784 10.4015C22.7784 10.7915 22.6917 10.8782 21.7095 11.3404C20.8284 11.7593 20.5973 11.9326 20.395 12.3804C20.1639 12.8571 20.1495 13.0304 20.2939 13.7238C20.395 14.1571 20.655 14.8938 20.9006 15.356C21.1317 15.8038 21.3339 16.2226 21.3339 16.266C21.3339 16.396 19.745 15.4715 19.2684 15.0815C18.7339 14.6338 18.6473 14.6482 18.4595 15.1971C18.315 15.5871 18.3439 15.7026 18.575 15.9482C18.7195 16.1215 18.9217 16.396 19.0084 16.5693C19.095 16.7571 19.4417 17.0315 19.7595 17.2049C20.265 17.4504 20.3228 17.5226 20.1206 17.6671C19.9473 17.8115 19.9184 17.9993 20.0195 18.6638C20.1495 19.6315 20.2361 19.776 20.5828 19.5304C21.4206 18.9238 21.9839 18.9815 21.9839 19.6604C21.9839 20.296 20.6261 20.6137 19.7739 20.166C18.6906 19.6026 17.2895 17.306 16.9717 15.616C16.755 14.4893 17.0584 13.6226 17.7661 13.2904C18.0117 13.1749 18.3728 12.8426 18.5461 12.5682C18.7195 12.2938 18.9939 11.8893 19.1528 11.6726C19.3261 11.4704 19.4561 11.1238 19.4561 10.936C19.4561 10.4015 20.0339 9.59265 20.5395 9.4482C21.175 9.26043 21.3484 8.63932 20.9006 8.16265C20.7128 7.97487 20.4384 7.77265 20.2939 7.71487C20.1495 7.67154 20.0339 7.52709 20.0484 7.39709C20.1061 6.76154 20.0339 6.64598 19.615 6.64598C19.3695 6.64598 19.1384 6.71821 19.095 6.79043C19.0373 6.8771 18.8639 6.83376 18.6328 6.64598C17.9684 6.12599 16.8561 6.41487 16.8561 7.12265C16.8417 7.65709 16.365 8.09043 15.7873 8.09043C15.4984 8.09043 15.2673 8.16265 15.2673 8.24932C15.2673 8.33598 15.1806 8.48043 15.0795 8.58154C14.9206 8.74043 14.8339 8.72598 14.5595 8.50932C14.3717 8.35043 14.0684 8.23487 13.8806 8.23487C13.5484 8.23487 13.5339 8.27821 13.6206 8.84154C13.7506 9.65043 14.0395 9.9682 14.6461 9.9682C15.0217 9.9682 15.1228 10.026 15.1228 10.2426C15.1228 10.3871 15.0361 10.5893 14.9206 10.676C14.7617 10.806 14.6173 10.7626 14.2706 10.4593L14.181 10.3865C13.997 10.237 13.7206 10.3104 13.635 10.5315V10.5315C13.5195 10.8349 13.375 10.9793 13.1728 10.9793C13.0139 10.9793 12.6095 11.1093 12.3062 11.2682C11.7428 11.5571 11.7284 11.5571 11.3673 11.2971C10.8906 10.936 10.7895 10.2571 11.2228 10.2571C11.3817 10.2571 11.555 10.1704 11.5984 10.0549C11.6562 9.91043 11.8439 9.88154 12.2628 9.93931C12.9417 10.026 12.9273 9.82376 12.2339 9.47709C11.8439 9.28932 11.7862 9.28932 11.6706 9.50598C11.555 9.72265 11.5117 9.69376 11.3817 9.36154C11.3095 9.15932 11.1073 8.94265 10.9628 8.89932C10.8039 8.84154 10.645 8.6682 10.5873 8.49487C10.4862 8.07598 10.5873 8.00376 10.8762 8.24932C11.0928 8.42265 11.1073 8.40821 11.0062 8.09043V8.09043C10.9797 7.99591 11.0971 7.92873 11.1652 7.99944L11.2806 8.11932C11.7139 8.58154 11.9739 8.62487 12.2339 8.30709C12.4073 8.10487 12.4506 8.10487 12.7539 8.30709C12.9417 8.42265 13.1295 8.52376 13.1728 8.52376C13.3173 8.52376 13.245 7.85932 13.0717 7.68598C12.9562 7.57043 12.9562 7.46932 13.0862 7.31043C13.245 7.12265 13.1873 7.07932 12.7539 6.99265C12.465 6.94932 12.0895 6.93487 11.9306 6.97821C11.7573 7.02154 11.5262 6.97821 11.4106 6.86265C11.2373 6.67487 11.2662 6.58821 11.6562 6.21265C11.9017 5.9671 12.0606 5.7071 12.0173 5.63487C11.9739 5.54821 11.6128 5.49043 11.2373 5.49043C10.7606 5.49043 10.4284 5.40376 10.1684 5.20154L10.0592 5.11337C9.92137 5.00204 9.71615 5.04459 9.63393 5.20154V5.20154ZM11.1506 5.75043V5.75043C11.2662 5.72636 11.3478 5.86092 11.273 5.95227L11.1073 6.15487C10.6595 6.70376 10.5006 6.76154 10.5006 6.37154C10.5006 6.2271 10.3995 6.02487 10.2839 5.92376C10.1684 5.82265 10.0673 5.64932 10.0673 5.54821C10.0673 5.37487 10.1395 5.38932 10.4284 5.5771C10.6306 5.7071 10.9484 5.77932 11.1506 5.75043ZM8.56504 6.97821C8.75282 7.20932 8.91171 7.51265 8.91171 7.67154C8.91171 7.90265 8.83949 7.93154 8.52171 7.85932C7.82838 7.71487 7.75616 7.67154 7.75616 7.41154C7.75616 7.2671 7.65505 6.99265 7.52505 6.81932C7.30838 6.50154 7.42393 6.37154 7.71282 6.66043C7.81393 6.76154 7.9006 6.68932 7.97282 6.40043C8.07393 6.05376 8.10282 6.03932 8.1606 6.28487C8.18949 6.44376 8.37727 6.76154 8.56504 6.97821ZM9.83615 6.57376C9.87949 6.68932 9.8506 6.79043 9.77838 6.79043C9.69171 6.79043 9.63393 6.68932 9.63393 6.57376C9.63393 6.45821 9.66282 6.3571 9.69171 6.3571C9.7206 6.3571 9.77838 6.45821 9.83615 6.57376ZM18.4306 6.84821C18.6473 6.96376 18.9217 7.16598 19.0228 7.29598C19.2106 7.51265 19.2395 7.51265 19.4706 7.19487C19.7739 6.80487 19.9906 6.92043 19.7306 7.35376C19.7179 7.37367 19.7059 7.39335 19.6947 7.4126C19.5952 7.58329 19.6872 7.73487 19.8635 7.82402C19.9742 7.88001 20.1095 7.94769 20.2506 8.01821C21.1173 8.45154 21.0884 9.08709 20.2217 9.10154C20.0339 9.10154 19.8895 9.15932 19.8895 9.24598C19.8895 9.49154 19.485 9.23154 19.4128 8.94265C19.3261 8.62487 19.0228 8.56709 19.0228 8.88487C19.0228 9.00043 18.9073 9.10154 18.7484 9.10154C18.6039 9.10154 18.315 9.23154 18.1273 9.39043C17.795 9.65043 17.7806 9.72265 17.8817 10.3582C17.9395 10.7338 18.0261 11.1526 18.0839 11.2826C18.1273 11.4126 18.0695 11.7593 17.9539 12.0482C17.8384 12.3371 17.795 12.5682 17.8528 12.5682C18.2428 12.5682 18.7773 10.8204 18.4595 10.6182C18.185 10.4593 18.2861 10.3149 18.705 10.3293C19.2684 10.3293 19.4273 10.9071 18.9795 11.4126C18.8061 11.6149 18.5461 12.0049 18.4017 12.2938C18.2428 12.5971 17.925 12.9149 17.6361 13.0593C16.4373 13.6226 16.4084 15.6449 17.5784 17.9993C18.0695 19.0104 19.1384 20.2671 19.7595 20.5849C20.4961 20.9749 22.1717 20.7293 22.5184 20.1804C22.7061 19.8915 22.6484 19.2415 22.4028 19.0104C22.1284 18.7215 21.3339 18.7071 20.9584 18.996C20.525 19.3138 20.4673 19.256 20.4673 18.5626C20.4673 17.9993 20.5106 17.8838 20.8284 17.7682C21.3195 17.5804 21.2761 17.4071 20.7273 17.1904C20.0484 16.916 19.3117 16.3526 19.3117 16.0926C19.3117 15.9771 19.2106 15.8471 19.095 15.8038C18.9073 15.7315 18.7773 15.3126 18.9361 15.3126C18.965 15.3126 19.3695 15.5582 19.8317 15.8615C20.7128 16.4393 22.2006 17.1038 22.2006 16.9304C22.2006 16.8726 22.0273 16.5404 21.825 16.1793C21.2617 15.2115 20.7561 13.7815 20.7561 13.1749C20.7561 12.4382 21.0595 12.0626 21.8684 11.7593C22.6339 11.4849 23.2117 11.0371 23.2117 10.7338C23.2117 10.6326 23.2839 10.546 23.3561 10.546C23.6017 10.546 23.515 10.9793 23.1973 11.4415C23.162 11.4886 23.1291 11.5351 23.0993 11.5793C22.9624 11.7829 23.0595 11.9267 23.3038 11.9045C23.9104 11.8493 25.0675 11.6512 25.2628 11.5426C25.5806 11.3693 25.855 10.7338 25.725 10.5171C25.6672 10.4304 25.7395 10.4015 25.8984 10.4304C26.0428 10.4593 26.2595 10.6471 26.375 10.8493C26.5484 11.1671 26.5628 11.2971 26.3895 11.6871C26.1584 12.2649 25.7684 12.4238 24.5695 12.4238C23.6739 12.4238 23.645 12.4382 23.8184 12.7126C23.9772 12.9582 23.9628 13.0304 23.7895 13.146C23.515 13.3193 23.3561 13.3193 23.3561 13.146C23.3561 12.9726 22.5761 12.5682 22.2295 12.5682C21.8106 12.5682 21.1895 13.1171 21.1895 13.4926C21.1895 14.2293 21.6806 15.3849 22.5328 16.6271C23.3706 17.8693 23.4284 18.0138 23.4717 18.9093C23.5295 19.8193 23.5006 19.8915 23.0961 20.2815C22.8217 20.5271 22.2873 20.7871 21.7384 20.946C21.0884 21.1337 20.9006 21.2349 21.0884 21.3071C21.3917 21.4371 21.4061 21.7115 21.1173 21.9571C20.9439 22.1015 20.9006 22.0871 20.9006 21.8849C20.9006 21.5382 20.4817 21.0904 20.1784 21.0904C20.0484 21.0904 19.6439 20.9026 19.2973 20.6571C18.6473 20.2093 17.8961 20.0937 17.8095 20.3971C17.7806 20.4982 17.6795 20.9315 17.5784 21.3649C17.405 22.1304 17.405 22.1449 17.795 22.4626C18.0695 22.6649 18.1706 22.8526 18.1128 23.0115C18.055 23.1704 18.1561 23.3871 18.3728 23.6037C18.575 23.806 18.7339 24.0804 18.7339 24.2104C18.7339 24.6437 17.3184 25.8137 16.6684 25.9149C16.2928 25.9726 15.9317 26.1749 15.6139 26.4926L15.4409 26.6656C15.2999 26.8067 15.0599 26.7527 14.9928 26.5649V26.5649C14.8773 26.2471 14.7617 26.146 14.4584 26.146C14.2417 26.146 13.9384 26.2471 13.7939 26.3771C13.5773 26.5793 13.5339 26.5937 13.4617 26.406C13.4184 26.2904 13.4473 26.016 13.5339 25.7849C13.6495 25.4815 13.6495 25.3515 13.5195 25.2649C13.2162 25.0771 13.895 24.8604 14.6606 24.8893C15.2528 24.9182 15.455 24.8604 15.7584 24.5715C16.5528 23.8204 16.5817 22.3904 15.8161 22.3904C15.5417 22.3904 15.4839 22.3037 15.455 21.8849C15.4261 21.2926 14.9061 20.3682 14.6028 20.3682C14.4728 20.3682 14.4006 20.5271 14.4006 20.8737C14.4006 21.206 14.3139 21.4371 14.1261 21.5526C13.9817 21.6393 13.8806 21.7982 13.9095 21.8849C13.9961 22.116 12.8117 22.6793 12.2484 22.6793C11.945 22.6793 11.6706 22.5637 11.4539 22.3182C11.2662 22.116 11.035 21.9571 10.9484 21.9571C10.6595 21.9571 9.87949 21.5093 9.63393 21.206C9.48949 21.0182 9.15727 20.8882 8.72393 20.8449L8.48678 20.8152C8.29822 20.7916 8.21702 20.5633 8.34838 20.426V20.426L8.44167 20.3242C8.52759 20.2305 8.4611 20.0793 8.33393 20.0793V20.0793C8.00171 20.0793 8.01616 20.0649 8.47838 19.646C8.96949 19.1982 9.17171 19.1549 9.74949 19.3138C9.9806 19.3715 10.0673 19.4726 10.0095 19.6315C9.7206 20.556 9.5906 20.4693 11.425 20.4549C12.7684 20.4404 13.0862 20.4115 13.0284 20.2526C12.985 20.1371 12.9562 19.8771 12.9562 19.646C12.9562 19.2704 12.8984 19.2271 12.4217 19.1838V19.1838C12.2116 19.1672 12.1214 18.9087 12.2756 18.7651L12.5084 18.5482V18.5482C12.9144 18.1699 13.4572 17.9738 14.0112 18.0053L14.415 18.0282C15.3395 18.0715 15.7006 18.0571 15.7006 17.9271C15.7006 17.8883 15.6803 17.8437 15.6476 17.8011C15.5611 17.6886 15.4121 17.6429 15.3183 17.5363C15.222 17.4267 15.1224 17.2652 15.0506 17.1038C14.935 16.8293 14.7906 16.6126 14.7184 16.6126C14.6461 16.6126 14.3428 16.396 14.0395 16.1215C13.5195 15.6449 13.4762 15.6304 13.0428 15.8182C12.3495 16.1071 10.8328 16.3526 10.2984 16.2515C9.9806 16.1793 9.66282 16.2371 9.37393 16.3815C9.12838 16.5115 8.79616 16.6126 8.62282 16.6126C8.43504 16.6126 8.33393 16.7138 8.33393 16.9015C8.33393 17.0604 8.27616 17.1904 8.18949 17.1904C7.98727 17.1904 8.01616 16.8582 8.26171 16.3815C8.47838 15.9626 8.46393 15.9626 8.01616 15.8615C7.75616 15.8182 7.52505 15.7026 7.49616 15.616C7.45282 15.5004 7.36616 15.5004 7.14949 15.616C6.74505 15.8326 6.67282 15.6738 7.01949 15.3271C7.22171 15.1249 7.5106 15.0238 7.9006 15.0238C8.31949 15.0238 8.47838 14.966 8.47838 14.8071C8.47838 14.6771 8.37727 14.5471 8.26171 14.5038C8.0306 14.4171 8.10282 14.1571 8.34838 14.1571C8.43504 14.1571 8.65171 14.3304 8.85393 14.5471C9.18616 14.9082 9.22949 14.9226 9.82171 14.7493C10.8762 14.446 12.5228 13.8393 12.5228 13.7382C12.5228 13.6949 12.3062 13.6371 12.0462 13.6226C11.3528 13.5938 10.6739 13.3049 10.9195 13.146C11.0784 13.0593 11.035 13.016 10.775 12.9726C10.5873 12.9582 10.4428 12.8715 10.4717 12.8138C10.5006 12.7415 10.3995 12.5971 10.255 12.4815C10.1106 12.3804 10.0384 12.2793 10.1106 12.2793C10.1684 12.2793 10.0962 12.1493 9.96615 12.0049C9.82171 11.846 9.61949 11.6149 9.51838 11.4849C9.37393 11.326 9.2006 11.2826 8.92616 11.3404C8.57949 11.4126 8.52171 11.3693 8.34838 10.8926C8.18949 10.4304 8.18949 10.3149 8.4206 9.88154C8.72393 9.3182 9.12838 9.24598 10.0673 9.62154C10.5728 9.82376 10.645 9.91043 10.645 10.3293C10.645 10.8638 10.9917 11.3693 11.6273 11.7304C12.0317 11.976 12.075 11.976 12.3928 11.7304C12.8839 11.3404 13.1728 11.2682 13.635 11.3982V11.3982C13.7575 11.4288 13.7666 11.5994 13.6481 11.6428L13.6062 11.6582C13.3606 11.7449 12.9128 12.0482 12.595 12.3371L12.3417 12.5715C12.2494 12.6568 12.3274 12.8095 12.4506 12.7849V12.7849C12.6962 12.7415 13.2595 12.6693 13.7362 12.6115C14.4295 12.5393 14.5739 12.5682 14.5161 12.7271C14.4873 12.8426 14.2995 13.016 14.0973 13.1171C13.765 13.3049 13.7795 13.3049 14.2995 13.2615C14.8628 13.2038 14.935 13.2615 14.6606 13.5649C14.5017 13.7238 14.5306 13.7238 14.8339 13.5793C15.0361 13.4782 15.3106 13.3049 15.455 13.1749C15.7728 12.9004 15.7728 13.1026 15.455 13.4638C15.1661 13.7815 15.4117 13.8104 15.9895 13.5071C16.3939 13.3049 17.145 12.4526 17.145 12.2071C17.145 12.1349 16.9428 12.2649 16.6973 12.5104L16.6798 12.5268C16.5455 12.6524 16.329 12.5319 16.365 12.3515V12.3515V12.3515C16.394 12.1862 16.1879 12.0867 16.0765 12.2122L15.8884 12.4238C15.3539 13.016 15.2961 13.0449 15.2095 12.7704C15.1084 12.4238 14.1117 12.0626 13.6495 12.2215C13.4617 12.2793 13.3895 12.2504 13.4473 12.1493C13.505 12.0626 13.8084 11.9326 14.1261 11.846C14.675 11.6871 14.7039 11.6726 14.4873 11.4271C14.3573 11.2826 14.2561 11.066 14.2561 10.9215C14.2561 10.6904 14.285 10.6904 14.6606 10.9504C15.2239 11.3549 15.6428 11.456 15.9895 11.2682C16.3939 11.0515 16.3506 10.7338 15.8884 10.5893V10.5893C15.7165 10.5298 15.6681 10.3098 15.7991 10.1836L15.9028 10.0838C16.3795 9.65043 16.3217 9.15932 15.7728 9.01487C15.4695 8.94265 15.455 8.89932 15.5995 8.65376C15.715 8.46598 15.8739 8.39376 16.0617 8.43709C16.4806 8.5382 17.0006 8.37932 17.0006 8.14821C17.0006 7.84487 17.3906 7.72932 17.6506 7.94598C17.7806 8.04709 17.9106 8.09043 17.9539 8.04709C18.0839 7.91709 17.8817 7.65709 17.6361 7.65709C17.3761 7.65709 17.3617 6.84821 17.6217 6.7471C17.9106 6.6171 18.0117 6.63154 18.4306 6.84821ZM9.99504 7.32487C9.9806 7.55598 9.8506 8.00376 9.70615 8.32154C9.44615 8.89932 9.41727 8.91376 8.91171 8.85598C8.46393 8.7982 8.2906 8.85598 7.82838 9.26043C7.29394 9.73709 7.27949 9.73709 7.3806 9.39043C7.43838 9.1882 7.49616 8.94265 7.49616 8.85598C7.52505 8.61043 8.00171 8.46598 8.59393 8.50932C8.9406 8.5382 9.14282 8.45154 9.34504 8.20598C9.37923 8.16559 9.4114 8.12519 9.441 8.08609C9.58903 7.89051 9.64447 7.64728 9.72977 7.4173C9.81621 7.18425 9.93635 6.93487 9.9806 6.93487C10.0095 6.93487 10.0239 7.10821 9.99504 7.32487ZM12.5228 7.31043C12.5228 7.49821 12.205 7.94598 12.075 7.94598C11.9884 7.94598 11.7573 7.81598 11.5695 7.67154V7.67154C11.4369 7.56547 11.4994 7.35201 11.6683 7.33424L11.7573 7.32487C12.0606 7.29598 12.3495 7.2671 12.4217 7.25265C12.4795 7.23821 12.5228 7.2671 12.5228 7.31043ZM10.2117 8.81265C10.2117 8.97154 10.1539 9.10154 10.0673 9.10154C9.99504 9.10154 9.92282 8.97154 9.92282 8.81265C9.92282 8.65376 9.99504 8.52376 10.0673 8.52376C10.1539 8.52376 10.2117 8.65376 10.2117 8.81265ZM14.6606 9.14487C14.7761 9.37598 14.8195 9.59265 14.7617 9.65043C14.6028 9.80931 14.1984 9.4482 14.0973 9.04376C14.0106 8.72598 14.025 8.65376 14.2273 8.69709C14.3573 8.72598 14.5595 8.9282 14.6606 9.14487ZM11.0062 9.39043C11.0495 9.46265 11.035 9.53487 10.9484 9.53487C10.8762 9.53487 10.7606 9.46265 10.7173 9.39043C10.6739 9.30376 10.6884 9.24598 10.775 9.24598C10.8473 9.24598 10.9628 9.30376 11.0062 9.39043ZM15.8161 9.66487C15.8595 9.78043 15.8017 9.8382 15.6861 9.79487C15.585 9.76598 15.4695 9.65043 15.4406 9.54932C15.3973 9.43376 15.455 9.37598 15.5706 9.41932C15.6717 9.4482 15.7873 9.56376 15.8161 9.66487ZM19.0661 9.75154C19.0806 9.82376 18.8784 9.91043 18.6328 9.93931C18.185 9.98265 18.0261 9.85265 18.2573 9.62154C18.4017 9.47709 19.0228 9.5782 19.0661 9.75154ZM8.86838 12.2071C8.76727 12.4093 8.63727 12.5682 8.57949 12.5682C8.50727 12.5682 8.49282 12.5249 8.52171 12.4526C8.5506 12.3949 8.62282 12.236 8.66616 12.0915C8.72393 11.9615 8.82504 11.846 8.89727 11.846C8.96949 11.846 8.95504 12.0049 8.86838 12.2071Z" fill="white"/>
<path d="M17.6509 7.07931C17.6076 7.15153 17.6654 7.26709 17.7954 7.31042C18.1132 7.44042 18.2143 7.29598 17.9543 7.09376C17.8098 6.9782 17.7232 6.96376 17.6509 7.07931Z" fill="white"/>
<path d="M18.2425 8.19157C18.1991 8.2349 18.1991 8.33601 18.2425 8.39379C18.3436 8.56712 18.7336 8.55268 18.7336 8.39379C18.7336 8.2349 18.358 8.07601 18.2425 8.19157Z" fill="white"/>
<path d="M19.7451 8.45155C19.7451 8.58155 19.8173 8.66822 19.904 8.63933C19.9907 8.61044 20.0629 8.52378 20.0629 8.45155C20.0629 8.37933 19.9907 8.29266 19.904 8.26378C19.8173 8.23489 19.7451 8.32155 19.7451 8.45155Z" fill="white"/>
<path d="M17.1745 8.6827C17.2034 8.76937 17.2901 8.82715 17.3623 8.82715C17.4345 8.82715 17.5212 8.76937 17.5501 8.6827C17.579 8.59604 17.4923 8.52382 17.3623 8.52382C17.2323 8.52382 17.1456 8.59604 17.1745 8.6827Z" fill="white"/>
<path d="M16.5091 9.75149C16.3936 10.1848 16.4947 10.4015 16.8124 10.4015C16.9858 10.4015 17.0002 10.3582 16.8702 10.1993C16.8474 10.1731 16.8289 10.1477 16.8151 10.1236C16.7445 10.0004 16.9216 9.88181 16.858 9.75494C16.8399 9.71905 16.8149 9.67909 16.7836 9.63593C16.6102 9.40482 16.5958 9.40482 16.5091 9.75149Z" fill="white"/>
<path d="M16.4229 10.5604C16.4229 10.7337 16.784 10.8781 17.0151 10.8059C17.1017 10.777 17.0151 10.6759 16.7984 10.5748C16.5673 10.4737 16.4229 10.4592 16.4229 10.5604Z" fill="white"/>
<path d="M11.0791 8.66818C11.0791 8.7404 11.2091 8.81262 11.3824 8.81262C11.5413 8.81262 11.628 8.7404 11.5847 8.66818C11.5413 8.58151 11.3969 8.52373 11.2813 8.52373C11.1658 8.52373 11.0791 8.58151 11.0791 8.66818Z" fill="white"/>
<path d="M11.9453 8.94261C11.9453 9.01484 12.0175 9.13039 12.0898 9.17373C12.1764 9.21706 12.2342 9.20261 12.2342 9.11595C12.2342 9.04373 12.1764 8.92817 12.0898 8.88484C12.0175 8.8415 11.9453 8.85595 11.9453 8.94261Z" fill="white"/>
</svg>
