<svg width="32" height="32" viewBox="0 0 32 32" fill="none" xmlns="http://www.w3.org/2000/svg">
<rect width="32" height="32" rx="8" fill="#D2E4FF" fill-opacity="0.06"/>
<path d="M21.5747 4.09036C18.7021 6.60648 17.5699 7.88551 17.3183 8.9339C16.7521 11.1565 18.0521 13.0645 20.1699 13.0645C20.6731 13.0645 21.3441 12.9178 21.6796 12.75C22.036 12.5613 22.3086 12.4565 22.3086 12.5194C22.3086 12.5613 22.036 13.2533 21.7215 14.0291L21.1344 15.4758H22.9376H24.7408L24.1537 14.0291C23.8392 13.2533 23.5667 12.5613 23.5667 12.5194C23.5667 12.4565 23.8392 12.5613 24.1957 12.75C25.5796 13.4629 27.6134 12.9178 28.2425 11.6597C29.165 9.81454 28.8086 8.43067 26.9425 6.56455C25.3908 5.01294 23.1263 3.00003 22.9376 3.00003C22.8747 3.00003 22.2457 3.48229 21.5747 4.09036Z" fill="white"/>
<path d="M5.19871 4.34199C3.68904 5.01296 2.85033 7.1307 3.47936 8.66134C3.87775 9.58392 9.01484 14.9517 9.51806 14.9517C10.0003 14.9517 15.1374 9.64683 15.5148 8.74521C16.8987 5.45328 12.9148 2.5807 10.231 4.92909L9.4971 5.57909L8.93097 5.03393C7.90355 4.04844 6.47774 3.79683 5.19871 4.34199Z" fill="#599BBE"/>
<path d="M8.1338 16.8178C6.98057 17.5307 6.56122 18.2645 6.62412 19.4387C6.68703 20.4871 6.66606 20.5081 5.86928 20.9274C4.65316 21.5355 4.1709 22.3113 4.1709 23.6532C4.1709 25.5823 5.55477 26.8194 7.46283 26.5887C8.32251 26.4839 8.42735 26.5258 8.36444 26.8403C8.32251 27.05 8.23864 27.6161 8.1967 28.0984L8.09186 29H9.51767H10.9435L10.8386 28.0984C10.7967 27.6161 10.7128 27.071 10.6919 26.8823C10.629 26.6097 10.8177 26.5468 11.8241 26.5677C12.8096 26.5887 13.1241 26.5048 13.7741 26.0016C15.5983 24.6177 15.158 21.5355 13.0193 20.8436C12.3693 20.6129 12.3483 20.5919 12.4112 19.5016C12.4741 18.5371 12.4112 18.2855 11.929 17.6984C10.8386 16.4194 9.37089 16.0629 8.1338 16.8178Z" fill="white"/>
<path d="M20.2324 19.6064C18.8485 21.2419 17.6953 22.6258 17.6953 22.7096C17.6953 22.9193 22.7485 28.7903 22.9372 28.7903C23.126 28.7903 28.1792 22.9403 28.1792 22.7096C28.1792 22.5 23.126 16.629 22.9372 16.629C22.8534 16.629 21.6372 17.9709 20.2324 19.6064Z" fill="#599BBE"/>
</svg>
