<svg width="64" height="40" viewBox="0 0 64 40" fill="none" xmlns="http://www.w3.org/2000/svg">
<g clip-path="url(#clip0_1589_21603)">
<mask id="mask0_1589_21603" style="mask-type:alpha" maskUnits="userSpaceOnUse" x="0" y="0" width="64" height="40">
<path d="M0 0H64V40H0V0Z" fill="#700000"/>
<path d="M0 0H64V40H0V0Z" fill="url(#paint0_linear_1589_21603)"/>
</mask>
<g mask="url(#mask0_1589_21603)">
<path d="M6.49435 18.7609L8.70811 16.5612L10.9228 18.7627L12.2102 17.4821L8.70811 14L5.20607 17.4812L6.49435 18.7609Z" fill="#F3BA2F"/>
<path d="M3.00806 19.6655L4.29587 18.3854L5.58368 19.6655L4.29587 20.9457L3.00806 19.6655Z" fill="#F3BA2F"/>
<path d="M6.49435 20.5695L8.70811 22.7701L10.9228 20.5686L12.2111 21.8474L12.2102 21.8483L8.70811 25.3304L5.20607 21.8501L5.20427 21.8483L6.49435 20.5695Z" fill="#F3BA2F"/>
<path d="M11.8304 19.6658L13.1182 18.3856L14.406 19.6658L13.1182 20.9459L11.8304 19.6658Z" fill="#F3BA2F"/>
<path d="M10.0144 19.6649L8.70812 18.3655L7.74213 19.3257L7.6305 19.4358L7.40183 19.6631L7.40003 19.6649L7.40183 19.6676L8.70812 20.9652L10.0144 19.6658L10.0153 19.6649H10.0144Z" fill="#F3BA2F"/>
<path d="M16.4153 16.7456H19.2169C19.912 16.7456 20.4377 16.9246 20.7942 17.2826C20.9285 17.4148 21.0344 17.5728 21.1055 17.7469C21.1765 17.921 21.2112 18.1077 21.2074 18.2956V18.3126C21.2099 18.4665 21.1883 18.6199 21.1435 18.7672C21.1036 18.8941 21.0457 19.0146 20.9716 19.1252C20.9024 19.2294 20.8188 19.3235 20.7231 19.4044C20.6296 19.4844 20.5272 19.5534 20.4179 19.6102C20.7331 19.7194 21.0166 19.9037 21.2435 20.1472C21.4439 20.3739 21.5441 20.6871 21.5441 21.0868V21.1038C21.5498 21.3535 21.4952 21.6008 21.3848 21.8251C21.2778 22.0318 21.121 22.2089 20.9284 22.3406C20.7106 22.4857 20.4681 22.5904 20.2126 22.6493C19.9092 22.7209 19.5981 22.7554 19.2863 22.7523H16.4153V16.7456ZM18.9361 19.1744C19.1785 19.186 19.4197 19.1342 19.6356 19.024C19.7198 18.9752 19.7885 18.9038 19.834 18.8181C19.8795 18.7324 19.9 18.6357 19.8931 18.539V18.522C19.8975 18.4329 19.8793 18.3442 19.8401 18.2639C19.8009 18.1837 19.742 18.1145 19.6689 18.0629C19.5194 17.9573 19.3037 17.9045 19.0216 17.9045H17.7108V19.1744H18.9361ZM19.2899 21.5951C19.5314 21.6086 19.7717 21.5537 19.9831 21.4367C20.0654 21.3841 20.1321 21.3106 20.1761 21.2237C20.2201 21.1368 20.2399 21.0398 20.2334 20.9427V20.9257C20.2366 20.8335 20.217 20.7418 20.1764 20.6588C20.1357 20.5758 20.0752 20.504 20.0002 20.4496C19.8453 20.3303 19.5951 20.2707 19.2494 20.2707H17.7108V21.5951H19.2899Z" fill="#F3BA2F"/>
<path d="M23.2132 16.7456H24.5429V22.754H23.2132V16.7456Z" fill="#F3BA2F"/>
<path d="M26.555 16.7456H27.7812L30.6152 20.4434V16.7456H31.9278V22.754H30.7962L27.8694 18.9346V22.754H26.555V16.7456Z" fill="#F3BA2F"/>
<path d="M35.9538 16.7026H37.1782L39.7683 22.754H38.3801L37.8273 21.4063H35.2714L34.7187 22.754H33.3629L35.9538 16.7026ZM37.3529 20.2393L36.548 18.2902L35.7468 20.2393H37.3529Z" fill="#F3BA2F"/>
<path d="M41.206 16.7456H42.4322L45.2644 20.4434V16.7456H46.577V22.754H45.4454L42.5186 18.9346V22.754H41.206V16.7456Z" fill="#F3BA2F"/>
<path d="M51.3628 22.8598C50.9391 22.8634 50.5189 22.7818 50.1277 22.6199C49.7593 22.4688 49.4251 22.2458 49.1448 21.9642C48.8645 21.6827 48.6437 21.3482 48.4955 20.9805C48.3391 20.5958 48.2598 20.1845 48.2623 19.7697V19.7526C48.2553 18.9349 48.5719 18.1472 49.1437 17.5592C49.425 17.272 49.7618 17.0443 50.134 16.8898C50.5387 16.7232 50.9734 16.64 51.4114 16.6455C51.6706 16.6436 51.9292 16.6667 52.1839 16.7144C52.4017 16.7554 52.6147 16.8187 52.8195 16.9033C53.0053 16.981 53.1819 17.0788 53.3461 17.195C53.5064 17.3083 53.657 17.4346 53.7963 17.5726L52.9509 18.5427C52.7349 18.3446 52.4926 18.1769 52.2307 18.0443C51.9734 17.922 51.6911 17.8607 51.406 17.8653C51.1688 17.8628 50.9337 17.9105 50.7164 18.0052C50.4991 18.0999 50.3045 18.2395 50.1457 18.4148C49.9882 18.5895 49.8648 18.792 49.782 19.0117C49.6952 19.2439 49.6516 19.4898 49.6532 19.7374V19.7544C49.6524 20.0018 49.696 20.2472 49.782 20.4793C49.8638 20.6998 49.9858 20.9034 50.1421 21.0798C50.2997 21.2572 50.4937 21.3989 50.7112 21.4952C50.9286 21.5915 51.1644 21.6403 51.4024 21.6382C51.7056 21.6477 52.0064 21.5829 52.2784 21.4494C52.5373 21.3091 52.7767 21.1358 52.9905 20.9339L53.8368 21.7841C53.6874 21.9453 53.5257 22.0949 53.3533 22.2316C53.1839 22.3647 53 22.4785 52.8051 22.5707C52.5973 22.6679 52.3784 22.7398 52.1533 22.7846C51.8931 22.8365 51.6282 22.8617 51.3628 22.8598Z" fill="#F3BA2F"/>
<path d="M55.4059 16.7456H59.955V17.9215H56.714V19.1404H59.5679V20.3163H56.7185V21.5781H60V22.754H55.4086L55.4059 16.7456Z" fill="#F3BA2F"/>
</g>
</g>
<defs>
<linearGradient id="paint0_linear_1589_21603" x1="32" y1="0" x2="32" y2="40" gradientUnits="userSpaceOnUse">
<stop offset="0.265266" stop-color="#B20426"/>
<stop offset="1" stop-color="#9A0825"/>
</linearGradient>
<clipPath id="clip0_1589_21603">
<rect width="64" height="40" rx="8" fill="white"/>
</clipPath>
</defs>
</svg>
