<svg width="64" height="40" viewBox="0 0 64 40" fill="none" xmlns="http://www.w3.org/2000/svg">
<g clip-path="url(#clip0_1590_21635)">
<mask id="mask0_1590_21635" style="mask-type:alpha" maskUnits="userSpaceOnUse" x="0" y="0" width="64" height="40">
<path d="M0 0H64V40H0V0Z" fill="#700000"/>
<path d="M0 0H64V40H0V0Z" fill="url(#paint0_linear_1590_21635)"/>
</mask>
<g mask="url(#mask0_1590_21635)">
<rect width="64" height="40" fill="#D2E4FF"/>
<path d="M6.58314 18.9953L8.22341 17.3655L9.86434 18.9967L10.8182 18.0478L8.22341 15.4678L5.6286 18.0471L6.58314 18.9953Z" fill="#F68C1F"/>
<path d="M4 19.6655L4.95419 18.717L5.90839 19.6655L4.95419 20.614L4 19.6655Z" fill="#F68C1F"/>
<path d="M6.58314 20.3354L8.22341 21.9659L9.86434 20.3347L10.8189 21.2823L10.8182 21.2829L8.22341 23.8629L5.6286 21.2842L5.62726 21.2829L6.58314 20.3354Z" fill="#F68C1F"/>
<path d="M10.5368 19.6658L11.491 18.7173L12.4452 19.6658L11.491 20.6143L10.5368 19.6658Z" fill="#F68C1F"/>
<path d="M9.1913 19.6652L8.22341 18.7024L7.50767 19.4139L7.42496 19.4954L7.25553 19.6639L7.2542 19.6652L7.25553 19.6672L8.22341 20.6286L9.1913 19.6658L9.19196 19.6652H9.1913Z" fill="#F68C1F"/>
<path d="M13.934 17.502H16.0098C16.5248 17.502 16.9143 17.6346 17.1785 17.8998C17.278 17.9978 17.3565 18.1148 17.4091 18.2439C17.4617 18.3729 17.4874 18.5112 17.4847 18.6504V18.663C17.4865 18.777 17.4705 18.8907 17.4373 18.9998C17.4078 19.0938 17.3649 19.1831 17.3099 19.2651C17.2587 19.3423 17.1967 19.412 17.1258 19.472C17.0565 19.5312 16.9807 19.5824 16.8997 19.6245C17.1332 19.7053 17.3433 19.8419 17.5114 20.0223C17.6599 20.1903 17.7341 20.4224 17.7341 20.7185V20.7311C17.7384 20.9161 17.6979 21.0994 17.6161 21.2656C17.5368 21.4187 17.4206 21.5499 17.2779 21.6475C17.1165 21.7551 16.9368 21.8326 16.7476 21.8763C16.5227 21.9293 16.2923 21.9549 16.0612 21.9525H13.934V17.502ZM15.8017 19.3015C15.9813 19.3102 16.16 19.2718 16.32 19.1901C16.3824 19.1539 16.4333 19.1011 16.467 19.0375C16.5008 18.974 16.5159 18.9024 16.5108 18.8308V18.8182C16.5141 18.7522 16.5006 18.6864 16.4716 18.6269C16.4425 18.5675 16.3989 18.5163 16.3447 18.478C16.234 18.3998 16.0741 18.3606 15.8651 18.3606H14.8939V19.3015H15.8017ZM16.0639 21.0952C16.2428 21.1051 16.4209 21.0644 16.5775 20.9778C16.6385 20.9388 16.6879 20.8843 16.7205 20.82C16.7531 20.7556 16.7678 20.6837 16.7629 20.6118V20.5992C16.7653 20.5308 16.7508 20.4629 16.7207 20.4014C16.6906 20.3399 16.6458 20.2867 16.5902 20.2464C16.4754 20.158 16.29 20.1138 16.0338 20.1138H14.8939V21.0952H16.0639Z" fill="#F68C1F"/>
<path d="M18.9709 17.502H19.9561V21.9539H18.9709V17.502Z" fill="#F68C1F"/>
<path d="M21.4469 17.502H22.3554L24.4553 20.2418V17.502H25.4279V21.9539H24.5894L22.4208 19.1238V21.9539H21.4469V17.502Z" fill="#F68C1F"/>
<path d="M28.4109 17.4702H29.3181L31.2372 21.9539H30.2086L29.799 20.9553H27.9053L27.4957 21.9539H26.4911L28.4109 17.4702ZM29.4475 20.0907L28.8511 18.6465L28.2575 20.0907H29.4475Z" fill="#F68C1F"/>
<path d="M32.3024 17.502H33.2109L35.3095 20.2418V17.502H36.282V21.9539H35.4435L33.275 19.1238V21.9539H32.3024V17.502Z" fill="#F68C1F"/>
<path d="M39.8281 22.0321C39.5141 22.0348 39.2028 21.9743 38.9129 21.8544C38.6399 21.7424 38.3923 21.5772 38.1846 21.3685C37.9769 21.1599 37.8134 20.9121 37.7035 20.6396C37.5876 20.3546 37.5289 20.0499 37.5307 19.7425V19.7299C37.5256 19.124 37.7601 18.5403 38.1838 18.1047C38.3922 17.8919 38.6418 17.7232 38.9175 17.6087C39.2174 17.4852 39.5395 17.4236 39.8641 17.4277C40.0561 17.4263 40.2477 17.4434 40.4364 17.4787C40.5978 17.5091 40.7556 17.556 40.9073 17.6186C41.045 17.6762 41.1759 17.7487 41.2976 17.8348C41.4163 17.9188 41.5279 18.0123 41.6311 18.1146L41.0047 18.8334C40.8447 18.6866 40.6651 18.5624 40.4711 18.4641C40.2805 18.3735 40.0713 18.3281 39.8601 18.3315C39.6843 18.3296 39.5101 18.3649 39.3491 18.4351C39.1881 18.5053 39.0439 18.6088 38.9262 18.7386C38.8095 18.8681 38.7181 19.0181 38.6567 19.1809C38.5925 19.3529 38.5601 19.5351 38.5613 19.7186V19.7312C38.5607 19.9145 38.593 20.0963 38.6567 20.2683C38.7173 20.4317 38.8078 20.5825 38.9235 20.7132C39.0403 20.8447 39.1841 20.9496 39.3452 21.021C39.5063 21.0924 39.681 21.1285 39.8574 21.127C40.082 21.134 40.3049 21.086 40.5064 20.9871C40.6983 20.8831 40.8757 20.7547 41.0341 20.6051L41.6611 21.2351C41.5504 21.3545 41.4306 21.4654 41.3029 21.5666C41.1774 21.6652 41.0411 21.7495 40.8967 21.8179C40.7427 21.8899 40.5806 21.9432 40.4137 21.9764C40.2209 22.0148 40.0247 22.0335 39.8281 22.0321Z" fill="#F68C1F"/>
<path d="M42.8237 17.502H46.1943V18.3732H43.793V19.2763H45.9075V20.1476H43.7963V21.0826H46.2277V21.9539H42.8258L42.8237 17.502Z" fill="#F68C1F"/>
<path d="M49.9003 17.2183H48.064V21.809H49.0275V20.166H49.9003C50.9318 20.166 51.5439 19.6224 51.5439 18.6921C51.5439 17.774 50.9318 17.2183 49.9003 17.2183ZM49.787 19.3445H49.0275V18.0881H49.787C50.2857 18.0881 50.5577 18.2935 50.5577 18.7163C50.5577 19.1271 50.2857 19.3445 49.787 19.3445Z" fill="#555555"/>
<path d="M54.9672 21.809H56.01L54.3324 17.2183H53.1308L51.4532 21.809H52.4734L52.7795 20.903H54.6611L54.9672 21.809ZM53.0855 20.009L53.7203 18.1243L54.3551 20.009H53.0855Z" fill="#555555"/>
<path d="M60 17.2183H58.9118L57.835 19.0787L56.7581 17.2183H55.6473L57.3362 20.009V21.809H58.311V20.021L60 17.2183Z" fill="#555555"/>
</g>
</g>
<defs>
<linearGradient id="paint0_linear_1590_21635" x1="32" y1="0" x2="32" y2="40" gradientUnits="userSpaceOnUse">
<stop offset="0.265266" stop-color="#B20426"/>
<stop offset="1" stop-color="#9A0825"/>
</linearGradient>
<clipPath id="clip0_1590_21635">
<rect width="64" height="40" rx="8" fill="white"/>
</clipPath>
</defs>
</svg>
