<svg width="64" height="40" viewBox="0 0 64 40" fill="none" xmlns="http://www.w3.org/2000/svg">
<g clip-path="url(#clip0_1589_21603)">
<mask id="mask0_1589_21603" style="mask-type:alpha" maskUnits="userSpaceOnUse" x="0" y="0" width="64" height="40">
<path d="M0 0H64V40H0V0Z" fill="#700000"/>
<path d="M0 0H64V40H0V0Z" fill="url(#paint0_linear_1589_21603)"/>
</mask>
<g mask="url(#mask0_1589_21603)">
<rect width="64" height="40" fill="#D2E4FF"/>
<path d="M7.42562 18.6781L9.60085 16.5167L11.777 18.6798L13.0419 17.4215L9.60085 14L6.15976 17.4206L7.42562 18.6781Z" fill="#F68C1F"/>
<path d="M4 19.5669L5.2654 18.309L6.5308 19.5669L5.2654 20.8248L4 19.5669Z" fill="#F68C1F"/>
<path d="M7.42562 20.4552L9.60085 22.6175L11.777 20.4543L13.0428 21.7109L13.0419 21.7118L9.60085 25.1333L6.15976 21.7136L6.15799 21.7118L7.42562 20.4552Z" fill="#F68C1F"/>
<path d="M12.6688 19.5671L13.9342 18.3093L15.1996 19.5671L13.9342 20.825L12.6688 19.5671Z" fill="#F68C1F"/>
<path d="M10.8844 19.5663L9.60086 18.2896L8.65168 19.2331L8.54199 19.3412L8.31731 19.5646L8.31554 19.5663L8.31731 19.569L9.60086 20.844L10.8844 19.5672L10.8853 19.5663H10.8844Z" fill="#F68C1F"/>
<path d="M17.1739 16.6978H19.9268C20.6097 16.6978 21.1263 16.8736 21.4766 17.2254C21.6086 17.3553 21.7126 17.5105 21.7824 17.6816C21.8522 17.8527 21.8863 18.0362 21.8826 18.2208V18.2375C21.885 18.3887 21.8638 18.5394 21.8198 18.6842C21.7806 18.8088 21.7237 18.9273 21.6509 19.0359C21.5829 19.1384 21.5007 19.2307 21.4067 19.3103C21.3149 19.3888 21.2142 19.4567 21.1068 19.5125C21.4166 19.6198 21.6951 19.8009 21.918 20.0401C22.115 20.2629 22.2135 20.5706 22.2135 20.9634V20.9801C22.2191 21.2254 22.1654 21.4685 22.0569 21.6889C21.9518 21.8919 21.7977 22.0659 21.6084 22.1954C21.3944 22.338 21.1561 22.4408 20.9051 22.4987C20.607 22.569 20.3013 22.603 19.9949 22.5999H17.1739V16.6978ZM19.6508 19.0843C19.889 19.0957 20.126 19.0448 20.3381 18.9365C20.4208 18.8885 20.4884 18.8184 20.5331 18.7342C20.5778 18.6499 20.5979 18.5549 20.5911 18.4599V18.4432C20.5955 18.3557 20.5776 18.2685 20.5391 18.1896C20.5006 18.1108 20.4427 18.0429 20.3708 17.9921C20.224 17.8884 20.012 17.8365 19.7348 17.8365H18.4468V19.0843H19.6508ZM19.9984 21.4629C20.2357 21.4761 20.4719 21.4221 20.6796 21.3072C20.7605 21.2556 20.826 21.1833 20.8692 21.0979C20.9125 21.0125 20.9319 20.9172 20.9255 20.8218V20.8051C20.9287 20.7145 20.9095 20.6244 20.8695 20.5429C20.8296 20.4613 20.7701 20.3907 20.6964 20.3373C20.5442 20.2201 20.2983 20.1615 19.9586 20.1615H18.4468V21.4629H19.9984Z" fill="#F68C1F"/>
<path d="M23.8535 16.6978H25.1601V22.6016H23.8535V16.6978Z" fill="#F68C1F"/>
<path d="M27.1371 16.6978H28.342L31.1267 20.3312V16.6978H32.4164V22.6016H31.3045L28.4287 18.8486V22.6016H27.1371V16.6978Z" fill="#F68C1F"/>
<path d="M36.3724 16.6555H37.5754L40.1204 22.6016H38.7564L38.2132 21.2773H35.7018L35.1587 22.6016H33.8265L36.3724 16.6555ZM37.747 20.1307L36.9562 18.2155L36.1689 20.1307H37.747Z" fill="#F68C1F"/>
<path d="M41.5331 16.6978H42.7379L45.5209 20.3312V16.6978H46.8106V22.6016H45.6987L42.8229 18.8486V22.6016H41.5331V16.6978Z" fill="#F68C1F"/>
<path d="M51.5132 22.7055C51.0968 22.709 50.6839 22.6289 50.2995 22.4698C49.9376 22.3213 49.6092 22.1022 49.3338 21.8255C49.0583 21.5489 48.8414 21.2202 48.6957 20.8589C48.542 20.4809 48.4642 20.0768 48.4666 19.6691V19.6524C48.4598 18.8489 48.7708 18.0749 49.3326 17.4972C49.6091 17.215 49.94 16.9912 50.3057 16.8394C50.7034 16.6757 51.1305 16.594 51.5609 16.5994C51.8155 16.5975 52.0697 16.6202 52.3199 16.6671C52.534 16.7073 52.7433 16.7695 52.9444 16.8526C53.127 16.929 53.3005 17.0251 53.4619 17.1393C53.6194 17.2506 53.7674 17.3747 53.9042 17.5104L53.0736 18.4636C52.8613 18.2689 52.6232 18.1041 52.3659 17.9738C52.1131 17.8536 51.8358 17.7934 51.5556 17.7979C51.3225 17.7954 51.0915 17.8423 50.878 17.9354C50.6644 18.0285 50.4733 18.1657 50.3172 18.3378C50.1624 18.5095 50.0412 18.7084 49.9598 18.9243C49.8746 19.1525 49.8317 19.3941 49.8333 19.6375V19.6542C49.8325 19.8972 49.8753 20.1384 49.9598 20.3664C50.0402 20.5831 50.1601 20.7831 50.3136 20.9565C50.4685 21.1308 50.6592 21.27 50.8729 21.3646C51.0865 21.4593 51.3182 21.5072 51.5521 21.5052C51.85 21.5145 52.1456 21.4508 52.4128 21.3196C52.6672 21.1818 52.9025 21.0115 53.1125 20.8131L53.944 21.6485C53.7972 21.8069 53.6384 21.9539 53.469 22.0882C53.3026 22.219 53.1219 22.3308 52.9303 22.4214C52.7261 22.517 52.5111 22.5875 52.2898 22.6316C52.0342 22.6826 51.7739 22.7073 51.5132 22.7055Z" fill="#F68C1F"/>
<path d="M55.4859 16.6978H59.9558V17.8532H56.7712V19.0509H59.5754V20.2063H56.7756V21.4462H60V22.6016H55.4885L55.4859 16.6978Z" fill="#F68C1F"/>
</g>
</g>
<defs>
<linearGradient id="paint0_linear_1589_21603" x1="32" y1="0" x2="32" y2="40" gradientUnits="userSpaceOnUse">
<stop offset="0.265266" stop-color="#B20426"/>
<stop offset="1" stop-color="#9A0825"/>
</linearGradient>
<clipPath id="clip0_1589_21603">
<rect width="64" height="40" rx="8" fill="white"/>
</clipPath>
</defs>
</svg>
