<svg width="64" height="40" viewBox="0 0 64 40" fill="none" xmlns="http://www.w3.org/2000/svg">
<g clip-path="url(#clip0_1590_21635)">
<mask id="mask0_1590_21635" style="mask-type:alpha" maskUnits="userSpaceOnUse" x="0" y="0" width="64" height="40">
<path d="M0 0H64V40H0V0Z" fill="#700000"/>
<path d="M0 0H64V40H0V0Z" fill="url(#paint0_linear_1590_21635)"/>
</mask>
<g mask="url(#mask0_1590_21635)">
<path d="M3.81341 18.9355L5.59989 17.1604L7.3871 18.937L8.42601 17.9035L5.59989 15.0935L2.77378 17.9028L3.81341 18.9355Z" fill="#F3BA2F"/>
<path d="M1 19.6655L2.03925 18.6325L3.07851 19.6655L2.03925 20.6986L1 19.6655Z" fill="#F3BA2F"/>
<path d="M3.81341 20.395L5.59989 22.1709L7.3871 20.3943L8.42673 21.4263L8.42601 21.427L5.59989 24.237L2.77378 21.4285L2.77232 21.427L3.81341 20.395Z" fill="#F3BA2F"/>
<path d="M8.11952 19.6658L9.15877 18.6327L10.198 19.6658L9.15877 20.6988L8.11952 19.6658Z" fill="#F3BA2F"/>
<path d="M6.65406 19.6651L5.5999 18.6165L4.82035 19.3914L4.73027 19.4802L4.54573 19.6636L4.54428 19.6651L4.54573 19.6672L5.5999 20.7144L6.65406 19.6658L6.65479 19.6651H6.65406Z" fill="#F3BA2F"/>
<path d="M11.8195 17.3093H14.0804C14.6413 17.3093 15.0656 17.4538 15.3533 17.7426C15.4616 17.8493 15.5471 17.9768 15.6044 18.1174C15.6617 18.2579 15.6897 18.4085 15.6867 18.5602V18.5739C15.6887 18.6981 15.6713 18.8218 15.6351 18.9407C15.603 19.0431 15.5562 19.1404 15.4964 19.2296C15.4406 19.3138 15.3731 19.3896 15.2959 19.4549C15.2204 19.5195 15.1378 19.5752 15.0496 19.621C15.304 19.7091 15.5327 19.8579 15.7158 20.0544C15.8776 20.2373 15.9584 20.4901 15.9584 20.8126V20.8264C15.963 21.0278 15.9189 21.2274 15.8298 21.4084C15.7435 21.5752 15.617 21.7181 15.4615 21.8244C15.2857 21.9416 15.09 22.026 14.8839 22.0736C14.639 22.1313 14.388 22.1592 14.1364 22.1566H11.8195V17.3093ZM13.8537 19.2693C14.0493 19.2787 14.244 19.2369 14.4182 19.148C14.4862 19.1086 14.5417 19.051 14.5784 18.9818C14.6151 18.9126 14.6316 18.8346 14.626 18.7566V18.7429C14.6296 18.671 14.6149 18.5993 14.5833 18.5346C14.5517 18.4698 14.5042 18.414 14.4451 18.3724C14.3245 18.2872 14.1504 18.2446 13.9228 18.2446H12.865V19.2693H13.8537ZM14.1393 21.2228C14.3341 21.2337 14.5281 21.1894 14.6987 21.095C14.7651 21.0526 14.8189 20.9932 14.8544 20.9231C14.8899 20.853 14.9059 20.7747 14.9006 20.6964V20.6827C14.9033 20.6082 14.8875 20.5342 14.8547 20.4673C14.8219 20.4003 14.773 20.3423 14.7125 20.2984C14.5875 20.2022 14.3855 20.154 14.1066 20.154H12.865V21.2228H14.1393Z" fill="#F3BA2F"/>
<path d="M17.3054 17.3093H18.3784V22.1581H17.3054V17.3093Z" fill="#F3BA2F"/>
<path d="M20.0022 17.3093H20.9917L23.2787 20.2934V17.3093H24.338V22.1581H23.4248L21.0629 19.0758V22.1581H20.0022V17.3093Z" fill="#F3BA2F"/>
<path d="M27.5869 17.2747H28.575L30.6651 22.1581H29.5449L29.0988 21.0705H27.0362L26.5901 22.1581H25.496L27.5869 17.2747ZM28.7159 20.1287L28.0664 18.5558L27.4198 20.1287H28.7159Z" fill="#F3BA2F"/>
<path d="M31.8254 17.3093H32.8149L35.1005 20.2934V17.3093H36.1597V22.1581H35.2465L32.8846 19.0758V22.1581H31.8254V17.3093Z" fill="#F3BA2F"/>
<path d="M40.0218 22.2433C39.6798 22.2462 39.3408 22.1804 39.0251 22.0498C38.7278 21.9278 38.4581 21.7479 38.2319 21.5206C38.0057 21.2934 37.8275 21.0235 37.7079 20.7267C37.5817 20.4164 37.5177 20.0844 37.5197 19.7496V19.7359C37.5141 19.076 37.7696 18.4403 38.231 17.9658C38.458 17.7341 38.7299 17.5503 39.0301 17.4256C39.3568 17.2911 39.7075 17.2241 40.0611 17.2285C40.2702 17.2269 40.4789 17.2455 40.6844 17.2841C40.8602 17.3171 41.0321 17.3682 41.1973 17.4365C41.3472 17.4992 41.4898 17.5782 41.6223 17.6719C41.7517 17.7633 41.8732 17.8653 41.9856 17.9767L41.3034 18.7595C41.1291 18.5996 40.9335 18.4643 40.7222 18.3573C40.5146 18.2586 40.2868 18.2091 40.0567 18.2128C39.8652 18.2108 39.6755 18.2493 39.5001 18.3257C39.3248 18.4022 39.1678 18.5148 39.0396 18.6562C38.9125 18.7973 38.8129 18.9606 38.7461 19.1379C38.6761 19.3253 38.6409 19.5238 38.6422 19.7236V19.7373C38.6415 19.9369 38.6767 20.135 38.7461 20.3223C38.8121 20.5003 38.9106 20.6645 39.0367 20.8069C39.1639 20.9501 39.3205 21.0644 39.496 21.1421C39.6714 21.2199 39.8617 21.2592 40.0538 21.2575C40.2984 21.2652 40.5412 21.2129 40.7607 21.1052C40.9696 20.992 41.1628 20.8521 41.3354 20.6892L42.0183 21.3753C41.8977 21.5054 41.7673 21.6261 41.6281 21.7364C41.4914 21.8438 41.343 21.9356 41.1857 22.0101C41.018 22.0885 40.8414 22.1465 40.6597 22.1827C40.4497 22.2245 40.236 22.2448 40.0218 22.2433Z" fill="#F3BA2F"/>
<path d="M43.2846 17.3093H46.9556V18.2583H44.3402V19.2419H46.6432V20.1908H44.3438V21.2091H46.9919V22.1581H43.2868L43.2846 17.3093Z" fill="#F3BA2F"/>
<path d="M50.9919 17H48.9919V22H50.0413V20.2105H50.9919C52.1154 20.2105 52.7821 19.6184 52.7821 18.6053C52.7821 17.6053 52.1154 17 50.9919 17ZM50.8685 19.3158H50.0413V17.9474H50.8685C51.4117 17.9474 51.708 18.1711 51.708 18.6316C51.708 19.0789 51.4117 19.3158 50.8685 19.3158Z" fill="#555555"/>
<path d="M56.5105 22H57.6463L55.8191 17H54.5105L52.6833 22H53.7944L54.1277 21.0132H56.1771L56.5105 22ZM54.4611 20.0395L55.1524 17.9868L55.8438 20.0395H54.4611Z" fill="#555555"/>
<path d="M61.9919 17H60.8068L59.6339 19.0263L58.4611 17H57.2512L59.0907 20.0395V22H60.1524V20.0526L61.9919 17Z" fill="#555555"/>
</g>
</g>
<defs>
<linearGradient id="paint0_linear_1590_21635" x1="32" y1="0" x2="32" y2="40" gradientUnits="userSpaceOnUse">
<stop offset="0.265266" stop-color="#B20426"/>
<stop offset="1" stop-color="#9A0825"/>
</linearGradient>
<clipPath id="clip0_1590_21635">
<rect width="64" height="40" rx="8" fill="white"/>
</clipPath>
</defs>
</svg>
