<svg width="64" height="40" viewBox="0 0 64 40" fill="none" xmlns="http://www.w3.org/2000/svg">
<g clip-path="url(#clip0_1589_21134)">
<mask id="mask0_1589_21134" style="mask-type:alpha" maskUnits="userSpaceOnUse" x="0" y="0" width="64" height="40">
<path d="M0 0H64V40H0V0Z" fill="#700000"/>
<path d="M0 0H64V40H0V0Z" fill="url(#paint0_linear_1589_21134)"/>
</mask>
<g mask="url(#mask0_1589_21134)">
<rect width="64" height="40" fill="#D2E4FF"/>
<path d="M17.9718 21.1878C17.3072 23.967 14.6074 25.6583 11.9415 24.9653C9.27662 24.2724 7.65436 21.4574 8.31925 18.6785C8.98351 15.899 11.6833 14.2075 14.3485 14.9004C17.0143 15.5932 18.6364 18.4085 17.9718 21.1878Z" fill="#F7931A"/>
<path d="M15.3394 19.1938C15.4385 18.5035 14.9344 18.1324 14.2451 17.8848L14.4686 16.9498L13.9227 16.8079L13.705 17.7183C13.5615 17.6811 13.4141 17.6459 13.2676 17.611L13.4869 16.6946L12.9412 16.5527L12.7175 17.4875C12.5987 17.4593 12.4821 17.4314 12.3689 17.4021L12.3695 17.3991L11.6166 17.2031L11.4714 17.8111C11.4714 17.8111 11.8764 17.9079 11.8679 17.9139C12.089 17.9714 12.1289 18.124 12.1223 18.2449L11.8676 19.3102C11.8828 19.3142 11.9026 19.32 11.9243 19.3291C11.9061 19.3244 11.8867 19.3192 11.8666 19.3142L11.5096 20.8065C11.4826 20.8765 11.414 20.9816 11.2594 20.9417C11.2649 20.95 10.8626 20.8384 10.8626 20.8384L10.5916 21.49L11.302 21.6746C11.4342 21.7091 11.5637 21.7453 11.6912 21.7793L11.4653 22.7251L12.0106 22.867L12.2344 21.9312C12.3833 21.9734 12.5279 22.0123 12.6694 22.0489L12.4465 22.9803L12.9924 23.1221L13.2183 22.1781C14.1493 22.3618 14.8493 22.2877 15.144 21.4099C15.3814 20.7031 15.1321 20.2953 14.6423 20.0295C14.999 19.9437 15.2677 19.6991 15.3394 19.1938ZM14.092 21.0174C13.9233 21.7242 12.7819 21.3421 12.4118 21.2463L12.7116 19.9933C13.0817 20.0896 14.2684 20.2803 14.092 21.0174ZM14.2609 19.1835C14.107 19.8265 13.1569 19.4998 12.8487 19.4197L13.1205 18.2833C13.4287 18.3634 14.4212 18.5129 14.2609 19.1835Z" fill="white"/>
<path d="M22.7517 17.8838C23.1552 17.8838 23.5038 17.9592 23.7967 18.1072C24.0911 18.2567 24.334 18.4581 24.5288 18.7113C24.721 18.9658 24.864 19.2633 24.9564 19.6042C25.0481 19.9461 25.0942 20.3136 25.0942 20.7071C25.0942 21.3115 24.988 21.8824 24.7735 22.4206C24.5591 22.9597 24.2682 23.4272 23.8981 23.826C23.5283 24.2243 23.0917 24.5384 22.5882 24.7703C22.0855 25.0025 21.539 25.1186 20.9521 25.1186C20.8763 25.1186 20.7428 25.1163 20.5544 25.1122C20.3659 25.1082 20.1493 25.0879 19.9068 25.0537C19.6626 25.0182 19.4045 24.9657 19.1319 24.8953C18.8595 24.8263 18.6008 24.7295 18.3571 24.6066L20.5359 15.0619L22.4873 14.7466L21.7072 18.1337C21.8742 18.0552 22.0425 17.9944 22.2104 17.9501C22.3785 17.9065 22.5589 17.8838 22.7517 17.8838ZM21.1148 23.5045C21.4087 23.5045 21.6856 23.4292 21.9457 23.2812C22.2067 23.133 22.4318 22.9329 22.6204 22.6838C22.809 22.4335 22.9583 22.1515 23.0672 21.8365C23.176 21.5216 23.231 21.1929 23.231 20.851C23.231 20.431 23.1637 20.1034 23.0295 19.8665C22.8953 19.6306 22.647 19.512 22.2864 19.512C22.1683 19.512 22.016 19.5355 21.8273 19.5775C21.6379 19.622 21.4684 19.7146 21.3165 19.8539L20.4858 23.4509C20.5359 23.4601 20.5802 23.4689 20.618 23.4772C20.655 23.4861 20.6959 23.4924 20.7366 23.4968C20.7797 23.5018 20.829 23.5044 20.8885 23.5044C20.9481 23.5044 21.0226 23.5045 21.1148 23.5045Z" fill="#1F1F1F"/>
<path d="M27.118 24.9361H25.2541L26.8281 18.0304H28.7048L27.118 24.9361ZM28.025 17.1891C27.7648 17.1891 27.5289 17.1083 27.3196 16.9465C27.1086 16.7857 27.0042 16.5382 27.0042 16.2045C27.0042 16.021 27.0399 15.8488 27.1108 15.6864C27.1828 15.5243 27.2769 15.3847 27.3948 15.266C27.5125 15.1483 27.6488 15.0543 27.8037 14.9835C27.9595 14.9138 28.1253 14.8789 28.3019 14.8789C28.5619 14.8789 28.7965 14.9596 29.0066 15.1214C29.2159 15.284 29.3212 15.5316 29.3212 15.8634C29.3212 16.0476 29.2855 16.2204 29.214 16.3825C29.143 16.5446 29.0489 16.6842 28.931 16.8029C28.8142 16.9207 28.6766 17.0145 28.5221 17.0846C28.3661 17.1555 28.201 17.1891 28.025 17.1891Z" fill="#1F1F1F"/>
<path d="M30.3382 16.3097L32.2905 15.9944L31.8111 18.0299H33.9018L33.5243 19.6313H31.4461L30.8926 22.0468C30.8416 22.2482 30.8126 22.4362 30.8046 22.611C30.7954 22.7865 30.8167 22.9373 30.8671 23.0642C30.9171 23.1915 31.0072 23.2896 31.1378 23.359C31.2678 23.4295 31.4539 23.465 31.698 23.465C31.8991 23.465 32.095 23.4451 32.2844 23.4055C32.4727 23.3666 32.6635 23.3124 32.8566 23.2416L32.9956 24.7389C32.7437 24.8352 32.471 24.918 32.1771 24.9877C31.8827 25.0584 31.5343 25.0925 31.1316 25.0925C30.5525 25.0925 30.1036 25.0028 29.7838 24.8243C29.4644 24.6445 29.2386 24.3989 29.1035 24.088C28.9702 23.7782 28.9107 23.4211 28.9273 23.0187C28.9446 22.6153 29.0029 22.1914 29.1035 21.7449L30.3382 16.3097Z" fill="#1F1F1F"/>
<path d="M33.8196 22.1785C33.8196 21.5837 33.9119 21.0228 34.0965 20.4977C34.2808 19.9721 34.5462 19.5125 34.8906 19.1181C35.2338 18.7256 35.6519 18.4146 36.144 18.1864C36.6338 17.9594 37.1822 17.845 37.7866 17.845C38.165 17.845 38.5029 17.8823 38.8002 17.957C39.0987 18.0324 39.3688 18.1298 39.6131 18.252L38.9703 19.7759C38.8023 19.7049 38.628 19.6423 38.4478 19.5856C38.2674 19.5277 38.0473 19.4998 37.7868 19.4998C37.1647 19.4998 36.6729 19.7234 36.3068 20.1691C35.9422 20.615 35.7586 21.2154 35.7586 21.9684C35.7586 22.4147 35.8509 22.7756 36.0363 23.0516C36.2207 23.3277 36.5614 23.465 37.056 23.465C37.3001 23.465 37.5357 23.4384 37.7613 23.3866C37.9886 23.334 38.1894 23.2679 38.3662 23.1898L38.5053 24.7519C38.2696 24.8472 38.0096 24.9333 37.7245 25.0087C37.4387 25.0815 37.0984 25.1193 36.7039 25.1193C36.1832 25.1193 35.7424 25.0398 35.3818 24.8834C35.0211 24.7245 34.723 24.5136 34.4882 24.2464C34.2521 23.9786 34.0827 23.6659 33.9778 23.307C33.873 22.9484 33.8196 22.5716 33.8196 22.1785Z" fill="#1F1F1F"/>
<path d="M42.0997 25.1193C41.6549 25.1193 41.2685 25.0486 40.9407 24.9087C40.6138 24.7688 40.3431 24.5724 40.129 24.3179C39.9146 24.0647 39.7541 23.7646 39.6442 23.4188C39.5343 23.0732 39.4814 22.6904 39.4814 22.271C39.4814 21.745 39.5624 21.2191 39.7261 20.6946C39.8891 20.1691 40.1309 19.6968 40.4509 19.2771C40.7684 18.8567 41.1601 18.513 41.6213 18.2451C42.082 17.9789 42.6119 17.845 43.2071 17.845C43.6439 17.845 44.0283 17.9158 44.3606 18.0557C44.6913 18.1953 44.9638 18.3932 45.1791 18.6465C45.3921 18.901 45.554 19.1998 45.6628 19.5461C45.7725 19.891 45.8266 20.2748 45.8266 20.6945C45.8266 21.2189 45.7467 21.7448 45.5881 22.2709C45.4293 22.7944 45.1937 23.2677 44.8827 23.6884C44.5724 24.1081 44.1843 24.4517 43.7181 24.7185C43.2526 24.9854 42.7127 25.1193 42.0997 25.1193ZM43.0313 19.5C42.755 19.5 42.5107 19.5837 42.3016 19.7489C42.0916 19.916 41.9153 20.1261 41.7732 20.3795C41.6295 20.634 41.523 20.9115 41.451 21.2132C41.3796 21.5156 41.3447 21.8014 41.3447 22.0729C41.3447 22.5111 41.4125 22.8524 41.5457 23.098C41.6808 23.3423 41.9236 23.4652 42.2764 23.4652C42.5536 23.4652 42.7966 23.3822 43.007 23.2152C43.2157 23.0494 43.3922 22.8391 43.5354 22.5852C43.6781 22.332 43.7856 22.0537 43.8576 21.7515C43.928 21.4501 43.9639 21.1627 43.9639 20.8916C43.9639 20.4545 43.8964 20.1125 43.7619 19.8672C43.6276 19.6229 43.3838 19.5 43.0313 19.5Z" fill="#1F1F1F"/>
<path d="M47.8575 24.9361H45.992L47.5661 18.0304H49.4437L47.8575 24.9361ZM48.7631 17.1891C48.5031 17.1891 48.2674 17.1083 48.0584 16.9465C47.8485 16.7857 47.743 16.5382 47.743 16.2045C47.743 16.021 47.7793 15.8488 47.8503 15.6864C47.9214 15.5243 48.0161 15.3847 48.134 15.266C48.251 15.1483 48.3887 15.0543 48.5432 14.9835C48.6981 14.9138 48.8638 14.8789 49.0399 14.8789C49.3005 14.8789 49.5359 14.9596 49.7455 15.1214C49.9552 15.284 50.0611 15.5316 50.0611 15.8634C50.0611 16.0476 50.0235 16.2204 49.9531 16.3825C49.8826 16.5446 49.7879 16.6842 49.6705 16.8029C49.5524 16.9207 49.4165 17.0145 49.2616 17.0846C49.1055 17.1555 48.94 17.1891 48.7631 17.1891Z" fill="#1F1F1F"/>
<path d="M50.7869 18.3443C50.9284 18.3012 51.0863 18.2493 51.2582 18.1929C51.4306 18.1365 51.6233 18.084 51.8385 18.0366C52.0513 17.9878 52.2916 17.9483 52.5558 17.9176C52.8199 17.8863 53.121 17.8711 53.4554 17.8711C54.4384 17.8711 55.1161 18.1696 55.4902 18.7647C55.864 19.3598 55.9287 20.1743 55.6861 21.2066L54.8287 24.9353H52.9526L53.7835 21.2851C53.8342 21.0572 53.874 20.8368 53.9034 20.6215C53.9331 20.4082 53.9314 20.2202 53.8967 20.0574C53.8636 19.8966 53.7855 19.7649 53.6644 19.663C53.5414 19.5626 53.3556 19.5122 53.1035 19.5122C52.8605 19.5122 52.6133 19.5394 52.3609 19.592L51.1392 24.9351H49.2623L50.7869 18.3443Z" fill="#1F1F1F"/>
</g>
</g>
<defs>
<linearGradient id="paint0_linear_1589_21134" x1="32" y1="0" x2="32" y2="40" gradientUnits="userSpaceOnUse">
<stop offset="0.265266" stop-color="#B20426"/>
<stop offset="1" stop-color="#9A0825"/>
</linearGradient>
<clipPath id="clip0_1589_21134">
<rect width="64" height="40" rx="8" fill="white"/>
</clipPath>
</defs>
</svg>
