<svg width="32" height="32" viewBox="0 0 32 32" fill="none" xmlns="http://www.w3.org/2000/svg">
<rect width="32" height="32" rx="8" fill="#D2E4FF" fill-opacity="0.06"/>
<path d="M16.4993 2.60916C15.9462 3.08165 15.6811 3.41585 15.37 4.04969C15.151 4.51065 14.9436 4.99467 14.909 5.14449C14.8283 5.51326 14.7707 5.74375 14.7476 5.81289C14.7361 5.84747 14.7246 5.90509 14.7246 5.93966C14.7361 5.97423 14.6094 6.46977 14.4711 7.03446C14.1138 8.3828 13.9525 8.49804 12.8577 8.14079C12.074 7.87573 11.6476 7.81811 11.6246 7.96792C11.5554 8.6248 11.4056 8.7631 10.9677 8.53261C10.2762 8.17536 9.10077 7.97945 8.16731 8.06012C6.91116 8.17536 6.89964 8.18688 7.47585 9.1434C7.74091 9.59284 8.04054 10.0077 8.15578 10.0653C8.2595 10.123 8.32864 10.1921 8.29407 10.2151C8.2595 10.2382 8.04054 10.3534 7.79853 10.4687C7.24537 10.7568 6.4502 11.4367 6.4502 11.6326C6.4502 11.794 7.09555 12.0475 8.32864 12.3702C8.75504 12.4854 9.12382 12.6007 9.15839 12.6352C9.19296 12.6698 9.07772 12.9925 8.91638 13.3728C8.65132 13.949 8.60523 14.2486 8.57065 15.2743C8.53608 16.4152 8.51303 16.5304 8.24798 16.807C8.08664 16.9683 7.94835 17.1873 7.94835 17.3026C7.94835 17.4178 7.84463 17.6829 7.71786 17.8903C7.55652 18.1553 7.48738 18.4665 7.48738 18.9275C7.48738 19.7111 7.545 19.8148 8.08664 20.0338C8.53608 20.2297 8.66285 20.4487 8.61675 20.9788C8.60523 21.1632 8.6859 21.4743 8.78961 21.6702C8.89333 21.8777 8.95095 22.1543 8.91638 22.3041C8.74352 23.0186 8.77809 23.5026 9.05467 24.0558C9.3543 24.6435 9.65393 24.8279 10.3223 24.8279H10.7142L10.2417 25.7729C9.97661 26.303 9.71155 26.9368 9.65393 27.1903C9.60783 27.4439 9.52717 27.7781 9.48107 27.9394C9.3543 28.3773 9.4004 29.2071 9.55021 29.3569C9.7346 29.5413 10.7372 29.5413 10.8064 29.3454C10.8755 29.1264 11.0599 29.184 11.3134 29.4952C11.4978 29.7257 11.6361 29.7833 12.0625 29.7833C12.3506 29.7833 12.8 29.7257 13.0536 29.645C13.4685 29.5182 13.5261 29.5298 13.7105 29.7602C13.987 30.0944 14.1253 30.0829 14.448 29.7026C14.667 29.4491 14.8283 29.3915 15.4045 29.3454C15.9346 29.3108 16.1766 29.3454 16.3956 29.4952C16.6491 29.6565 16.7644 29.6681 17.0755 29.5643C17.3752 29.4721 17.6057 29.4721 18.0666 29.5989L18.6889 29.7487L18.6198 29.4837C18.5737 29.3223 18.5967 29.2071 18.6774 29.2071C18.7465 29.2071 18.8733 29.1264 18.9655 29.0342C19.2306 28.7807 20.0718 28.8153 20.3715 29.0918C20.6711 29.3684 21.4547 29.403 21.6622 29.1495C21.7659 29.0227 21.7889 28.7346 21.7429 28.2275C21.6622 27.1788 20.9246 25.7383 19.4611 23.7907L18.2971 22.2464L19.219 20.4487C19.7146 19.4691 20.2217 18.4089 20.3369 18.1092C20.4521 17.8096 20.602 17.5791 20.6711 17.6022C21.0744 17.7635 23.0681 18.1669 23.1258 18.0977C23.241 17.9825 22.7916 17.1066 22.1577 16.2193L21.5585 15.378H22.2269C22.6187 15.378 22.9759 15.3089 23.1142 15.2167C23.3332 15.0438 23.3332 15.0323 23.0451 14.5022C22.8722 14.1564 22.4689 13.707 21.9849 13.3152L21.2012 12.6813L22.1577 12.4854C23.4484 12.2204 24.3012 11.8746 24.8544 11.4021C26.1221 10.3189 25.6265 9.32778 23.5983 8.92443L22.6994 8.74005L23.3908 8.08317C23.7711 7.71439 24.0823 7.34562 24.0938 7.25342C24.0938 7.16123 24.1053 6.91922 24.1053 6.73483C24.1053 6.53892 24.0938 6.33148 24.0938 6.26234C24.0823 6.17014 23.7135 6.1471 22.8492 6.19319C21.6046 6.25081 20.6365 6.4352 19.2651 6.87312C18.8618 6.99989 18.5045 7.08056 18.4815 7.04599C18.4469 7.02294 18.4815 6.7694 18.5506 6.49282C18.7465 5.69765 18.7926 5.16754 18.7696 3.91139C18.7696 3.47347 18.4354 2.50544 18.1934 2.26343C17.79 1.82551 17.306 1.92923 16.4993 2.60916ZM17.9514 2.49391C18.032 2.57458 18.0897 2.7244 18.0897 2.83964C18.0897 2.95488 18.1242 3.04708 18.1819 3.04708C18.228 3.04708 18.2856 3.34671 18.2971 3.70396C18.3202 4.06121 18.3778 4.44151 18.4354 4.55675C18.493 4.66047 18.5045 4.77571 18.47 4.82181C18.4239 4.85638 18.3778 5.13296 18.3663 5.44412C18.3432 5.74375 18.3086 6.11252 18.2625 6.27386C18.228 6.4352 18.1703 6.71178 18.1473 6.89617C18.1127 7.06903 17.9975 7.38019 17.9053 7.56458C17.6978 7.96792 17.7324 8.22146 17.9744 7.99097C18.7005 7.31104 21.0744 6.60806 22.757 6.57349C23.7135 6.56197 23.7826 6.57349 23.7826 6.79245C23.7826 7.13818 23.6213 7.54153 23.4945 7.54153C23.3447 7.54153 22.1231 8.77462 22.1231 8.91291C22.1231 8.97053 22.3421 9.0512 22.6187 9.0973C24.4165 9.36236 24.9351 9.53522 25.0964 9.90399C25.2001 10.1345 25.1655 10.2497 24.889 10.6415C24.3243 11.4137 23.1719 11.9553 21.4086 12.2895C20.9707 12.3702 20.625 12.4739 20.625 12.52C20.625 12.5661 20.7402 12.6698 20.8785 12.739C21.3971 13.0155 22.5265 14.1103 22.757 14.5713C22.9759 14.9977 22.8722 15.0669 21.9272 15.1475L21.2012 15.2051L21.7889 16.0695C22.4574 17.0375 22.7685 17.6483 22.6763 17.752C22.5956 17.8327 20.8555 17.3602 20.6596 17.1988C20.5098 17.0836 20.2793 17.1643 20.2793 17.3371C20.2793 17.3947 20.2217 17.5791 20.141 17.7635C20.0718 17.9364 20.0027 18.1669 19.9796 18.2591C19.922 18.5587 19.5417 19.3423 19.1038 20.0684C17.9514 21.9814 17.8592 22.4769 18.5045 23.2145C19.5071 24.3554 20.7863 26.1993 21.109 26.9599C21.5469 28.0086 21.6391 28.4926 21.4663 28.7461C21.3741 28.8844 21.1782 28.9766 20.9823 28.9766C20.7057 28.9766 20.602 28.8844 20.3254 28.3543C20.1525 28.0086 19.8644 27.6513 19.6915 27.5476C19.5187 27.4439 19.1499 27.1558 18.8733 26.9022C18.1934 26.2799 18.0205 26.303 18.3663 26.9829C18.977 28.2045 19.0231 28.3658 18.7926 28.6424C18.6313 28.8383 18.5161 28.8729 18.2856 28.8153C18.0205 28.7576 17.8361 28.4695 17.1677 27.1558C16.3149 25.4963 16.2227 25.5539 16.8911 27.3171C17.3636 28.5848 17.3982 29.1725 17.0294 29.3108C16.6952 29.426 16.3149 29.2647 16.1536 28.9305C15.9577 28.5502 15.3354 27.1327 15.3239 27.0405C15.3123 26.9944 15.2317 26.787 15.1395 26.568C15.0473 26.3606 14.9666 26.0494 14.9551 25.8766C14.932 25.5193 15.151 25.0584 15.3584 25.0584C15.4391 25.0584 15.612 25.0238 15.7502 24.9892C15.9577 24.9316 16.0384 24.9777 16.1075 25.1736C16.1997 25.4271 16.2112 25.4271 16.3495 25.0814C16.4302 24.8855 16.603 24.6896 16.7183 24.655C16.8335 24.6089 16.9372 24.5282 16.9372 24.4591C16.9372 24.3439 17.2714 24.3784 17.6633 24.5398C17.9399 24.655 17.9168 24.4015 17.6172 24.2517C17.4443 24.1479 17.2714 24.1595 16.9027 24.2862C16.6376 24.39 15.9807 24.5974 15.4391 24.7703C14.2175 25.1506 14.1253 25.2197 14.3443 25.5654C14.4941 25.7844 15.4276 28.2045 15.635 28.8729C15.6811 29.0227 15.5659 29.0803 15.0473 29.1379C14.69 29.184 14.4019 29.2647 14.4019 29.3223C14.4019 29.5413 14.0101 29.5413 13.7681 29.3223C13.6183 29.184 13.4685 29.1264 13.4339 29.184C13.3186 29.3799 12.7655 29.4606 12.6618 29.3108C12.5926 29.184 12.5119 29.184 12.293 29.3108C11.6591 29.645 11.4402 29.3223 11.4517 28.0777C11.4632 27.6974 11.4171 27.4784 11.3365 27.4784C11.1982 27.4784 10.8525 28.1238 10.7718 28.5156C10.7487 28.6309 10.6681 28.8383 10.5989 28.9651C10.3223 29.4952 9.60783 29.0573 9.7346 28.4465C9.7807 28.2621 9.8268 28.0086 9.84984 27.8818C9.99966 27.1673 10.1495 26.7409 10.5759 25.9112C11.2097 24.6781 11.2212 24.5513 10.7142 24.5052C9.7346 24.436 9.60783 24.3784 9.41192 23.929C9.18144 23.3989 9.15839 23.1799 9.26211 22.5115C9.31973 22.1427 9.3082 21.8892 9.20449 21.7048C9.12382 21.555 9.04315 21.2669 9.03162 21.0825C8.95095 20.1951 8.73199 19.7572 8.36322 19.7572C8.17883 19.7572 8.04054 19.642 7.89072 19.3769C7.69481 18.9966 7.69481 18.9736 7.94835 18.2475C8.09816 17.8442 8.35169 17.3026 8.53608 17.049C8.82419 16.6341 8.85876 16.4613 8.91638 15.4356C8.974 14.191 9.05467 13.8338 9.43497 13.1077C9.56174 12.8427 9.67698 12.5546 9.67698 12.4624C9.67698 12.3587 9.28516 12.2204 8.53608 12.0475C7.90225 11.9092 7.32604 11.7133 7.24537 11.6211C7.04946 11.3906 7.55652 10.9527 8.32864 10.6876C8.65132 10.5724 8.95095 10.4687 8.974 10.4572C8.99705 10.4456 8.80114 10.2036 8.53608 9.93857C8.04054 9.45455 7.53347 8.61328 7.64872 8.49804C7.78701 8.35975 9.64241 8.44042 10.0803 8.61328C10.3339 8.70547 10.7833 8.87834 11.0829 8.99358C11.6707 9.22406 11.7283 9.20102 11.809 8.80919C11.9012 8.32517 12.051 8.27908 12.7655 8.52109C13.1227 8.63633 13.5606 8.83224 13.7335 8.94748C14.2406 9.29321 14.183 9.3854 14.7015 7.42628C14.7937 7.08056 14.9205 6.63111 14.9781 6.44673C15.0357 6.25081 15.1164 5.89356 15.1625 5.64003C15.3123 4.77571 15.854 3.76158 16.4993 3.1508C16.8335 2.83964 17.1677 2.54001 17.2254 2.47087C17.3867 2.32105 17.79 2.33257 17.9514 2.49391ZM19.5187 27.8933C19.7837 27.997 19.7492 28.1699 19.4726 28.1699C19.3458 28.1699 19.2421 28.0892 19.2421 27.997C19.2421 27.8011 19.2651 27.7896 19.5187 27.8933Z" fill="white"/>
<path d="M17.0291 3.39287C16.303 4.0267 15.8651 4.94864 15.4387 6.79252C14.8856 9.10889 14.6551 9.84644 14.4361 9.84644C14.3324 9.84644 13.9291 9.67358 13.5488 9.45462C12.4309 8.84383 12.3502 8.83231 12.3041 9.3509C12.258 9.93863 12.0737 9.95016 10.7945 9.44309C10.1722 9.18956 9.44613 8.99365 9.04278 8.94755L8.35132 8.88993L8.98516 9.56986C9.34241 9.93863 9.73423 10.3881 9.861 10.5609C10.0108 10.7453 10.2643 10.8951 10.5179 10.9412C10.7484 10.9873 11.0249 11.0911 11.1402 11.1717C11.3131 11.2985 11.3131 11.3676 11.1978 11.6327C11.071 11.9208 11.0134 11.9439 10.6216 11.8747C9.31936 11.6673 9.34241 11.6673 9.84947 11.8401C10.1261 11.9323 10.322 12.0706 10.345 12.1974C10.3681 12.3126 10.1952 12.8312 9.95319 13.3498C9.53832 14.2141 9.50375 14.3755 9.44613 15.5625C9.40003 16.6918 9.35393 16.8762 9.1004 17.2335C8.7201 17.7405 8.24761 18.9045 8.3398 19.1234C8.37437 19.2272 8.54724 19.2963 8.74315 19.2963C9.03125 19.2963 9.1004 19.3655 9.27326 19.7919C9.37698 20.0569 9.51527 20.5064 9.56137 20.7945C9.60747 21.0826 9.72271 21.4744 9.80338 21.6818C9.93014 21.9815 9.93014 22.1543 9.80338 22.6268C9.67661 23.1454 9.67661 23.2376 9.87252 23.5603C10.1145 23.9751 10.4142 24.0789 11.1056 23.9867L11.6127 23.9175L11.6818 24.4937C11.751 24.9547 11.7164 25.1276 11.5435 25.3811C11.3246 25.6807 10.4833 27.3057 10.4833 27.4094C10.4833 27.4439 10.7253 27.2135 11.0249 26.8908C11.3131 26.5796 11.6818 26.2915 11.8316 26.2569C11.9699 26.2109 12.0967 26.1187 12.0967 26.0495C12.0967 25.8651 13.422 25.0008 14.2633 24.632C14.609 24.4822 15.2774 24.2517 15.7614 24.125C16.2569 23.9867 16.7871 23.8023 16.9599 23.7216C17.5822 23.3989 17.7436 23.4911 18.7347 24.6897C19.841 26.0149 20.302 26.6949 20.3365 27.0521C20.3596 27.1904 20.5094 27.5361 20.6707 27.8242C20.9358 28.2737 20.9704 28.2967 20.9012 27.9971C20.7168 27.2019 19.8986 25.8421 18.5503 24.1365C18.1239 23.5949 17.7205 23.0417 17.6399 22.9034C17.3287 22.2926 17.5477 21.532 18.4811 20.0223C18.8499 19.4231 19.2878 18.5357 19.4837 17.9365C19.6681 17.3718 19.8986 16.8071 19.9908 16.6918C20.1406 16.4844 20.1637 16.4844 20.8666 16.7379C21.2585 16.8762 21.6042 16.9684 21.6272 16.9454C21.6618 16.9108 21.3391 16.4037 20.9243 15.8045C20.5094 15.2052 20.1637 14.6751 20.1637 14.6405C20.1637 14.5944 20.6131 14.5944 21.1547 14.6405L22.1458 14.7212L21.9384 14.3985C21.8232 14.2256 21.2354 13.7071 20.6362 13.2576C20.0254 12.8082 19.5298 12.3587 19.5298 12.2781C19.5298 12.1628 19.8756 12.0591 20.6938 11.9208C22.1919 11.6673 23.2867 11.2985 23.8745 10.849C24.3815 10.4572 24.6351 10.1345 24.5198 10.0193C24.4852 9.98473 23.7592 9.82339 22.918 9.66205C22.0652 9.48919 21.3276 9.31633 21.27 9.27023C21.1547 9.15499 22.3533 7.67988 22.8142 7.39178C23.644 6.87319 22.9295 6.86166 20.7399 7.38025C19.7718 7.61074 19.3224 7.79513 18.4926 8.27914C16.8677 9.24718 16.4759 9.42004 16.4759 9.17804C16.4759 9.12041 16.7064 8.64792 17.006 8.10628C17.7781 6.66575 18.0893 4.60291 17.709 3.34677L17.5707 2.90885L17.0291 3.39287ZM20.7168 8.07171C20.7629 8.5903 20.4863 9.18956 20.0369 9.52376C19.4376 9.96168 18.4581 10.3189 17.686 10.3881L16.9945 10.4457L16.8447 10.0539C16.7755 9.83492 16.7064 9.62748 16.7064 9.58138C16.7064 9.50071 19.115 8.04866 19.6335 7.81818C19.8295 7.72598 20.1521 7.66836 20.3365 7.69141C20.6362 7.71446 20.6823 7.76055 20.7168 8.07171ZM13.6986 9.66205C14.367 10.0078 14.5168 10.1345 14.6781 10.5379C14.8856 11.068 14.9201 11.5751 14.7357 11.5751C14.6666 11.5751 14.2287 11.4598 13.7677 11.3331C12.938 11.0911 12.9034 11.068 12.6153 10.4918C12.3502 9.99626 12.3272 9.85796 12.4309 9.58138C12.5922 9.17804 12.7421 9.18956 13.6986 9.66205ZM20.7399 10.1922C20.7399 10.5955 20.7053 10.6531 20.4287 10.7108C20.2443 10.7453 19.9562 10.826 19.7603 10.8951C19.0343 11.1602 18.1354 11.4368 17.7781 11.5175C17.4439 11.5866 17.3863 11.5636 17.2826 11.2754C17.1328 10.8836 17.1213 10.8836 18.7231 10.3535C19.4261 10.123 20.0369 9.89254 20.106 9.83492C20.1637 9.7773 20.325 9.7312 20.4748 9.7312C20.7053 9.7312 20.7399 9.78882 20.7399 10.1922ZM20.6246 11.2754C20.6246 11.6327 20.544 11.6788 19.8179 11.771C19.4261 11.8171 19.2417 11.794 19.2302 11.7018C19.2187 11.6327 19.2072 11.5175 19.1956 11.4368C19.1841 11.287 19.8525 11.0219 20.3135 11.0104C20.567 10.9989 20.6246 11.045 20.6246 11.2754ZM14.1711 14.2833C14.7127 14.7442 14.632 14.7212 15.796 14.6866L16.6603 14.6636L16.8677 15.1245C17.0636 15.5509 17.1097 15.5855 17.4555 15.5279C17.951 15.4472 18.3198 15.6547 18.3198 16.0119C18.3198 16.2654 18.2622 16.3 17.8934 16.3115C17.4439 16.3231 17.467 16.3461 17.9856 16.4614C18.1584 16.4959 18.3313 16.6112 18.3659 16.7149C18.4581 16.9454 18.5272 16.9454 15.2082 16.4383C13.9751 16.2539 12.6038 16.058 12.1543 16.0119C11.7164 15.9658 11.2554 15.8851 11.1402 15.816C10.7599 15.6201 10.2528 14.9862 10.2874 14.7442C10.3104 14.5368 10.4026 14.5138 11.1171 14.5138C11.7971 14.5022 11.993 14.4561 12.3848 14.1911C13.0417 13.7416 13.5603 13.7762 14.1711 14.2833Z" fill="#D0171D"/>
<path d="M19.3576 8.54414C19.0695 8.717 18.8159 8.87834 18.7813 8.91291C18.7468 8.94748 18.4241 9.13187 18.0668 9.32778C17.6981 9.51217 17.3984 9.70808 17.3984 9.75418C17.3984 10.0308 17.9055 9.95009 18.8966 9.53522C19.7033 9.18949 19.8416 9.0973 20.0029 8.78614C20.3371 8.14079 20.1527 8.07164 19.3576 8.54414Z" fill="white"/>
<path d="M13.0186 10.0192C13.0186 10.3073 13.3528 10.6646 13.6985 10.7683C14.4015 10.9642 14.3438 10.6185 13.5948 10.2151C13.0992 9.95006 13.0186 9.92701 13.0186 10.0192Z" fill="white"/>
<path d="M13.1338 14.456C13.1338 14.5137 13.2145 14.5713 13.3067 14.5713C13.3988 14.5713 13.4795 14.5137 13.4795 14.456C13.4795 14.3869 13.3988 14.3408 13.3067 14.3408C13.2145 14.3408 13.1338 14.3869 13.1338 14.456Z" fill="white"/>
<path d="M12.3276 14.9056C12.3276 14.9632 12.5927 15.0669 12.9038 15.1361C13.7797 15.3205 13.8488 15.2744 13.0767 15.0324C12.2585 14.7673 12.3276 14.7788 12.3276 14.9056Z" fill="white"/>
<path d="M11.0596 15.0207C11.0596 15.1935 11.5321 15.4932 11.7971 15.4932C12.0276 15.4932 12.0276 15.4932 11.8086 15.2742C11.5321 15.0091 11.0596 14.8478 11.0596 15.0207Z" fill="white"/>
<path d="M15.8889 15.3319C16.2807 15.5047 16.4421 15.4817 16.3038 15.2742C16.2692 15.2051 16.0618 15.1475 15.8658 15.159L15.4971 15.1705L15.8889 15.3319Z" fill="white"/>
<path d="M9.48115 10.9643C9.58486 10.9873 9.7462 10.9873 9.82687 10.9643C9.89602 10.9297 9.81535 10.9067 9.61944 10.9067C9.43505 10.9067 9.3659 10.9297 9.48115 10.9643Z" fill="white"/>
<path d="M8.40921 11.1947L8.00586 11.3676L8.58207 11.5289C8.90475 11.6096 9.2159 11.6672 9.27352 11.6442C9.34267 11.6096 9.3081 11.5865 9.20438 11.5865C9.10066 11.575 8.95085 11.4944 8.87018 11.4022C8.75493 11.2639 8.77798 11.2178 8.99694 11.1256C9.23895 11.0219 9.25048 11.0103 9.04304 11.0103C8.91627 11.0103 8.62817 11.091 8.40921 11.1947Z" fill="white"/>
<path d="M17.5131 25.1852C17.7321 25.3235 18.1815 25.6461 18.4927 25.9112C18.8154 26.1647 18.9998 26.2915 18.9076 26.1763C18.6886 25.8881 17.3979 24.9432 17.2481 24.9432C17.1674 24.9432 17.2942 25.0584 17.5131 25.1852Z" fill="white"/>
<path d="M16.9485 25.3579C16.9485 25.4847 16.9831 25.5192 17.0177 25.427C17.0523 25.3464 17.0407 25.2427 17.0062 25.2081C16.9716 25.162 16.937 25.2311 16.9485 25.3579Z" fill="white"/>
<path d="M12.9043 26.6717C12.9043 26.9253 12.9273 27.1327 12.9504 27.1327C12.9734 27.1327 13.0195 26.9253 13.0426 26.6717C13.0656 26.4182 13.0426 26.2108 12.9965 26.2108C12.9389 26.2108 12.9043 26.4182 12.9043 26.6717Z" fill="white"/>
<path d="M12.0166 27.2479C12.0166 27.7896 12.0397 28.0085 12.0627 27.732C12.0857 27.4669 12.0857 27.029 12.0627 26.7524C12.0397 26.4873 12.0166 26.7063 12.0166 27.2479Z" fill="white"/>
<path d="M19.127 26.3606C19.127 26.3952 19.3344 26.5911 19.5879 26.787C19.8415 26.983 20.0489 27.1212 20.0489 27.0982C20.0489 27.0636 19.8415 26.8677 19.5879 26.6718C19.3344 26.4759 19.127 26.3376 19.127 26.3606Z" fill="white"/>
</svg>
