<svg width="32" height="32" viewBox="0 0 32 32" fill="none" xmlns="http://www.w3.org/2000/svg">
<rect width="32" height="32" rx="8" fill="#D2E4FF" fill-opacity="0.06"/>
<mask id="mask0_920_19109" style="mask-type:alpha" maskUnits="userSpaceOnUse" x="2" y="2" width="28" height="28">
<rect x="2" y="2" width="28" height="28" fill="#C4C4C4"/>
</mask>
<g mask="url(#mask0_920_19109)">
<path d="M5.29903 5C5.29903 5 9.29899 3 16.299 3C23.2991 3 27.299 5 27.299 5C28.799 17 26.2991 25.5 16.299 29C5.29908 25.5 4.29903 15.5 5.29903 5Z" fill="url(#paint0_radial_920_19109)"/>
<mask id="mask1_920_19109" style="mask-type:alpha" maskUnits="userSpaceOnUse" x="5" y="11" width="22" height="17">
<path d="M6.00023 14C6.00023 14 8.50022 11.5 16.0002 11.5C23.5002 11.5 26.0002 14 26.0002 14C26.0002 14 26.5002 23.5 16.0002 28C5.00023 23.5 6.00023 14 6.00023 14Z" fill="url(#paint1_linear_920_19109)"/>
</mask>
<g mask="url(#mask1_920_19109)">
<path d="M6.00023 14C6.00023 14 8.50022 11.5 16.0002 11.5C23.5002 11.5 26.0002 14 26.0002 14C26.0002 14 26.5002 23.5 16.0002 28C5.00023 23.5 6.00023 14 6.00023 14Z" fill="url(#paint2_linear_920_19109)"/>
<path d="M7 22H25V25H7V22Z" fill="#FDEB01"/>
<path d="M10.0006 14L10.6742 16.0729H12.8538L11.0904 17.3541L11.764 19.4271L10.0006 18.1459L8.23727 19.4271L8.91082 17.3541L7.14746 16.0729H9.32709L10.0006 14Z" fill="white"/>
<path d="M6.99977 12L7.4488 13.382H8.90188L7.72631 14.2361L8.17534 15.618L6.99977 14.7639L5.8242 15.618L6.27323 14.2361L5.09766 13.382H6.55074L6.99977 12Z" fill="white"/>
</g>
<path d="M9.04059 6.86726C9.07849 7.1077 9.04815 7.3017 8.94959 7.44929C8.85103 7.59687 8.68931 7.69351 8.46441 7.73922C8.22803 7.78725 8.03093 7.74659 7.8731 7.61723C7.71603 7.48671 7.60823 7.27742 7.54969 6.98937L7.47822 6.63767C7.41988 6.35057 7.44003 6.11628 7.53868 5.93479C7.63713 5.75235 7.80215 5.6376 8.03375 5.59054C8.26151 5.54425 8.44719 5.57279 8.59076 5.67615C8.7353 5.77932 8.83991 5.94839 8.9046 6.18338L8.48113 6.26944C8.44735 6.12284 8.40377 6.02606 8.35038 5.97911C8.29776 5.93101 8.21594 5.91824 8.10493 5.9408C7.992 5.96375 7.92016 6.0197 7.88941 6.10866C7.85846 6.19667 7.85993 6.3314 7.89382 6.51285L7.97404 6.90762C8.01624 7.11529 8.06819 7.25321 8.12987 7.32139C8.19252 7.38938 8.28031 7.4119 8.39323 7.38895C8.50424 7.36639 8.57536 7.32404 8.60658 7.26189C8.6376 7.19879 8.64159 7.09583 8.61855 6.95303L9.04059 6.86726Z" fill="white"/>
<path d="M11.5026 5.09075L11.6994 6.55415C11.727 6.77411 11.6891 6.95065 11.5858 7.08377C11.4824 7.21592 11.3194 7.29696 11.0968 7.32689C10.8703 7.35734 10.6891 7.32159 10.5532 7.21965C10.4183 7.11758 10.3358 6.95476 10.3057 6.73119L10.1104 5.27795L10.5401 5.22017L10.7357 6.67486C10.7518 6.79487 10.7827 6.87792 10.8283 6.92401C10.8739 6.9701 10.9475 6.98632 11.0491 6.97265C11.1508 6.95899 11.2171 6.92446 11.2481 6.86905C11.2789 6.81268 11.287 6.72636 11.2724 6.61009L11.0758 5.14814L11.5026 5.09075Z" fill="white"/>
<path d="M13.6768 6.2845L13.4634 6.29879L13.5155 7.07634L13.0858 7.1051L12.9434 4.97705L13.6288 4.93117C13.8442 4.91676 14.0141 4.96167 14.1385 5.0659C14.2638 5.16909 14.3334 5.32348 14.3471 5.52907C14.366 5.81164 14.2765 6.01632 14.0784 6.14311L14.5095 6.98927L14.5108 7.00973L14.049 7.04064L13.6768 6.2845ZM13.4395 5.9407L13.6836 5.92436C13.7693 5.91863 13.8317 5.88606 13.8708 5.82668C13.9098 5.76632 13.9262 5.6884 13.9198 5.59291C13.9055 5.37952 13.815 5.2784 13.6484 5.28955L13.397 5.30638L13.4395 5.9407Z" fill="white"/>
<path d="M16.7871 6.56348H16.1997L16.0854 7H15.6299L16.2964 4.86719H16.6904L17.3613 7H16.9014L16.7871 6.56348ZM16.2935 6.20459H16.6919L16.4927 5.44434L16.2935 6.20459Z" fill="white"/>
<path d="M19.9456 6.46204C19.9187 6.70394 19.8382 6.88305 19.7041 6.99936C19.5701 7.11566 19.3886 7.16616 19.1596 7.15083C18.9189 7.13472 18.7396 7.04344 18.6215 6.87698C18.5045 6.70962 18.4558 6.47929 18.4754 6.186L18.4994 5.82791C18.519 5.5356 18.6003 5.31495 18.7434 5.16597C18.8865 5.01601 19.076 4.94893 19.3118 4.96471C19.5437 4.98023 19.7152 5.0568 19.8264 5.19441C19.9386 5.33209 19.9948 5.52279 19.9951 5.76652L19.564 5.73767C19.5701 5.58735 19.5536 5.4825 19.5145 5.42312C19.4765 5.36283 19.401 5.3289 19.2879 5.32133C19.173 5.31364 19.0889 5.34863 19.0357 5.42631C18.9826 5.50301 18.9485 5.63334 18.9332 5.81731L18.9063 6.21924C18.8922 6.43068 18.9058 6.57743 18.9473 6.65948C18.9898 6.7416 19.0685 6.78651 19.1835 6.79421C19.2965 6.80177 19.3763 6.77971 19.4228 6.72801C19.4694 6.67534 19.5004 6.5771 19.5159 6.43328L19.9456 6.46204Z" fill="white"/>
<path d="M22.1982 7.03105L21.616 6.95277L21.4446 7.37018L20.9931 7.30947L21.9379 5.2845L22.3284 5.33701L22.7091 7.5402L22.2533 7.47891L22.1982 7.03105ZM21.7568 6.60958L22.1517 6.66268L22.0555 5.88265L21.7568 6.60958Z" fill="white"/>
<path d="M25.4286 7.20165C25.3716 7.48205 25.2609 7.68626 25.0963 7.81426C24.9328 7.94246 24.7333 7.98263 24.4978 7.93479C24.2634 7.88714 24.0947 7.77315 23.9918 7.5928C23.8892 7.4115 23.865 7.18236 23.9193 6.9054L23.9919 6.54796C24.0503 6.26086 24.1623 6.05044 24.328 5.91669C24.4939 5.78199 24.695 5.73866 24.9314 5.7867C25.1639 5.83395 25.331 5.95063 25.4327 6.13672C25.5346 6.32185 25.5575 6.55768 25.5012 6.84421L25.4286 7.20165ZM25.0763 6.76533C25.1146 6.5768 25.1163 6.43116 25.0814 6.3284C25.0465 6.22563 24.9725 6.16278 24.8596 6.13983C24.7476 6.11708 24.6558 6.14475 24.5841 6.22286C24.5127 6.30002 24.4576 6.42884 24.4189 6.60932L24.3434 6.98112C24.3062 7.1639 24.3061 7.30438 24.3429 7.40256C24.38 7.49977 24.4554 7.55995 24.5693 7.58309C24.6794 7.60546 24.7697 7.57998 24.8405 7.50665C24.9114 7.43237 24.9654 7.30632 25.0025 7.12852L25.0763 6.76533Z" fill="white"/>
<path d="M9.68651 9.74256L9.04276 9.93149L9.12155 10.4914L9.88336 10.2678L9.93317 10.6218L8.75812 10.9666L8.46094 8.85461L9.63318 8.51058L9.68318 8.86597L8.92418 9.08872L8.99439 9.58771L9.63814 9.39878L9.68651 9.74256Z" fill="white"/>
<path d="M12.4672 9.85221C12.3941 9.95749 12.3002 10.0445 12.1856 10.1133C12.0718 10.1809 11.9445 10.2284 11.8036 10.2558C11.563 10.3025 11.369 10.2635 11.2217 10.1386C11.0743 10.0128 10.9853 9.80588 10.9546 9.51784L10.919 9.1357C10.8917 8.84302 10.9336 8.60573 11.0445 8.42382C11.1563 8.24075 11.333 8.12576 11.5745 8.07885C11.8017 8.03473 11.9782 8.05838 12.1038 8.14981C12.2304 8.24105 12.3141 8.40645 12.3549 8.646L11.9437 8.72586C11.9196 8.59294 11.8832 8.50645 11.8346 8.46639C11.7859 8.42537 11.7146 8.41398 11.6206 8.43222C11.5065 8.45437 11.4276 8.51277 11.3837 8.60742C11.3398 8.70207 11.3255 8.84195 11.3408 9.02707L11.3766 9.41213C11.3946 9.60562 11.436 9.74112 11.5008 9.81863C11.5665 9.89497 11.6645 9.92048 11.7949 9.89516C11.8783 9.87897 11.9443 9.84883 11.9929 9.80474L12.0278 9.77123L11.9916 9.3818L11.6954 9.43932L11.6652 9.11553L12.3856 8.97563L12.4672 9.85221Z" fill="white"/>
<path d="M14.3905 9.46924L13.8059 9.52576L13.7123 9.9728L13.2589 10.0166L13.8236 7.82198L14.2158 7.78407L14.9823 9.85005L14.5245 9.89431L14.3905 9.46924ZM13.8826 9.15823L14.2792 9.1199L14.0457 8.37963L13.8826 9.15823Z" fill="white"/>
<path d="M16.3037 7.73911L16.7014 9.28436L17.1079 7.74465L17.6704 7.74853L17.6633 9.88133L17.2312 9.87835L17.2331 9.30121L17.2756 8.41232L16.8445 9.87568L16.5515 9.87367L16.1301 8.40443L16.1667 9.29385L16.1648 9.871L15.7342 9.86803L15.7412 7.73523L16.3037 7.73911Z" fill="white"/>
<path d="M18.8685 10.0497L18.4401 10.0053L18.5459 7.87512L18.9743 7.9195L18.8685 10.0497Z" fill="white"/>
<path d="M21.8765 10.586L21.4537 10.5039L20.9651 8.99092L20.8354 10.3838L20.4126 10.3017L20.6104 8.1781L21.0331 8.2602L21.5231 9.77491L21.6529 8.38055L22.0742 8.46236L21.8765 10.586Z" fill="white"/>
<path d="M24.1461 11.0334C24.0539 11.099 23.9465 11.1374 23.8239 11.1488C23.7024 11.1594 23.5728 11.1446 23.435 11.1041C23.1998 11.0351 23.0277 10.9065 22.9185 10.7184C22.8095 10.5293 22.7733 10.2906 22.81 10.0023L22.8634 9.62228C22.9044 9.3312 22.9973 9.12535 23.1421 9.00471C23.2879 8.88339 23.4789 8.85737 23.7151 8.92668C23.9372 8.99185 24.0965 9.09751 24.193 9.24366C24.2904 9.39008 24.3311 9.58678 24.3149 9.83376L23.9129 9.71578C23.9205 9.57807 23.9062 9.47871 23.8699 9.4177C23.8338 9.35574 23.7698 9.31128 23.6779 9.28432C23.5664 9.2516 23.4794 9.26988 23.417 9.33916C23.3546 9.40844 23.3095 9.53467 23.2818 9.71786L23.2279 10.1008C23.2008 10.2932 23.2087 10.4416 23.2516 10.5458C23.2956 10.6493 23.3813 10.7198 23.5087 10.7572C23.5903 10.7811 23.6587 10.7836 23.7141 10.7646L23.7543 10.7492L23.8088 10.3619L23.5192 10.2769L23.5645 9.95492L24.2687 10.1616L24.1461 11.0334Z" fill="white"/>
</g>
<defs>
<radialGradient id="paint0_radial_920_19109" cx="0" cy="0" r="1" gradientUnits="userSpaceOnUse" gradientTransform="translate(16.3501 10) rotate(90) scale(19 11.3501)">
<stop stop-color="#414141"/>
<stop offset="1" stop-color="#24261F"/>
</radialGradient>
<linearGradient id="paint1_linear_920_19109" x1="15.9903" y1="11.5" x2="15.9903" y2="28" gradientUnits="userSpaceOnUse">
<stop stop-color="#2C7BBA"/>
<stop offset="1" stop-color="#123D5D"/>
</linearGradient>
<linearGradient id="paint2_linear_920_19109" x1="15.9903" y1="11.5" x2="15.9903" y2="28" gradientUnits="userSpaceOnUse">
<stop stop-color="#2C7BBA"/>
<stop offset="1" stop-color="#123D5D"/>
</linearGradient>
</defs>
</svg>
