<svg width="32" height="32" viewBox="0 0 32 32" fill="none" xmlns="http://www.w3.org/2000/svg">
<rect width="32" height="32" rx="8" fill="#D2E4FF" fill-opacity="0.06"/>
<path d="M15.5397 5.44139C15.4816 5.87769 15.2198 6.13947 14.8126 6.19765C13.8527 6.34308 13.9109 7.4193 14.8707 7.4193C15.3943 7.4193 15.5979 7.56474 15.5979 8.00104C15.5979 8.29192 15.4234 8.67005 15.1907 8.78639C14.4926 9.2227 14.1145 10.2407 14.4054 10.997C14.9289 12.3641 16.965 12.3932 17.5758 11.0552C17.954 10.2407 17.634 9.25179 16.8778 8.78639C16.6451 8.67005 16.4705 8.29192 16.4705 8.00104C16.4705 7.56474 16.6741 7.4193 17.1977 7.4193C18.1576 7.4193 18.2158 6.34308 17.285 6.19765C16.8487 6.13947 16.5869 5.87769 16.5287 5.44139C16.4705 5.09234 16.2378 4.80147 16.0342 4.80147C15.8306 4.80147 15.5979 5.09234 15.5397 5.44139ZM16.7032 10.2407C16.8487 10.7352 15.947 11.0843 15.5397 10.6771C15.3652 10.5025 15.3361 10.2407 15.4525 10.0371C15.7143 9.62992 16.5287 9.77535 16.7032 10.2407Z" fill="white"/>
<path d="M10.129 13.0912C9.48913 13.3821 9.02374 13.8765 8.73287 14.5746C8.2093 15.8254 8.41291 16.6398 9.78 18.6468C10.3327 19.4031 10.798 20.5375 10.9144 21.3228C11.118 22.9517 11.9324 23.3589 12.3978 22.1082C12.9214 20.712 12.7178 20.0139 11.2344 18.2687C9.75092 16.5235 9.37278 15.2145 10.129 14.4583C10.5944 13.9929 12.0779 14.022 12.9796 14.5455C13.9685 15.1273 14.4339 15.0691 14.4339 14.4292C14.4339 14.0511 13.9976 13.702 13.0087 13.2657C11.3216 12.5385 11.3798 12.5676 10.129 13.0912Z" fill="white"/>
<path d="M19.6699 12.9168C18.4482 13.2949 17.6338 13.9348 17.6338 14.4584C17.6338 15.0692 18.0992 15.0983 19.0881 14.5457C19.9898 14.0221 21.4733 13.993 21.9387 14.4584C22.6949 15.2147 22.3168 16.4363 20.8334 18.1524C19.3499 19.8395 19.1463 20.5667 19.5535 22.1955C19.699 22.6609 19.9317 22.8355 20.368 22.7773C20.8625 22.7191 21.0079 22.4282 21.1824 21.2939C21.2988 20.4212 21.7641 19.3159 22.375 18.3851C23.713 16.4072 23.8584 15.8255 23.3348 14.5457C23.0149 13.8185 22.5786 13.3822 21.8805 13.0913C20.7461 12.5968 20.717 12.5968 19.6699 12.9168Z" fill="white"/>
<path d="M15.3066 15.68C15.3066 17.1635 15.1611 18.8214 14.9866 19.3159C14.4921 20.7412 15.0739 22.5446 16.0338 22.5446C16.9936 22.5446 17.5754 20.7412 17.0809 19.3159C16.9064 18.8214 16.7609 17.1635 16.7609 15.68C16.7609 12.9458 16.7609 12.9458 16.0338 12.9458C15.3066 12.9458 15.3066 12.9458 15.3066 15.68Z" fill="white"/>
<path d="M5.24253 13.9639C4.42809 14.5166 3.84635 15.9709 4.07905 16.8435C4.16631 17.2217 4.83531 18.2397 5.56249 19.0832C6.28966 19.9558 7.04593 21.1193 7.22045 21.7301C7.45314 22.4864 7.71493 22.8354 8.09306 22.8354C8.52937 22.8354 8.61663 22.6028 8.61663 21.5847C8.61663 20.4503 8.47119 20.1885 7.01684 18.7633C5.59157 17.338 5.41705 17.0471 5.47523 16.1454C5.56249 15.2728 5.70792 15.0692 6.55145 14.8074C7.07501 14.6329 7.65675 14.2839 7.80219 14.0221C8.03489 13.5858 7.88945 13.5276 6.95867 13.5276C6.34784 13.5276 5.56249 13.7312 5.24253 13.9639Z" fill="white"/>
<path d="M24.2375 14.1093C24.3248 14.4293 24.6447 14.6911 24.9647 14.6911C26.0409 14.6911 26.6517 15.2437 26.6517 16.2327C26.6517 16.989 26.3318 17.4834 25.0519 18.7633C23.5976 20.1885 23.4521 20.4503 23.4521 21.5847C23.4521 22.6028 23.5394 22.8354 23.9757 22.8354C24.3538 22.8354 24.6156 22.4864 24.8483 21.7011C25.0519 21.0902 25.7209 20.014 26.3609 19.2868C27.8734 17.5416 28.2224 16.6399 27.8152 15.3892C27.3789 14.1384 26.5063 13.5276 25.1683 13.5276C24.2375 13.5276 24.1212 13.6149 24.2375 14.1093Z" fill="white"/>
<path d="M7.45312 24.2898C7.45312 24.8716 7.65673 24.8716 16.0338 24.8716C24.4109 24.8716 24.6145 24.8716 24.6145 24.2898C24.6145 23.7081 24.4109 23.7081 16.0338 23.7081C7.65673 23.7081 7.45312 23.7081 7.45312 24.2898Z" fill="white"/>
<path d="M7.45312 26.6167C7.45312 27.1985 7.65673 27.1985 16.0338 27.1985C24.4109 27.1985 24.6145 27.1985 24.6145 26.6167C24.6145 26.035 24.4109 26.035 16.0338 26.035C7.65673 26.035 7.45312 26.035 7.45312 26.6167Z" fill="white"/>
</svg>
