<svg width="64" height="40" viewBox="0 0 64 40" fill="none" xmlns="http://www.w3.org/2000/svg">
<g clip-path="url(#clip0_1589_21137)">
<mask id="mask0_1589_21137" style="mask-type:alpha" maskUnits="userSpaceOnUse" x="0" y="0" width="64" height="40">
<path d="M0 0H64V40H0V0Z" fill="#700000"/>
<path d="M0 0H64V40H0V0Z" fill="url(#paint0_linear_1589_21137)"/>
</mask>
<g mask="url(#mask0_1589_21137)">
<rect width="64" height="40" fill="#D2E4FF"/>
<path d="M22.6426 21.1705C22.6426 21.2592 22.5686 21.3313 22.4801 21.3313H19.3486C19.4268 22.1067 20.009 22.8139 20.8279 22.8139C21.3876 22.8139 21.8032 22.5995 22.1159 22.152C22.1612 22.0902 22.2291 22.051 22.3155 22.0881C22.3628 22.1087 22.3957 22.152 22.404 22.2015C22.4122 22.2531 22.3978 22.2819 22.3834 22.3108C22.0686 22.8614 21.4411 23.1315 20.8259 23.1315C19.7724 23.1315 19.0214 22.1871 19.0214 21.1767C19.0214 20.1663 19.7724 19.2219 20.8259 19.2219C21.8793 19.2199 22.6406 20.1622 22.6426 21.1705ZM22.3073 21.0179C22.2394 20.2426 21.6468 19.5353 20.8279 19.5353C20.009 19.5353 19.4268 20.2426 19.3486 21.0179H22.3073ZM26.4429 19.2982C26.5334 19.2982 26.5992 19.3766 26.5992 19.4549C26.5992 19.5456 26.5313 19.6116 26.4429 19.6116H25.6034V22.9129C25.6034 22.9913 25.5355 23.0696 25.447 23.0696C25.3565 23.0696 25.2907 22.9913 25.2907 22.9129V19.6116H24.4841C24.3936 19.6116 24.3277 19.5436 24.3277 19.4549C24.3277 19.3766 24.3956 19.2982 24.4841 19.2982H25.2907V18.0899C25.2907 18.0136 25.3421 17.9435 25.4162 17.9311C25.5211 17.9146 25.6034 17.9868 25.6034 18.0857V19.2982H26.4429ZM31.564 20.8942V22.8944C31.564 22.9851 31.4858 23.0511 31.4076 23.0511C31.3171 23.0511 31.2513 22.983 31.2513 22.8944V20.8942C31.2513 20.2199 30.8706 19.5456 30.1196 19.5456C29.1567 19.5456 28.7411 20.389 28.7967 21.253C28.7967 21.2757 28.807 21.3767 28.807 21.387V22.8882C28.807 22.9645 28.7555 23.0346 28.6814 23.0469C28.5765 23.0634 28.4942 22.9913 28.4942 22.8923V16.3227C28.4942 16.2444 28.5621 16.166 28.6506 16.166C28.7411 16.166 28.807 16.2444 28.807 16.3227V20.0405C29.0765 19.558 29.5579 19.2322 30.1176 19.2322C31.0373 19.2322 31.564 20.0405 31.564 20.8942ZM37.179 21.1705C37.179 21.2592 37.1049 21.3313 37.0164 21.3313H33.8828C33.961 22.1067 34.5433 22.8139 35.3622 22.8139C35.9218 22.8139 36.3374 22.5995 36.6502 22.152C36.6955 22.0902 36.7633 22.051 36.8498 22.0881C36.8971 22.1087 36.93 22.152 36.9382 22.2015C36.9465 22.2531 36.9321 22.2819 36.9177 22.3108C36.6029 22.8614 35.9753 23.1315 35.3601 23.1315C34.3067 23.1315 33.5557 22.1871 33.5557 21.1767C33.5557 20.1663 34.3067 19.2219 35.3601 19.2219C36.4156 19.2199 37.1769 20.1622 37.179 21.1705ZM36.8415 21.0179C36.7736 20.2426 36.1811 19.5353 35.3622 19.5353C34.5433 19.5353 33.961 20.2426 33.8828 21.0179H36.8415ZM41.0224 19.4446C41.0224 19.5456 40.9668 19.6013 40.8763 19.6137C39.9566 19.7477 39.543 20.5004 39.543 21.3767V22.8779C39.543 22.9541 39.4916 23.0243 39.4175 23.0366C39.3126 23.0531 39.2303 22.981 39.2303 22.882V19.4611C39.2303 19.3848 39.2817 19.3147 39.3558 19.3023C39.4607 19.2858 39.543 19.358 39.543 19.457V20.1539C39.8002 19.7168 40.3167 19.3003 40.8537 19.3003C40.9319 19.2982 41.0224 19.3559 41.0224 19.4446ZM46.1662 21.1705C46.1662 21.2592 46.0921 21.3313 46.0036 21.3313H42.8721C42.9503 22.1067 43.5326 22.8139 44.3515 22.8139C44.9111 22.8139 45.3267 22.5995 45.6395 22.152C45.6847 22.0902 45.7526 22.051 45.839 22.0881C45.8864 22.1087 45.9193 22.152 45.9275 22.2015C45.9357 22.2531 45.9213 22.2819 45.9069 22.3108C45.5921 22.8614 44.9646 23.1315 44.3494 23.1315C43.296 23.1315 42.545 22.1871 42.545 21.1767C42.545 20.1663 43.296 19.2219 44.3494 19.2219C45.4028 19.2199 46.1641 20.1622 46.1662 21.1705ZM45.8308 21.0179C45.7629 20.2426 45.1703 19.5353 44.3515 19.5353C43.5326 19.5353 42.9503 20.2426 42.8721 21.0179H45.8308ZM51.2215 19.4838V22.9129C51.2215 23.0036 51.1433 23.0696 51.0651 23.0696C50.9746 23.0696 50.9087 23.0016 50.9087 22.9129V22.2613C50.6516 22.7789 50.1907 23.148 49.6084 23.148C48.6784 23.148 48.162 22.3397 48.162 21.486V19.4755C48.162 19.3972 48.2299 19.3188 48.3183 19.3188C48.4089 19.3188 48.4747 19.3972 48.4747 19.4755V21.486C48.4747 22.1603 48.8553 22.8346 49.6063 22.8346C50.6598 22.8346 50.9067 21.8469 50.9067 20.756V19.4755C50.9067 19.3848 50.9972 19.292 51.1083 19.325C51.1762 19.3477 51.2215 19.4137 51.2215 19.4838ZM59.1429 20.8818V22.8923C59.1429 22.983 59.0647 23.049 58.9865 23.049C58.896 23.049 58.8302 22.981 58.8302 22.8923V20.8818C58.8302 20.2076 58.4495 19.5456 57.6985 19.5456C56.7562 19.5456 56.3982 20.556 56.3982 21.3417V22.8923C56.3982 22.983 56.32 23.049 56.2418 23.049C56.1513 23.049 56.0854 22.981 56.0854 22.8923V20.8818C56.0854 20.2076 55.7048 19.5456 54.9538 19.5456C54.0012 19.5456 53.6082 20.2983 53.6432 21.2984C53.6432 21.321 53.6535 21.3664 53.6432 21.3767V22.8882C53.6432 22.9645 53.5917 23.0346 53.5156 23.0469C53.4107 23.0634 53.3284 22.9913 53.3284 22.8923V19.4611C53.3284 19.3848 53.3798 19.3147 53.4539 19.3023C53.5588 19.2858 53.6411 19.358 53.6411 19.457V20.0302C53.9107 19.5477 54.3921 19.2322 54.9518 19.2322C55.5896 19.2322 56.0834 19.6364 56.285 20.2323C56.5422 19.6487 57.0463 19.2322 57.6965 19.2322C58.6162 19.2322 59.1429 20.0282 59.1429 20.8818Z" fill="#3C3C3B"/>
<g opacity="0.6">
<path opacity="0.6" d="M10.3289 17.8528L5.09454 20.2385L10.3289 23.3377L15.5611 20.2385L10.3289 17.8528Z" fill="#010101"/>
</g>
<g opacity="0.45">
<path opacity="0.45" d="M5.09454 20.2384L10.3289 23.3376V11.5347L5.09454 20.2384Z" fill="#010101"/>
</g>
<g opacity="0.8">
<path opacity="0.8" d="M10.3289 11.5347V23.3376L15.5611 20.2384L10.3289 11.5347Z" fill="#010101"/>
</g>
<g opacity="0.45">
<path opacity="0.45" d="M5.09454 21.2324L10.3289 28.6227V24.3316L5.09454 21.2324Z" fill="#010101"/>
</g>
<g opacity="0.8">
<path opacity="0.8" d="M10.3289 24.3316V28.6227L15.5652 21.2324L10.3289 24.3316Z" fill="#010101"/>
</g>
</g>
</g>
<defs>
<linearGradient id="paint0_linear_1589_21137" x1="32" y1="0" x2="32" y2="40" gradientUnits="userSpaceOnUse">
<stop offset="0.265266" stop-color="#B20426"/>
<stop offset="1" stop-color="#9A0825"/>
</linearGradient>
<clipPath id="clip0_1589_21137">
<rect width="64" height="40" rx="8" fill="white"/>
</clipPath>
</defs>
</svg>
