<svg width="32" height="32" viewBox="0 0 32 32" fill="none" xmlns="http://www.w3.org/2000/svg">
<rect width="32" height="32" rx="8" fill="#D2E4FF" fill-opacity="0.06"/>
<path d="M4.16504 7C4.16504 5.34315 5.50818 4 7.16504 4H24.834C26.4909 4 27.834 5.34315 27.834 7V25C27.834 26.6569 26.4909 28 24.834 28H7.16504C5.50818 28 4.16504 26.6569 4.16504 25V7Z" fill="#CC0000"/>
<path d="M9.73559 22.3291H12.3832V25.8884C12.0115 26.0112 11.6268 26.1066 11.2291 26.1745C10.8315 26.2424 10.3854 26.2763 9.89076 26.2763C9.16986 26.2763 8.55886 26.1341 8.05779 25.8496C7.55994 25.5619 7.18171 25.1464 6.92309 24.6033C6.66447 24.057 6.53516 23.3991 6.53516 22.6297C6.53516 21.8894 6.67901 21.2477 6.96673 20.7046C7.25445 20.1583 7.67309 19.7364 8.22266 19.439C8.77223 19.1384 9.43818 18.988 10.2205 18.988C10.6052 18.988 10.977 19.0268 11.3358 19.1044C11.6979 19.1788 12.0292 19.2822 12.3299 19.4148L11.9226 20.3749C11.6833 20.2617 11.415 20.1664 11.1176 20.0888C10.8202 20.0112 10.5115 19.9724 10.1914 19.9724C9.68387 19.9724 9.24583 20.0823 8.87729 20.3022C8.51199 20.522 8.23074 20.8323 8.03354 21.2332C7.83634 21.6308 7.73774 22.1012 7.73774 22.6443C7.73774 23.1712 7.81695 23.6335 7.97535 24.0311C8.13376 24.4288 8.38106 24.7391 8.71727 24.9622C9.05671 25.182 9.49475 25.2919 10.0314 25.2919C10.2997 25.2919 10.5276 25.2774 10.7151 25.2483C10.9026 25.2192 11.0756 25.1869 11.234 25.1513V23.3232H9.73559V22.3291Z" fill="white"/>
<path d="M16.0734 19.0899C16.6844 19.0899 17.1887 19.1642 17.5863 19.3129C17.9872 19.4616 18.2846 19.6879 18.4786 19.9918C18.6758 20.2957 18.7744 20.682 18.7744 21.1508C18.7744 21.4999 18.7097 21.7973 18.5804 22.043C18.4511 22.2887 18.2814 22.4923 18.0713 22.654C17.8611 22.8156 17.6365 22.9449 17.3972 23.0419L19.4096 26.1793H18.0955L16.3838 23.3377H15.2442V26.1793H14.0804V19.0899H16.0734ZM15.9958 20.0597H15.2442V22.3776H16.0492C16.589 22.3776 16.9802 22.2774 17.2227 22.0769C17.4684 21.8765 17.5912 21.5807 17.5912 21.1895C17.5912 20.779 17.4603 20.488 17.1984 20.3167C16.9398 20.1454 16.5389 20.0597 15.9958 20.0597Z" fill="white"/>
<path d="M24.8164 26.1793L24.123 24.2106H21.4123L20.7189 26.1793H19.4921L22.13 19.0608H23.4199L26.0529 26.1793H24.8164ZM23.8223 23.2116L23.1483 21.272C23.1225 21.1879 23.0853 21.0699 23.0368 20.918C22.9883 20.7628 22.9398 20.606 22.8913 20.4476C22.8428 20.286 22.8024 20.1502 22.7701 20.0403C22.7378 20.1728 22.6973 20.3216 22.6489 20.4864C22.6036 20.6481 22.5583 20.8 22.5131 20.9422C22.471 21.0845 22.4387 21.1944 22.4161 21.272L21.7372 23.2116H23.8223Z" fill="white"/>
</svg>
