<svg width="64" height="40" viewBox="0 0 64 40" fill="none" xmlns="http://www.w3.org/2000/svg">
<g clip-path="url(#clip0_1589_21318)">
<mask id="mask0_1589_21318" style="mask-type:alpha" maskUnits="userSpaceOnUse" x="0" y="0" width="64" height="40">
<path d="M0 0H64V40H0V0Z" fill="#700000"/>
<path d="M0 0H64V40H0V0Z" fill="url(#paint0_linear_1589_21318)"/>
</mask>
<g mask="url(#mask0_1589_21318)">
<rect width="64" height="40" fill="#D2E4FF"/>
<path d="M16.1832 19.7883V20.8865C16.1832 20.9213 16.1974 20.9547 16.2226 20.9792C16.2479 21.0038 16.2822 21.0177 16.3179 21.0177H18.1141C18.1368 21.0168 18.1593 21.0218 18.1794 21.0322C18.1994 21.0425 18.2164 21.0578 18.2285 21.0765C18.2406 21.0951 18.2475 21.1166 18.2485 21.1387C18.2494 21.1608 18.2443 21.1827 18.2339 21.2023C17.9849 21.7166 17.5753 22.141 17.0638 22.4151C16.5522 22.6891 15.9647 22.7987 15.3855 22.7281C14.8061 22.6575 14.2645 22.4104 13.838 22.0222C13.4115 21.6339 13.122 21.1242 13.0107 20.5661C12.8995 20.0079 12.9722 19.4297 13.2186 18.9143C13.4649 18.3988 13.8723 17.9723 14.3824 17.6958C14.8926 17.4193 15.4794 17.3069 16.0591 17.3747C16.6388 17.4424 17.1817 17.6869 17.6102 18.0731C17.6278 18.0893 17.6497 18.1006 17.6734 18.1057C17.6971 18.1109 17.7218 18.1097 17.7449 18.1022L18.8825 17.7135C18.9033 17.7067 18.9221 17.695 18.9372 17.6795C18.9523 17.6639 18.9633 17.6451 18.9692 17.6245C18.9751 17.6039 18.9757 17.5822 18.9711 17.5613C18.9664 17.5404 18.9565 17.521 18.9424 17.5046C18.5967 17.09 18.1713 16.745 17.69 16.4891C17.6686 16.4776 17.6508 16.4607 17.6385 16.4401C17.6262 16.4197 17.6198 16.3962 17.6202 16.3724V15.3277C17.6189 15.2925 17.6036 15.2592 17.5775 15.2347C17.5514 15.2102 17.5167 15.1965 17.4805 15.1965H16.3628C16.3266 15.1965 16.2918 15.2102 16.2657 15.2347C16.2397 15.2592 16.2244 15.2925 16.2231 15.3277V15.8914C16.2232 15.9095 16.2194 15.9274 16.212 15.9439C16.2046 15.9605 16.1937 15.9755 16.1802 15.9878C16.1666 16.0001 16.1505 16.0095 16.133 16.0156C16.1155 16.0215 16.0969 16.0239 16.0784 16.0226H15.6193C15.3539 16.0301 15.09 16.0627 14.831 16.1198C14.811 16.1242 14.7902 16.1242 14.7702 16.1196C14.7503 16.115 14.7316 16.1061 14.7157 16.0934C14.6998 16.0808 14.6871 16.0647 14.6786 16.0466C14.67 16.0284 14.6658 16.0086 14.6664 15.9886V15.3277C14.6664 15.293 14.6522 15.2596 14.6269 15.235C14.6017 15.2104 14.5674 15.1965 14.5317 15.1965H13.409C13.3733 15.1965 13.339 15.2104 13.3138 15.235C13.2885 15.2596 13.2743 15.293 13.2743 15.3277V16.732C13.2745 16.7528 13.2696 16.7733 13.2601 16.7919C13.2505 16.8105 13.2366 16.8266 13.2194 16.8389C12.7106 17.2166 12.2981 17.7036 12.0142 18.2619C11.7303 18.8203 11.5827 19.4349 11.5827 20.058C11.5827 20.681 11.7303 21.2957 12.0142 21.854C12.2981 22.4124 12.7106 22.8994 13.2194 23.2771C13.236 23.2899 13.2496 23.3061 13.2591 23.3246C13.2685 23.343 13.2737 23.3633 13.2743 23.384V24.6571C13.2743 24.6919 13.2885 24.7253 13.3138 24.7498C13.339 24.7744 13.3733 24.7882 13.409 24.7882H14.5317C14.5674 24.7882 14.6017 24.7744 14.6269 24.7498C14.6522 24.7253 14.6664 24.6919 14.6664 24.6571V24.142C14.6666 24.1218 14.6715 24.1019 14.6806 24.0838C14.6897 24.0656 14.703 24.0497 14.7192 24.0371C14.7354 24.0246 14.7543 24.0157 14.7745 24.0111C14.7947 24.0066 14.8157 24.0065 14.836 24.0108C15.1291 24.0751 15.4286 24.1077 15.7292 24.108H16.0784C16.0969 24.1066 16.1155 24.109 16.133 24.1151C16.1505 24.121 16.1666 24.1305 16.1802 24.1428C16.1937 24.1551 16.2046 24.17 16.212 24.1866C16.2194 24.2032 16.2232 24.2211 16.2231 24.2392V24.6716C16.2244 24.7069 16.2397 24.7403 16.2657 24.7647C16.2918 24.7892 16.3266 24.8028 16.3628 24.8028H17.4805C17.5167 24.8028 17.5514 24.7892 17.5775 24.7647C17.6036 24.7403 17.6189 24.7069 17.6202 24.6716V23.7435C17.6193 23.7197 17.6254 23.696 17.6377 23.6754C17.6501 23.6548 17.6682 23.638 17.69 23.627C18.2027 23.3565 18.6518 22.9846 19.0083 22.5353C19.3649 22.086 19.6211 21.569 19.7606 21.0177V19.7883C19.7606 19.7711 19.7572 19.754 19.7504 19.7381C19.7436 19.7222 19.7337 19.7078 19.7212 19.6956C19.7087 19.6834 19.6939 19.6737 19.6775 19.6671C19.6612 19.6605 19.6436 19.6571 19.6259 19.6571H16.3378C16.3186 19.6543 16.2989 19.6556 16.2801 19.6609C16.2614 19.6663 16.2441 19.6755 16.2294 19.6879C16.2147 19.7004 16.2029 19.7158 16.195 19.7332C16.187 19.7505 16.183 19.7693 16.1832 19.7883Z" fill="#3A465E"/>
<path d="M28.0983 19.7447V13.0926C28.0996 13.0087 28.0837 12.9254 28.0512 12.8475C28.0189 12.7697 27.9708 12.6991 27.9098 12.6396C27.8489 12.5803 27.7763 12.5334 27.6964 12.5019C27.6165 12.4704 27.5309 12.4548 27.4447 12.4561H12.0121L10.4653 13.428H24.2813C25.5736 13.496 26.9956 14.7787 27.0904 16.0324V20.9885L28.0983 19.7447ZM3.25049 20.2306V26.8923C3.25049 26.975 3.2673 27.0569 3.29996 27.1333C3.33261 27.2096 3.38047 27.2789 3.44077 27.3372C3.50107 27.3955 3.57261 27.4415 3.65128 27.4728C3.72995 27.504 3.81418 27.5197 3.89912 27.519H19.3317L20.8735 26.5473H7.06749C5.7702 26.4841 4.34818 25.2013 4.25338 23.9428V18.9964L3.25049 20.2306Z" fill="#4F9A9D"/>
<path d="M30.1548 16.8741C30.1548 16.209 30.3923 15.6503 30.8673 15.1979C31.3424 14.7409 31.9599 14.5125 32.72 14.5125C33.246 14.5125 33.7859 14.5799 34.342 14.8837C34.4698 14.9535 34.4859 15.1259 34.3822 15.2281L34.0845 15.5217C34.0026 15.6025 33.8735 15.6084 33.7678 15.5629C33.5309 15.4608 33.1825 15.4151 32.72 15.4151C32.2449 15.4151 31.8626 15.553 31.5731 15.829C31.2881 16.1004 31.1456 16.4488 31.1456 16.8741C31.1456 17.2994 31.279 17.65 31.5459 17.926C31.8174 18.1974 32.1589 18.3332 32.5707 18.3332C32.919 18.3332 33.2154 18.2427 33.4597 18.0617C33.666 17.9088 33.8127 17.7091 33.8996 17.4626C33.9245 17.3922 33.8693 17.322 33.7947 17.322H32.7668C32.6397 17.322 32.5368 17.219 32.5368 17.0919V16.7445C32.5368 16.6174 32.6397 16.5144 32.7668 16.5144H34.7057C34.8201 16.5144 34.9169 16.5988 34.9218 16.7132C34.9243 16.7715 34.9255 16.8365 34.9255 16.908C34.9255 17.5731 34.7083 18.1273 34.274 18.5707C33.8443 19.014 33.2764 19.2358 32.5707 19.2358C31.8785 19.2358 31.3017 19.0072 30.8401 18.5503C30.3832 18.0934 30.1548 17.5346 30.1548 16.8741Z" fill="#3A465E"/>
<path d="M37.144 14.6006C37.271 14.6006 37.3741 14.7036 37.3741 14.8306V18.1705C37.3741 18.2341 37.4255 18.2856 37.4891 18.2856H39.2342C39.3613 18.2856 39.4642 18.3885 39.4642 18.5156V18.9173C39.4642 19.0444 39.3613 19.1474 39.2342 19.1474H36.6472C36.5202 19.1474 36.4172 19.0444 36.4172 18.9173V14.8306C36.4172 14.7036 36.5202 14.6006 36.6472 14.6006H37.144Z" fill="#3A465E"/>
<path d="M41.2763 15.1979C41.7333 14.7409 42.3079 14.5125 43 14.5125C43.6923 14.5125 44.2668 14.7409 44.7238 15.1979C45.1853 15.6548 45.416 16.2135 45.416 16.8741C45.416 17.5346 45.1875 18.0934 44.7306 18.5503C44.2691 19.0072 43.6923 19.2358 43 19.2358C42.3079 19.2358 41.731 19.0072 41.2696 18.5503C40.8126 18.0934 40.5841 17.5346 40.5841 16.8741C40.5841 16.2135 40.8149 15.6548 41.2763 15.1979ZM41.5749 16.8741C41.5749 17.2903 41.7084 17.6364 41.9754 17.9124C42.2468 18.1839 42.5884 18.3196 43 18.3196C43.4073 18.3196 43.7466 18.1839 44.018 17.9124C44.2894 17.6364 44.4252 17.2903 44.4252 16.8741C44.4252 16.4578 44.2894 16.114 44.018 15.8426C43.7466 15.5666 43.4073 15.4286 43 15.4286C42.5884 15.4286 42.2468 15.5666 41.9754 15.8426C41.7084 16.114 41.5749 16.4578 41.5749 16.8741Z" fill="#3A465E"/>
<path d="M46.9664 14.8306C46.9664 14.7036 47.0693 14.6006 47.1964 14.6006H48.7104C49.1809 14.6006 49.5542 14.7114 49.8302 14.9331C50.1107 15.1502 50.2509 15.4421 50.2509 15.8086C50.2509 16.1204 50.1443 16.3773 49.9311 16.5795C49.8668 16.6405 49.8757 16.7529 49.9509 16.7996C50.3364 17.0387 50.5292 17.3802 50.5292 17.8241C50.5292 18.2132 50.3911 18.5321 50.1152 18.7809C49.8392 19.0252 49.4637 19.1474 48.9886 19.1474H47.1964C47.0693 19.1474 46.9664 19.0444 46.9664 18.9173V14.8306ZM47.8893 18.0827C47.8893 18.2097 47.9923 18.3127 48.1193 18.3127H48.9479C49.147 18.3127 49.3009 18.2652 49.4094 18.1702C49.5225 18.0707 49.5791 17.9395 49.5791 17.7766C49.5791 17.6273 49.5225 17.5029 49.4094 17.4033C49.2963 17.2993 49.1425 17.2472 48.9479 17.2472H48.1193C47.9923 17.2472 47.8893 17.3503 47.8893 17.4773V18.0827ZM47.8893 16.2096C47.8893 16.3367 47.9923 16.4396 48.1193 16.4396H48.6697C48.8733 16.4396 49.0294 16.3944 49.1379 16.3039C49.2466 16.2089 49.3009 16.0868 49.3009 15.9375C49.3009 15.7791 49.2466 15.6547 49.1379 15.5643C49.0294 15.4738 48.8733 15.4285 48.6697 15.4285H48.1193C47.9923 15.4285 47.8893 15.5315 47.8893 15.6586V16.2096Z" fill="#3A465E"/>
<path d="M53.6282 14.7343C53.6658 14.6528 53.7473 14.6006 53.8371 14.6006H54.3502C54.4399 14.6006 54.5215 14.6528 54.5591 14.7343L56.4438 18.821C56.5142 18.9735 56.4028 19.1474 56.235 19.1474H55.7112C55.6209 19.1474 55.5389 19.0946 55.5017 19.0124L55.1999 18.3463C55.1812 18.3052 55.1402 18.2788 55.0951 18.2788H53.0718C53.0267 18.2788 52.9857 18.3052 52.967 18.3463L52.6653 19.0124C52.628 19.0946 52.546 19.1474 52.4557 19.1474H51.9523C51.7845 19.1474 51.6731 18.9735 51.7434 18.821L53.6282 14.7343ZM54.6312 17.4712C54.7148 17.4712 54.7704 17.3848 54.7359 17.3087L54.1882 16.1007C54.1474 16.0106 54.0195 16.0106 53.9787 16.1007L53.431 17.3087C53.3965 17.3848 53.4522 17.4712 53.5357 17.4712H54.6312Z" fill="#3A465E"/>
<path d="M58.6798 14.6006C58.8068 14.6006 58.9098 14.7036 58.9098 14.8306V18.1705C58.9098 18.2341 58.9613 18.2856 59.0248 18.2856H60.77C60.897 18.2856 61 18.3885 61 18.5156V18.9173C61 19.0444 60.897 19.1474 60.77 19.1474H58.183C58.0559 19.1474 57.953 19.0444 57.953 18.9173V14.8306C57.953 14.7036 58.0559 14.6006 58.183 14.6006H58.6798Z" fill="#3A465E"/>
<path d="M32.8241 21.272C32.9004 21.272 32.9718 21.3099 33.0146 21.3731L34.5271 23.6082C34.5728 23.6756 34.672 23.6756 34.7177 23.6082L36.2302 21.3731C36.273 21.3099 36.3444 21.272 36.4208 21.272H36.9101C37.0371 21.272 37.1401 21.375 37.1401 21.502V25.5887C37.1401 25.7158 37.0371 25.8188 36.9101 25.8188H36.4404C36.3134 25.8188 36.2104 25.7158 36.2104 25.5887V23.2542C36.2104 23.1435 36.0693 23.0966 36.0032 23.1854L34.7146 24.9134C34.6686 24.975 34.5762 24.975 34.5302 24.9134L33.2416 23.1854C33.1755 23.0966 33.0344 23.1435 33.0344 23.2542V25.5887C33.0344 25.7158 32.9314 25.8188 32.8044 25.8188H32.3347C32.2077 25.8188 32.1047 25.7158 32.1047 25.5887V21.502C32.1047 21.375 32.2077 21.272 32.3347 21.272H32.8241Z" fill="#4F9A9D"/>
<path d="M39.2541 21.8693C39.711 21.4123 40.2856 21.1838 40.9778 21.1838C41.67 21.1838 42.2446 21.4123 42.7015 21.8693C43.163 22.3262 43.3938 22.8849 43.3938 23.5455C43.3938 24.206 43.1652 24.7648 42.7083 25.2217C42.2469 25.6786 41.67 25.9071 40.9778 25.9071C40.2856 25.9071 39.7088 25.6786 39.2473 25.2217C38.7904 24.7648 38.5619 24.206 38.5619 23.5455C38.5619 22.8849 38.7926 22.3262 39.2541 21.8693ZM39.5527 23.5455C39.5527 23.9617 39.6862 24.3078 39.9531 24.5838C40.2245 24.8552 40.5661 24.991 40.9778 24.991C41.385 24.991 41.7243 24.8552 41.9958 24.5838C42.2672 24.3078 42.4029 23.9617 42.4029 23.5455C42.4029 23.1293 42.2672 22.7854 41.9958 22.514C41.7243 22.238 41.385 22.1 40.9778 22.1C40.5661 22.1 40.2245 22.238 39.9531 22.514C39.6862 22.7854 39.5527 23.1293 39.5527 23.5455Z" fill="#4F9A9D"/>
<path d="M44.9229 25.8188C44.8594 25.8188 44.8079 25.7673 44.8079 25.7038V21.387C44.8079 21.3234 44.8594 21.272 44.9229 21.272H45.5957C45.6298 21.272 45.6621 21.2871 45.6839 21.3132L48.0114 24.0964C48.0803 24.1788 48.2147 24.13 48.2147 24.0225V21.387C48.2147 21.3234 48.2662 21.272 48.3297 21.272H49.0429C49.1065 21.272 49.1579 21.3234 49.1579 21.387V25.7038C49.1579 25.7673 49.1065 25.8188 49.0429 25.8188H48.3703C48.3361 25.8188 48.3039 25.8037 48.282 25.7775L45.9545 22.9883C45.8857 22.9057 45.7512 22.9544 45.7512 23.062V25.7038C45.7512 25.7673 45.6998 25.8188 45.6362 25.8188H44.9229Z" fill="#4F9A9D"/>
<path d="M53.6777 21.272C53.7413 21.272 53.7927 21.3234 53.7927 21.387V21.9781C53.7927 22.0416 53.7413 22.0931 53.6777 22.0931H51.7973C51.7337 22.0931 51.6822 22.1446 51.6822 22.2082V22.9349C51.6822 22.9985 51.7337 23.05 51.7973 23.05H53.4741C53.5377 23.05 53.5892 23.1015 53.5892 23.165V23.7765C53.5892 23.84 53.5377 23.8915 53.4741 23.8915H51.7973C51.7337 23.8915 51.6822 23.943 51.6822 24.0065V24.8623C51.6822 24.9258 51.7337 24.9773 51.7973 24.9773H53.6777C53.7413 24.9773 53.7927 25.0288 53.7927 25.0923V25.7038C53.7927 25.7673 53.7413 25.8188 53.6777 25.8188H50.8607C50.7972 25.8188 50.7457 25.7673 50.7457 25.7038V21.387C50.7457 21.3234 50.7972 21.272 50.8607 21.272H53.6777Z" fill="#4F9A9D"/>
<path d="M54.9097 21.4509C54.8587 21.3744 54.9135 21.272 55.0054 21.272H55.8281C55.8666 21.272 55.9025 21.2912 55.9239 21.3233L57.0763 23.055C57.1219 23.1235 57.2226 23.1234 57.268 23.0548L58.414 21.3235C58.4353 21.2914 58.4713 21.272 58.5099 21.272H59.3183C59.4103 21.272 59.4651 21.3747 59.4138 21.4511L57.6601 24.066C57.6474 24.085 57.6406 24.1073 57.6406 24.1301V25.7038C57.6406 25.7673 57.5891 25.8188 57.5256 25.8188H56.7988C56.7352 25.8188 56.6837 25.7673 56.6837 25.7038V24.1435C56.6837 24.1208 56.677 24.0986 56.6644 24.0796L54.9097 21.4509Z" fill="#4F9A9D"/>
</g>
</g>
<defs>
<linearGradient id="paint0_linear_1589_21318" x1="32" y1="0" x2="32" y2="40" gradientUnits="userSpaceOnUse">
<stop offset="0.265266" stop-color="#B20426"/>
<stop offset="1" stop-color="#9A0825"/>
</linearGradient>
<clipPath id="clip0_1589_21318">
<rect width="64" height="40" rx="8" fill="white"/>
</clipPath>
</defs>
</svg>
