<svg width="64" height="40" viewBox="0 0 64 40" fill="none" xmlns="http://www.w3.org/2000/svg">
<g clip-path="url(#clip0_1593_21839)">
<mask id="mask0_1593_21839" style="mask-type:alpha" maskUnits="userSpaceOnUse" x="0" y="0" width="64" height="40">
<path d="M0 0H64V40H0V0Z" fill="#700000"/>
<path d="M0 0H64V40H0V0Z" fill="url(#paint0_linear_1593_21839)"/>
</mask>
<g mask="url(#mask0_1593_21839)">
<path d="M30.6992 20.349V25.9358H28.9268V12.1389H33.6274C34.1885 12.1271 34.7464 12.2267 35.2688 12.4317C35.7912 12.6367 36.2679 12.9431 36.6713 13.3333C37.0787 13.6998 37.403 14.1493 37.6223 14.6515C37.8416 15.1537 37.9509 15.6971 37.9428 16.245C37.9544 16.7959 37.8468 17.3428 37.6274 17.8483C37.4079 18.3537 37.0818 18.8057 36.6713 19.1733C35.8493 19.9571 34.8347 20.3486 33.6274 20.3479H30.6992V20.349ZM30.6992 13.8375V18.6537H33.6715C33.9973 18.6634 34.3216 18.6049 34.6236 18.4821C34.9255 18.3592 35.1985 18.1747 35.4251 17.9403C35.6505 17.7212 35.8297 17.4591 35.952 17.1695C36.0744 16.8799 36.1374 16.5688 36.1374 16.2544C36.1374 15.94 36.0744 15.6289 35.952 15.3393C35.8297 15.0497 35.6505 14.7876 35.4251 14.5684C35.2014 14.3291 34.9293 14.1401 34.627 14.0139C34.3246 13.8877 33.9989 13.8272 33.6715 13.8364H30.6992V13.8375Z" fill="#5F6368"/>
<path d="M42.0269 16.188C43.3369 16.188 44.371 16.5381 45.1291 17.2382C45.8872 17.9383 46.2659 18.8983 46.2652 20.118V25.936H44.5699V24.626H44.4928C43.7589 25.7048 42.7828 26.2443 41.5646 26.2443C40.5246 26.2443 39.6546 25.936 38.9544 25.3195C38.6184 25.0366 38.3498 24.6822 38.1681 24.2823C37.9864 23.8824 37.8963 23.4469 37.9042 23.0078C37.9042 22.0309 38.2734 21.2541 39.0117 20.6773C39.75 20.1004 40.7356 19.8113 41.9686 19.8098C43.021 19.8098 43.8877 20.0024 44.5688 20.3877V19.9826C44.5708 19.6832 44.5061 19.3871 44.3795 19.1158C44.2529 18.8444 44.0675 18.6047 43.8367 18.4139C43.368 17.991 42.7572 17.7603 42.126 17.7677C41.136 17.7677 40.3525 18.1853 39.7757 19.0205L38.2147 18.0374C39.0733 16.8045 40.3441 16.188 42.0269 16.188ZM39.7338 23.0463C39.7327 23.2719 39.7854 23.4944 39.8876 23.6955C39.9899 23.8966 40.1387 24.0703 40.3217 24.2022C40.7137 24.5105 41.2002 24.6739 41.6989 24.6645C42.4468 24.6633 43.1637 24.3656 43.6925 23.8367C44.2796 23.2841 44.5732 22.6357 44.5732 21.8915C44.0206 21.4512 43.25 21.231 42.2614 21.231C41.5414 21.231 40.9411 21.4046 40.4604 21.7517C39.9749 22.104 39.7338 22.5322 39.7338 23.0463Z" fill="#5F6368"/>
<path d="M55.9967 16.4961L50.0785 30.0971H48.2489L50.4451 25.3381L46.5536 16.4961H48.4801L51.2928 23.2773H51.3313L54.0669 16.4961H55.9967Z" fill="#5F6368"/>
<path d="M23.537 19.1448C23.5377 18.6047 23.492 18.0655 23.4005 17.5332H15.9258V20.5859H20.207C20.1194 21.0734 19.9339 21.5382 19.6619 21.9521C19.3898 22.3661 19.0367 22.7207 18.6239 22.9945V24.9761H21.179C22.6751 23.5967 23.537 21.5568 23.537 19.1448Z" fill="#4285F4"/>
<path d="M15.9258 26.8904C18.0647 26.8904 19.8657 26.188 21.179 24.9771L18.6239 22.9955C17.9128 23.4777 16.9969 23.7529 15.9258 23.7529C13.8584 23.7529 12.1036 22.3593 11.4761 20.4812H8.84399V22.5233C9.5037 23.836 10.5153 24.9396 11.7658 25.7107C13.0163 26.4819 14.4566 26.8903 15.9258 26.8904Z" fill="#34A853"/>
<path d="M11.4761 20.4813C11.1444 19.4972 11.1444 18.4315 11.4761 17.4474V15.4053H8.84399C8.28903 16.5096 8 17.7284 8 18.9643C8 20.2002 8.28903 21.419 8.84399 22.5234L11.4761 20.4813Z" fill="#FBBC04"/>
<path d="M15.9258 14.1755C17.0561 14.1571 18.1483 14.5841 18.9663 15.3645L21.2286 13.1022C19.7941 11.7549 17.8937 11.0151 15.9258 11.0381C14.4566 11.0382 13.0163 11.4466 11.7658 12.2177C10.5153 12.9889 9.5037 14.0925 8.84399 15.4052L11.4761 17.4473C12.1036 15.5692 13.8584 14.1755 15.9258 14.1755Z" fill="#EA4335"/>
</g>
</g>
<defs>
<linearGradient id="paint0_linear_1593_21839" x1="32" y1="0" x2="32" y2="40" gradientUnits="userSpaceOnUse">
<stop offset="0.265266" stop-color="#B20426"/>
<stop offset="1" stop-color="#9A0825"/>
</linearGradient>
<clipPath id="clip0_1593_21839">
<rect width="64" height="40" rx="8" fill="white"/>
</clipPath>
</defs>
</svg>
