<svg width="64" height="40" viewBox="0 0 64 40" fill="none" xmlns="http://www.w3.org/2000/svg">
<g clip-path="url(#clip0_1593_21839)">
<mask id="mask0_1593_21839" style="mask-type:alpha" maskUnits="userSpaceOnUse" x="0" y="0" width="64" height="40">
<path d="M0 0H64V40H0V0Z" fill="#700000"/>
<path d="M0 0H64V40H0V0Z" fill="url(#paint0_linear_1593_21839)"/>
</mask>
<g mask="url(#mask0_1593_21839)">
<rect width="64" height="40" fill="#D2E4FF"/>
<path d="M30.6992 21.349V26.9358H28.9268V13.1389H33.6274C34.1885 13.1271 34.7464 13.2267 35.2688 13.4317C35.7912 13.6367 36.2679 13.9431 36.6713 14.3333C37.0787 14.6998 37.403 15.1493 37.6223 15.6515C37.8416 16.1537 37.9509 16.6971 37.9428 17.245C37.9544 17.7959 37.8468 18.3428 37.6274 18.8483C37.4079 19.3537 37.0818 19.8057 36.6713 20.1733C35.8493 20.9571 34.8347 21.3486 33.6274 21.3479H30.6992V21.349ZM30.6992 14.8375V19.6537H33.6715C33.9973 19.6634 34.3216 19.6049 34.6236 19.4821C34.9255 19.3592 35.1985 19.1747 35.4251 18.9403C35.6505 18.7212 35.8297 18.4591 35.952 18.1695C36.0744 17.8799 36.1374 17.5688 36.1374 17.2544C36.1374 16.94 36.0744 16.6289 35.952 16.3393C35.8297 16.0497 35.6505 15.7876 35.4251 15.5684C35.2014 15.3291 34.9293 15.1401 34.627 15.0139C34.3246 14.8877 33.9989 14.8272 33.6715 14.8364H30.6992V14.8375Z" fill="#5F6368"/>
<path d="M42.0269 17.188C43.3369 17.188 44.371 17.5381 45.1291 18.2382C45.8872 18.9383 46.2659 19.8983 46.2652 21.118V26.936H44.5699V25.626H44.4928C43.7589 26.7048 42.7828 27.2443 41.5646 27.2443C40.5246 27.2443 39.6546 26.936 38.9544 26.3195C38.6184 26.0366 38.3498 25.6822 38.1681 25.2823C37.9864 24.8824 37.8963 24.4469 37.9042 24.0078C37.9042 23.0309 38.2734 22.2541 39.0117 21.6773C39.75 21.1004 40.7356 20.8113 41.9686 20.8098C43.021 20.8098 43.8877 21.0024 44.5688 21.3877V20.9826C44.5708 20.6832 44.5061 20.3871 44.3795 20.1158C44.2529 19.8444 44.0675 19.6047 43.8367 19.4139C43.368 18.991 42.7572 18.7603 42.126 18.7677C41.136 18.7677 40.3525 19.1853 39.7757 20.0205L38.2147 19.0374C39.0733 17.8045 40.3441 17.188 42.0269 17.188ZM39.7338 24.0463C39.7327 24.2719 39.7854 24.4944 39.8876 24.6955C39.9899 24.8966 40.1387 25.0703 40.3217 25.2022C40.7137 25.5105 41.2002 25.6739 41.6989 25.6645C42.4468 25.6633 43.1637 25.3656 43.6925 24.8367C44.2796 24.2841 44.5732 23.6357 44.5732 22.8915C44.0206 22.4512 43.25 22.231 42.2614 22.231C41.5414 22.231 40.9411 22.4046 40.4604 22.7517C39.9749 23.104 39.7338 23.5322 39.7338 24.0463Z" fill="#5F6368"/>
<path d="M55.9967 17.4961L50.0785 31.0971H48.2489L50.4451 26.3381L46.5536 17.4961H48.4801L51.2928 24.2773H51.3313L54.0669 17.4961H55.9967Z" fill="#5F6368"/>
<path d="M23.537 20.1448C23.5377 19.6047 23.492 19.0655 23.4005 18.5332H15.9258V21.5859H20.207C20.1194 22.0734 19.9339 22.5382 19.6619 22.9521C19.3898 23.3661 19.0367 23.7207 18.6239 23.9945V25.9761H21.179C22.6751 24.5967 23.537 22.5568 23.537 20.1448Z" fill="#4285F4"/>
<path d="M15.9258 27.8904C18.0647 27.8904 19.8657 27.188 21.179 25.9771L18.6239 23.9955C17.9128 24.4777 16.9969 24.7529 15.9258 24.7529C13.8584 24.7529 12.1036 23.3593 11.4761 21.4812H8.84399V23.5233C9.5037 24.836 10.5153 25.9396 11.7658 26.7107C13.0163 27.4819 14.4566 27.8903 15.9258 27.8904Z" fill="#34A853"/>
<path d="M11.4761 21.4813C11.1444 20.4972 11.1444 19.4315 11.4761 18.4474V16.4053H8.84399C8.28903 17.5096 8 18.7284 8 19.9643C8 21.2002 8.28903 22.419 8.84399 23.5234L11.4761 21.4813Z" fill="#FBBC04"/>
<path d="M15.9258 15.1755C17.0561 15.1571 18.1483 15.5841 18.9663 16.3645L21.2286 14.1022C19.7941 12.7549 17.8937 12.0151 15.9258 12.0381C14.4566 12.0382 13.0163 12.4466 11.7658 13.2177C10.5153 13.9889 9.5037 15.0925 8.84399 16.4052L11.4761 18.4473C12.1036 16.5692 13.8584 15.1755 15.9258 15.1755Z" fill="#EA4335"/>
</g>
</g>
<defs>
<linearGradient id="paint0_linear_1593_21839" x1="32" y1="0" x2="32" y2="40" gradientUnits="userSpaceOnUse">
<stop offset="0.265266" stop-color="#B20426"/>
<stop offset="1" stop-color="#9A0825"/>
</linearGradient>
<clipPath id="clip0_1593_21839">
<rect width="64" height="40" rx="8" fill="white"/>
</clipPath>
</defs>
</svg>
