<svg width="18" height="18" viewBox="0 0 18 18" fill="none" xmlns="http://www.w3.org/2000/svg">
<mask id="mask0_791_8012" style="mask-type:alpha" maskUnits="userSpaceOnUse" x="0" y="0" width="18" height="18">
<rect width="18" height="18" fill="#D9D9D9"/>
</mask>
<g mask="url(#mask0_791_8012)">
<path d="M2.55399 2.5908C2.25465 2.62482 1.89409 2.74727 1.59475 2.91055C1.29882 3.07722 0.85662 3.51602 0.672937 3.82896C0.496058 4.1351 0.363398 4.50587 0.411019 4.5773C0.441633 4.61812 8.87404 9.77825 8.98629 9.82247C9.03051 9.83948 17.5378 4.65213 17.5888 4.5773C17.6126 4.53988 17.599 4.45825 17.5446 4.29497C17.4187 3.92761 17.2146 3.61807 16.8949 3.30172C16.6534 3.06022 16.5479 2.98198 16.2792 2.85272C15.6465 2.54318 16.3404 2.5738 9.15296 2.56699C5.65278 2.56359 2.68324 2.5738 2.55399 2.5908Z" fill="white"/>
<path d="M0.291992 9.63549C0.291992 13.3228 0.291992 13.2785 0.462069 13.7411C0.751199 14.5133 1.46892 15.1392 2.2955 15.3331C2.54041 15.3909 2.91798 15.3943 8.99992 15.3943C15.0819 15.3943 15.4594 15.3909 15.7043 15.3331C16.5513 15.1358 17.2725 14.4963 17.5514 13.6867C17.7079 13.2411 17.7113 13.1969 17.7011 9.60487L17.6908 6.19654L13.643 8.66265C11.415 10.0199 9.52376 11.1662 9.43532 11.2138C9.20402 11.3329 8.92849 11.3533 8.69378 11.2716C8.58834 11.2342 6.70049 10.1049 4.42486 8.71367C2.17984 7.33945 0.332811 6.21354 0.319204 6.20334C0.302197 6.19654 0.291992 7.74083 0.291992 9.63549Z" fill="white"/>
</g>
</svg>
