<svg width="32" height="32" viewBox="0 0 32 32" fill="none" xmlns="http://www.w3.org/2000/svg">
<rect width="32" height="32" rx="8" fill="#D2E4FF" fill-opacity="0.06"/>
<path d="M5.62793 10.5525C5.62793 10.6054 6.10403 11.9279 7.02601 14.4596C7.2225 14.9962 7.41143 15.4949 7.44921 15.5554C7.5399 15.7141 7.53234 12.3285 7.44165 12.0111C7.35097 11.6785 7.15448 11.4745 6.42899 10.9379C5.86976 10.5223 5.62793 10.4089 5.62793 10.5525Z" fill="#B40418"/>
<path d="M23.5762 12.6231C23.1379 12.7667 22.6013 13.069 22.4577 13.2504C22.4275 13.2957 22.4048 13.2579 22.42 13.1748C22.4351 13.0539 22.3746 13.0085 22.1025 12.933C21.4526 12.7667 20.5307 12.8574 20.0017 13.1446C19.6465 13.3335 19.0646 13.9683 19.1175 14.1043C19.1326 14.1572 19.125 14.1799 19.0872 14.1572C18.9814 14.0968 18.8983 14.7542 18.9588 15.2077C19.0192 15.7745 19.1779 16.0919 19.5255 16.4093C19.8656 16.7191 19.911 16.8778 19.6842 16.9383C19.6011 16.9609 19.5331 17.0365 19.5331 17.1045C19.5331 17.1725 19.5029 17.2103 19.4651 17.1877C19.3517 17.1121 19.1704 17.6184 19.193 17.9207C19.2081 18.0945 19.2837 18.2608 19.3744 18.3439C19.5482 18.4951 19.5104 18.5857 19.1779 18.752C18.9059 18.8956 18.6489 19.2281 18.5431 19.5833C18.4373 19.946 18.596 20.4221 18.9436 20.7773C19.2308 21.0645 19.3064 21.1023 19.5255 21.0796C19.586 21.0645 19.6011 21.0947 19.5633 21.1552C19.5255 21.2232 19.5558 21.2383 19.6691 21.2081C19.7598 21.1779 19.8203 21.193 19.7901 21.2308C19.7674 21.2685 19.8354 21.2988 19.9412 21.2988C20.047 21.2988 20.1452 21.329 20.1679 21.3668C20.1981 21.4046 20.4929 21.4575 20.8405 21.4877C22.7449 21.6464 24.3697 20.7924 24.3697 19.6437C24.3697 18.7671 23.8558 18.3288 22.5938 18.1323C22.3444 18.0945 22.0572 18.0341 21.959 18.0038C21.8154 17.9585 21.7927 17.9736 21.838 18.0567C21.8909 18.1399 21.8834 18.1474 21.7927 18.0719C21.7322 18.0265 21.5131 17.9434 21.309 17.8905C20.7574 17.762 20.6894 17.7015 20.6516 17.4068C20.6365 17.2632 20.6365 17.1423 20.6667 17.1423C20.6894 17.1348 21.0445 17.1272 21.4602 17.1196C22.4351 17.097 22.9187 16.8929 23.3797 16.3186C23.8483 15.7216 23.9465 14.8374 23.614 14.1572C23.5157 13.9607 23.4704 13.7794 23.5082 13.7416C23.6064 13.6509 23.9389 13.6207 24.0523 13.6887C24.1959 13.7869 24.279 13.6887 24.3319 13.3637C24.3621 13.1975 24.4075 13.0463 24.4377 13.0237C24.4755 13.0085 24.4982 12.8876 24.5057 12.7591C24.5133 12.54 24.5057 12.5324 24.1581 12.54C23.9616 12.54 23.7047 12.5778 23.5762 12.6231ZM21.3695 13.9456C21.3166 13.9607 21.2259 13.9607 21.1806 13.9456C21.1277 13.923 21.1655 13.9078 21.2713 13.9078C21.3771 13.9078 21.4148 13.923 21.3695 13.9456ZM21.702 14.1572C22.0119 14.2857 22.1706 14.4671 22.1781 14.6862C22.1781 14.7769 22.2008 14.8071 22.2386 14.7467C22.2688 14.7013 22.2915 14.8298 22.2915 15.0263C22.2915 15.2228 22.2688 15.3739 22.2386 15.3513C22.2008 15.3361 22.1781 15.3664 22.1781 15.4344C22.1781 15.4949 22.0723 15.6309 21.9438 15.7367C21.77 15.8878 21.6264 15.9332 21.3695 15.9332C21.0748 15.9332 20.9916 15.8954 20.7725 15.6687C20.4475 15.321 20.3795 14.9583 20.5609 14.5653C20.7045 14.2781 21.0219 14.0514 21.2939 14.0439C21.3695 14.0439 21.5509 14.0968 21.702 14.1572ZM21.5962 18.1021C21.5433 18.1172 21.4526 18.1172 21.4073 18.1021C21.3544 18.0794 21.3922 18.0643 21.498 18.0643C21.6038 18.0643 21.6416 18.0794 21.5962 18.1021ZM20.4551 18.9485C20.4853 19.0392 21.6642 19.2054 21.8229 19.1374C21.8985 19.1072 21.9514 19.1299 21.9514 19.1828C21.9514 19.2508 22.027 19.2659 22.2008 19.2281C22.3293 19.2054 22.4048 19.213 22.3519 19.2432C22.2915 19.281 22.3293 19.3263 22.4653 19.3944C22.7827 19.5304 22.8885 19.7495 22.7449 19.9611C22.6845 20.0594 22.6542 20.1652 22.6845 20.203C22.7222 20.2332 22.7071 20.2408 22.6542 20.2181C22.6089 20.1879 22.4729 20.203 22.3519 20.2483C22.0723 20.3541 20.9765 20.3541 20.644 20.2483C20.1528 20.0821 19.9034 19.6437 20.0697 19.2357C20.1981 18.9258 20.3871 18.7822 20.4551 18.9485Z" fill="white"/>
<path d="M11.7556 12.9178C11.476 12.9858 11.0604 13.1823 10.5994 13.4695C10.4936 13.5299 10.4407 13.5148 10.3576 13.4015C10.2895 13.3183 10.2366 13.1899 10.2366 13.1143C10.2366 13.0009 10.1535 12.9858 9.51871 12.9858H8.80078V15.8198V18.6613L9.65474 18.6386L10.5011 18.6159L10.5163 16.651L10.5238 14.6862L10.8412 14.5048C11.1889 14.3083 11.9597 14.2554 12.1562 14.4141C12.466 14.6711 12.5038 14.9431 12.5038 16.8324V18.6537H13.3351H14.1739L14.1513 16.6208C14.1362 15.5024 14.1588 14.603 14.1891 14.6257C14.2193 14.6484 14.2949 14.6257 14.3478 14.5804C14.4007 14.535 14.6576 14.4443 14.9145 14.3763C15.4209 14.2479 15.7156 14.2932 15.9952 14.5501C16.1237 14.6635 16.1313 14.8373 16.1313 16.6813C16.1313 18.0038 16.1615 18.6537 16.2068 18.5781C16.2522 18.5026 16.2824 18.495 16.2824 18.5555C16.2824 18.631 16.494 18.6537 17.0835 18.6537H17.877L17.8543 16.4017C17.8316 14.3763 17.8165 14.1269 17.688 13.8549C17.5142 13.4997 17.2044 13.137 17.0608 13.137C17.0079 13.137 16.9625 13.1067 16.9625 13.0689C16.9625 13.0312 16.7207 12.9556 16.4335 12.9102C16.0103 12.8422 15.7987 12.8422 15.4133 12.9178C15.1337 12.9707 14.9523 13.0463 14.975 13.0841C14.9977 13.1294 14.9826 13.137 14.9372 13.1067C14.8541 13.0614 14.3855 13.2881 14.1588 13.4846C13.985 13.6433 13.8036 13.6131 13.6676 13.3939C13.592 13.2881 13.4938 13.2201 13.4333 13.2428C13.3729 13.2654 13.3427 13.2579 13.3653 13.2201C13.4333 13.1143 12.8968 12.9027 12.4811 12.8724C12.262 12.8573 11.937 12.88 11.7556 12.9178ZM14.6198 13.3637C14.6198 13.4015 14.6047 13.4392 14.5896 13.4392C14.5669 13.4392 14.5291 13.4015 14.5065 13.3637C14.4838 13.3183 14.4989 13.2881 14.5367 13.2881C14.582 13.2881 14.6198 13.3183 14.6198 13.3637ZM16.2597 15.3436C16.2371 15.3965 16.2219 15.3588 16.2219 15.253C16.2219 15.1472 16.2371 15.1094 16.2597 15.1547C16.2748 15.2076 16.2748 15.2983 16.2597 15.3436Z" fill="white"/>
<path d="M26.5236 12.948C25.919 13.0538 25.5109 13.1898 25.3598 13.3334C25.2691 13.4165 25.2842 13.4996 25.4958 13.9228C25.6923 14.3158 25.7603 14.3989 25.8812 14.3687C25.9644 14.346 26.0173 14.3083 26.0022 14.278C25.987 14.2554 26.1004 14.2251 26.2667 14.21C26.4254 14.2025 26.6445 14.1571 26.7428 14.1193C26.9544 14.0438 27.6572 14.1269 27.9066 14.2629C28.0804 14.3536 28.1937 14.5652 28.2542 14.8977C28.2844 15.0564 28.2618 15.064 27.7781 15.0413C26.8864 14.996 25.4278 15.3965 25.4278 15.6912C25.4278 15.7517 25.4051 15.7895 25.3825 15.7592C25.3069 15.6837 25.1104 15.9255 25.1709 16.0162C25.2011 16.0766 25.1935 16.0842 25.1406 16.054C25.0273 15.986 24.8837 16.2807 24.9442 16.4772C24.9744 16.583 24.9593 16.6132 24.9064 16.583C24.8535 16.5452 24.8232 16.651 24.8232 16.9155C24.8232 17.18 24.8535 17.2858 24.9064 17.248C24.9593 17.2178 24.9744 17.248 24.9442 17.3538C24.8837 17.5503 25.0273 17.845 25.1406 17.777C25.1935 17.7468 25.2011 17.7619 25.1709 17.8148C25.1029 17.9206 25.2616 18.1398 25.3598 18.0793C25.3976 18.0566 25.4051 18.0944 25.3825 18.1549C25.3598 18.2229 25.3749 18.2758 25.4203 18.2758C25.4656 18.2758 25.5714 18.3438 25.6545 18.4269C25.7377 18.5101 25.8888 18.5781 25.987 18.5781C26.0928 18.5781 26.1987 18.6083 26.2213 18.6536C26.3498 18.8577 27.8839 18.6159 27.9746 18.374C27.9973 18.3211 28.0577 18.2758 28.1182 18.2758C28.1786 18.2758 28.224 18.238 28.224 18.2002C28.224 18.0717 28.3751 18.1171 28.428 18.2531C28.5489 18.6007 28.6774 18.6536 29.35 18.6536H29.9999L29.9772 16.5981C29.9621 15.4721 29.9243 14.4896 29.8866 14.4141C29.8412 14.3385 29.811 14.21 29.811 14.1269C29.811 14.0362 29.7505 13.9077 29.6825 13.8322C29.6069 13.7566 29.5087 13.6281 29.4634 13.545C29.1233 12.9555 27.8839 12.6986 26.5236 12.948ZM25.9341 14.0589C25.9115 14.1193 25.8888 14.0967 25.8888 14.0135C25.8812 13.9304 25.9039 13.8851 25.9266 13.9153C25.9493 13.938 25.9568 14.006 25.9341 14.0589ZM27.2944 13.938C27.2718 13.9606 27.2038 13.9682 27.1509 13.9455C27.0904 13.9228 27.1131 13.9002 27.1962 13.9002C27.2793 13.8926 27.3247 13.9153 27.2944 13.938ZM25.7074 14.1344C25.6848 14.1949 25.6621 14.1722 25.6621 14.0891C25.6545 14.006 25.6772 13.9606 25.6999 13.9909C25.7225 14.0135 25.7301 14.0815 25.7074 14.1344ZM27.5363 16.0993C27.8839 16.0615 28.1786 16.0691 28.2013 16.1069C28.2844 16.2429 28.2618 17.1649 28.1711 17.2631C28.1182 17.316 27.8915 17.3765 27.6799 17.3992C27.2642 17.4445 26.569 17.4294 26.7125 17.384C26.7579 17.3689 26.7277 17.2556 26.6294 17.0969C26.4783 16.8475 26.4783 16.8172 26.5841 16.5981C26.6521 16.4621 26.6823 16.326 26.6672 16.2958C26.6445 16.258 26.6521 16.2353 26.6899 16.2429C26.8486 16.2731 26.8712 16.2278 26.7806 16.0993C26.6899 15.986 26.6899 15.9784 26.7957 16.0615C26.8864 16.1371 27.0753 16.1447 27.5363 16.0993ZM27.1886 17.573C27.1357 17.5881 27.0451 17.5881 26.9997 17.573C26.9468 17.5503 26.9846 17.5352 27.0904 17.5352C27.1962 17.5352 27.234 17.5503 27.1886 17.573ZM29.7883 18.0642C29.7656 18.1171 29.7505 18.0793 29.7505 17.9735C29.7505 17.8677 29.7656 17.8299 29.7883 17.8753C29.8034 17.9282 29.8034 18.0188 29.7883 18.0642Z" fill="white"/>
<path d="M2 14.0665C2 14.263 3.05801 15.4797 3.37541 15.6384L3.68525 15.7971L3.38297 15.9331C3.17136 16.0314 2.91442 16.2732 2.53656 16.7342C2.01511 17.3917 1.90931 17.5957 2.09069 17.5957C2.14359 17.5957 3.13358 17.2707 4.29739 16.8702C7.40339 15.8122 7.3656 15.8198 7.3656 15.782C7.3656 15.7593 6.79126 15.5477 6.08088 15.3059C2.65748 14.1421 2.15114 13.9683 2.07557 13.9683C2.03779 13.9683 2 14.0136 2 14.0665Z" fill="#B40418"/>
<path d="M7.4254 16.0089C7.40273 16.0693 7.23647 16.5152 7.06266 16.9913C6.88884 17.4674 6.6848 18.0266 6.60923 18.2382C6.5261 18.4423 6.33717 18.9562 6.19358 19.3718C6.04244 19.7875 5.85351 20.2938 5.77038 20.4978C5.48321 21.2233 5.60412 21.246 6.46564 20.6036C7.2138 20.052 7.33472 19.9159 7.44052 19.5456C7.52365 19.2434 7.51609 15.8124 7.4254 16.0089Z" fill="#B40418"/>
</svg>
