<svg width="30" height="30" viewBox="0 0 30 30" fill="none" xmlns="http://www.w3.org/2000/svg">
<mask id="mask0_96_1059" style="mask-type:alpha" maskUnits="userSpaceOnUse" x="0" y="0" width="30" height="30">
<rect width="30" height="30" fill="#C4C4C4"/>
</mask>
<g mask="url(#mask0_96_1059)">
<path d="M15 15.1437C16.0031 15.1437 16.9837 14.8463 17.8178 14.289C18.6519 13.7317 19.3019 12.9395 19.6858 12.0128C20.0697 11.086 20.1701 10.0662 19.9744 9.08239C19.7787 8.09855 19.2957 7.19483 18.5864 6.48552C17.8771 5.7762 16.9733 5.29316 15.9895 5.09746C15.0057 4.90176 13.9859 5.0022 13.0591 5.38607C12.1323 5.76995 11.3402 6.42003 10.7829 7.25409C10.2256 8.08815 9.92816 9.06875 9.92816 10.0719C9.9295 11.4166 10.4643 12.7059 11.4152 13.6567C12.366 14.6076 13.6553 15.1424 15 15.1437ZM15 6.69062C15.6688 6.69062 16.3225 6.88893 16.8785 7.26046C17.4346 7.632 17.868 8.16008 18.1239 8.77792C18.3798 9.39576 18.4468 10.0756 18.3163 10.7315C18.1858 11.3874 17.8638 11.9899 17.3909 12.4628C16.918 12.9356 16.3156 13.2577 15.6597 13.3881C15.0038 13.5186 14.3239 13.4516 13.7061 13.1957C13.0882 12.9398 12.5602 12.5064 12.1886 11.9504C11.8171 11.3943 11.6188 10.7406 11.6188 10.0719C11.6188 9.1751 11.975 8.31507 12.6091 7.68097C13.2432 7.04686 14.1033 6.69062 15 6.69062Z" fill="white"/>
<path d="M15 16.8344C12.983 16.8366 11.0492 17.6388 9.62295 19.0651C8.1967 20.4913 7.39445 22.4251 7.39221 24.4421C7.39221 24.6663 7.48127 24.8813 7.6398 25.0399C7.79832 25.1984 8.01333 25.2875 8.23752 25.2875C8.46171 25.2875 8.67672 25.1984 8.83525 25.0399C8.99377 24.8813 9.08283 24.6663 9.08283 24.4421C9.08283 22.8728 9.70625 21.3678 10.8159 20.2581C11.9256 19.1484 13.4307 18.525 15 18.525C16.5693 18.525 18.0744 19.1484 19.1841 20.2581C20.2938 21.3678 20.9172 22.8728 20.9172 24.4421C20.9172 24.6663 21.0062 24.8813 21.1648 25.0399C21.3233 25.1984 21.5383 25.2875 21.7625 25.2875C21.9867 25.2875 22.2017 25.1984 22.3602 25.0399C22.5187 24.8813 22.6078 24.6663 22.6078 24.4421C22.6056 22.4251 21.8033 20.4913 20.3771 19.0651C18.9508 17.6388 17.017 16.8366 15 16.8344Z" fill="white"/>
</g>
</svg>
