<svg width="64" height="40" viewBox="0 0 64 40" fill="none" xmlns="http://www.w3.org/2000/svg">
<mask id="mask0_994_14478" style="mask-type:alpha" maskUnits="userSpaceOnUse" x="0" y="0" width="64" height="40">
<path d="M0 0H64V40H0V0Z" fill="#700000"/>
<path d="M0 0H64V40H0V0Z" fill="url(#paint0_linear_994_14478)"/>
</mask>
<g mask="url(#mask0_994_14478)">
<rect width="64" height="40" fill="#D2E4FF"/>
<path d="M37.1524 11.7051H26.9937V28.2974H37.1524V11.7051Z" fill="#FF5F00"/>
<path d="M28.0399 20.0027C28.0386 18.405 28.4008 16.828 29.099 15.3909C29.7972 13.9539 30.8132 12.6945 32.07 11.708C30.5134 10.4847 28.644 9.72399 26.6755 9.51283C24.707 9.30167 22.7188 9.64859 20.9381 10.5139C19.1575 11.3793 17.6562 12.7281 16.6059 14.4063C15.5555 16.0845 14.9985 18.0244 14.9985 20.0042C14.9985 21.984 15.5555 23.9238 16.6059 25.602C17.6562 27.2802 19.1575 28.6291 20.9381 29.4944C22.7188 30.3598 24.707 30.7067 26.6755 30.4955C28.644 30.2844 30.5134 29.5237 32.07 28.3003C30.8128 27.3136 29.7966 26.0537 29.0984 24.6161C28.4001 23.1785 28.0382 21.6009 28.0399 20.0027Z" fill="#EB001B"/>
<path d="M49.1428 20.0027C49.1428 21.9827 48.5856 23.9226 47.5351 25.6009C46.4846 27.2792 44.9831 28.628 43.2022 29.4932C41.4213 30.3584 39.4329 30.7051 37.4643 30.4937C35.4957 30.2822 33.6263 29.5211 32.0698 28.2974C33.3261 27.3101 34.3418 26.0503 35.0402 24.6132C35.7386 23.1761 36.1015 21.5991 36.1015 20.0013C36.1015 18.4034 35.7386 16.8264 35.0402 15.3893C34.3418 13.9522 33.3261 12.6924 32.0698 11.7051C33.6263 10.4814 35.4957 9.72031 37.4643 9.50884C39.4329 9.29738 41.4213 9.64407 43.2022 10.5093C44.9831 11.3745 46.4846 12.7233 47.5351 14.4016C48.5856 16.0799 49.1428 18.0199 49.1428 19.9998V20.0027Z" fill="#F79E1B"/>
<path d="M36.0999 20.0042C36.1012 18.4065 35.739 16.8294 35.0408 15.3924C34.3426 13.9553 33.3266 12.6959 32.0698 11.7095C33.6264 10.4862 35.4958 9.72545 37.4643 9.5143C39.4328 9.30314 41.421 9.65005 43.2017 10.5154C44.9824 11.3807 46.4837 12.7296 47.534 14.4078C48.5843 16.086 49.1413 18.0259 49.1413 20.0056C49.1413 21.9854 48.5843 23.9253 47.534 25.6035C46.4837 27.2817 44.9824 28.6306 43.2017 29.4959C41.421 30.3612 39.4328 30.7082 37.4643 30.497C35.4958 30.2858 33.6264 29.5251 32.0698 28.3018C33.327 27.3151 34.3432 26.0552 35.0414 24.6176C35.7397 23.18 36.1017 21.6024 36.0999 20.0042Z" fill="#F79E1B"/>
</g>
<defs>
<linearGradient id="paint0_linear_994_14478" x1="32" y1="0" x2="32" y2="40" gradientUnits="userSpaceOnUse">
<stop offset="0.265266" stop-color="#B20426"/>
<stop offset="1" stop-color="#9A0825"/>
</linearGradient>
</defs>
</svg>
