<svg width="64" height="40" viewBox="0 0 64 40" fill="none" xmlns="http://www.w3.org/2000/svg">
<g clip-path="url(#clip0_1589_21140)">
<mask id="mask0_1589_21140" style="mask-type:alpha" maskUnits="userSpaceOnUse" x="0" y="0" width="64" height="40">
<path d="M0 0H64V40H0V0Z" fill="#700000"/>
<path d="M0 0H64V40H0V0Z" fill="url(#paint0_linear_1589_21140)"/>
</mask>
<g mask="url(#mask0_1589_21140)">
<rect width="64" height="40" fill="#D2E4FF"/>
<path fill-rule="evenodd" clip-rule="evenodd" d="M14.0037 23.6139V19.8056C14.0037 18.7254 13.4254 18.2125 12.4543 18.2125C11.6468 18.2125 10.9484 18.6926 10.6429 19.1728C10.4465 18.5726 9.95546 18.2125 9.18072 18.2125C8.37325 18.2125 7.67489 18.7145 7.45666 19.0309V18.3435H6.07086V23.6139H7.45666V20.0675C7.66398 19.7729 8.06772 19.4456 8.54784 19.4456C9.11525 19.4456 9.33349 19.7947 9.33349 20.2858V23.6139H10.7302V20.0566C10.9266 19.7729 11.3303 19.4456 11.8214 19.4456C12.3888 19.4456 12.607 19.7947 12.607 20.2858V23.6139H14.0037ZM17.8119 23.7448C16.077 23.7448 15.0294 22.479 15.0294 20.9732C15.0294 19.4783 16.077 18.2125 17.8119 18.2125C19.5578 18.2125 20.6054 19.4783 20.6054 20.9732C20.6054 22.479 19.5578 23.7448 17.8119 23.7448ZM17.8119 22.5118C18.674 22.5118 19.165 21.8025 19.165 20.9732C19.165 20.1548 18.674 19.4456 17.8119 19.4456C16.9499 19.4456 16.4698 20.1548 16.4698 20.9732C16.4698 21.8025 16.9499 22.5118 17.8119 22.5118ZM26.5741 23.6139V19.8929C26.5741 18.8672 26.0176 18.2125 24.861 18.2125C23.9989 18.2125 23.3551 18.6272 23.0169 19.0309V18.3435H21.6311V23.6139H23.0169V20.0675C23.246 19.7511 23.6716 19.4456 24.2172 19.4456C24.8064 19.4456 25.1883 19.6965 25.1883 20.4276V23.6139H26.5741ZM30.3932 23.7448C28.6583 23.7448 27.6107 22.479 27.6107 20.9732C27.6107 19.4783 28.6583 18.2125 30.3932 18.2125C32.1391 18.2125 33.1866 19.4783 33.1866 20.9732C33.1866 22.479 32.1391 23.7448 30.3932 23.7448ZM30.3932 22.5118C31.2553 22.5118 31.7463 21.8025 31.7463 20.9732C31.7463 20.1548 31.2553 19.4456 30.3932 19.4456C29.5312 19.4456 29.0511 20.1548 29.0511 20.9732C29.0511 21.8025 29.5312 22.5118 30.3932 22.5118ZM35.5982 21.9225C35.8273 22.2608 36.3402 22.5118 36.7875 22.5118C37.595 22.5118 38.1297 21.9007 38.1297 20.9841C38.1297 20.0675 37.595 19.4456 36.7875 19.4456C36.3402 19.4456 35.8273 19.7074 35.5982 20.0566V21.9225ZM35.5982 23.6139H34.2124V16.3357H35.5982V19.02C36.0128 18.4853 36.602 18.2125 37.224 18.2125C38.5662 18.2125 39.5591 19.2601 39.5591 20.9841C39.5591 22.7409 38.5552 23.7448 37.224 23.7448C36.5911 23.7448 36.0128 23.4611 35.5982 22.9373V23.6139ZM45.1569 23.6139H43.7711V23.0683C43.411 23.4938 42.789 23.7448 42.1016 23.7448C41.2614 23.7448 40.2684 23.1774 40.2684 21.9989C40.2684 20.7659 41.2614 20.2967 42.1016 20.2967C42.7999 20.2967 43.4219 20.5258 43.7711 20.9405V20.2312C43.7711 19.6965 43.3128 19.3473 42.6144 19.3473C42.047 19.3473 41.5232 19.5547 41.0759 19.9693L40.5521 19.0418C41.1959 18.4744 42.0252 18.2125 42.8545 18.2125C44.0548 18.2125 45.1569 18.6926 45.1569 20.2094V23.6139ZM42.6581 22.8064C43.1055 22.8064 43.5419 22.6536 43.7711 22.3481V21.6934C43.5419 21.3878 43.1055 21.2351 42.6581 21.2351C42.1125 21.2351 41.6651 21.5188 41.6651 22.0316C41.6651 22.5227 42.1125 22.8064 42.6581 22.8064ZM51.4748 23.6139V19.8929C51.4748 18.8672 50.9183 18.2125 49.7616 18.2125C48.8996 18.2125 48.2558 18.6272 47.9176 19.0309V18.3435H46.5318V23.6139H47.9176V20.0675C48.1467 19.7511 48.5723 19.4456 49.1179 19.4456C49.7071 19.4456 50.089 19.6965 50.089 20.4276V23.6139H51.4748ZM58 23.6139L55.8504 20.7331L57.9346 18.3435H56.2323L54.2355 20.6895V16.3357H52.8497V23.6139H54.2355V22.2608L54.8684 21.5843L56.2651 23.6139H58Z" fill="black"/>
</g>
</g>
<defs>
<linearGradient id="paint0_linear_1589_21140" x1="32" y1="0" x2="32" y2="40" gradientUnits="userSpaceOnUse">
<stop offset="0.265266" stop-color="#B20426"/>
<stop offset="1" stop-color="#9A0825"/>
</linearGradient>
<clipPath id="clip0_1589_21140">
<rect width="64" height="40" rx="8" fill="white"/>
</clipPath>
</defs>
</svg>
