<svg width="64" height="40" viewBox="0 0 64 40" fill="none" xmlns="http://www.w3.org/2000/svg">
<g clip-path="url(#clip0_1615_22024)">
<mask id="mask0_1615_22024" style="mask-type:alpha" maskUnits="userSpaceOnUse" x="0" y="0" width="64" height="40">
<path d="M0 0H64V40H0V0Z" fill="#700000"/>
<path d="M0 0H64V40H0V0Z" fill="url(#paint0_linear_1615_22024)"/>
</mask>
<g mask="url(#mask0_1615_22024)">
<rect width="64" height="40" fill="#D2E4FF"/>
<path fill-rule="evenodd" clip-rule="evenodd" d="M19.1614 12.7651C17.9586 13.1722 17.0703 14.3257 17.0642 15.4854V15.7198L17.4281 15.6951C18.2362 15.6396 19.0381 15.0227 19.4822 14.116C19.6981 13.6842 19.7413 13.5361 19.7659 13.1167C19.7968 12.5369 19.8091 12.543 19.1614 12.7651Z" fill="#1E1E1E"/>
<path fill-rule="evenodd" clip-rule="evenodd" d="M26.1748 13.5855C26.1502 13.6102 26.1317 16.4045 26.1317 19.7909V25.947H27.1186H28.1055V23.8559V21.7648L29.7895 21.734C31.2514 21.7093 31.529 21.6908 31.9546 21.5736C32.8922 21.3207 33.6879 20.7717 34.1876 20.0192C35.0203 18.767 35.1067 17.0707 34.4158 15.6458C34.1074 15.0043 33.4289 14.3257 32.7935 14.0235C31.9176 13.604 31.8251 13.5917 28.8766 13.567C27.4147 13.5485 26.1995 13.5608 26.1748 13.5855ZM31.5105 15.3867C31.93 15.5594 32.4419 15.9974 32.6208 16.349C33.0094 17.1077 33.0156 18.1686 32.6331 18.9212C32.4481 19.2975 31.9485 19.7354 31.5105 19.9143C31.1836 20.0438 31.054 20.0562 29.6353 20.0747L28.1055 20.0932V17.6505V15.2016L29.6353 15.2263C31.0479 15.2448 31.1836 15.2572 31.5105 15.3867Z" fill="#1E1E1E"/>
<path fill-rule="evenodd" clip-rule="evenodd" d="M14.6276 15.9602C13.3075 16.1144 12.2034 17.1692 11.8148 18.6496C11.6482 19.2726 11.6359 20.4384 11.784 21.2033C12.0862 22.7763 12.9621 24.5034 13.9491 25.4472C14.6831 26.1504 15.1211 26.2182 16.2005 25.7926C16.731 25.5829 16.842 25.5582 17.3725 25.5521C17.9092 25.5521 18.0079 25.5706 18.5137 25.7741C19.2416 26.064 19.55 26.1072 19.9818 25.9838C20.4444 25.8481 20.8515 25.5089 21.345 24.855C21.7336 24.3369 22.4553 23.0107 22.5293 22.6714C22.5602 22.5295 22.5293 22.4864 22.2579 22.3198C21.308 21.7338 20.8145 20.8764 20.8083 19.7784C20.8022 18.8532 21.2031 18.0204 21.9371 17.4406L22.2579 17.1877L21.9063 16.8238C21.3265 16.2131 20.5431 15.8923 19.624 15.8923C19.1675 15.8923 18.7728 15.991 17.8413 16.3241C17.1998 16.5524 17.1381 16.5524 16.2992 16.2378C15.6145 15.9787 15.1457 15.9047 14.6276 15.9602Z" fill="#1E1E1E"/>
<path fill-rule="evenodd" clip-rule="evenodd" d="M38.2465 17.0026C37.4137 17.2185 36.7105 17.6626 36.3096 18.2239C36.069 18.5632 35.8161 19.2108 35.8161 19.5069V19.655H36.6673H37.5124L37.6851 19.2849C37.8887 18.8469 38.2156 18.594 38.7523 18.4521C39.2087 18.3349 39.5788 18.3349 40.0415 18.4521C40.5411 18.5817 40.8372 18.8037 41.0284 19.18C41.1579 19.4452 41.1826 19.5809 41.1826 20.0559V20.6172L39.7639 20.6974C38.9312 20.7406 38.1108 20.8208 37.7838 20.8887C36.6859 21.1169 35.921 21.6227 35.5817 22.3567C35.4337 22.6713 35.4152 22.7762 35.4152 23.4177C35.4152 24.0592 35.4337 24.1641 35.5817 24.4787C36.0073 25.3916 36.9203 25.9591 38.1108 26.0454C39.2828 26.1318 40.5473 25.5705 41.0593 24.7439C41.1333 24.6267 41.2135 24.528 41.232 24.528C41.2566 24.528 41.269 24.8488 41.2566 25.2374L41.2381 25.9467H42.1326H43.0331V22.6158C43.0331 19.4267 43.027 19.2664 42.9098 18.9086C42.7371 18.409 42.5582 18.1375 42.1449 17.7613C41.4849 17.1506 40.6275 16.8792 39.4308 16.8854C38.9065 16.8854 38.5549 16.9224 38.2465 17.0026ZM41.0839 23.2573C40.9359 23.7014 40.4116 24.2134 39.9181 24.3985C39.1717 24.6822 38.265 24.6267 37.7221 24.2689C37.1547 23.8865 37.0806 23.0106 37.5803 22.5418C37.9874 22.1593 38.3143 22.0853 40.0476 21.9743L41.1518 21.9064L41.1703 22.4246C41.1826 22.7824 41.1579 23.0353 41.0839 23.2573Z" fill="#1E1E1E"/>
<path fill-rule="evenodd" clip-rule="evenodd" d="M43.8351 17.0275C43.8351 17.0522 44.5568 19.0878 45.445 21.5428L47.055 26.0025L46.8884 26.5022C46.5677 27.4706 46.1174 27.8222 45.2106 27.8222H44.6987V28.5501V29.278L44.859 29.315C45.1551 29.389 46.3148 29.2965 46.7281 29.1608C47.53 28.9079 48.1283 28.3219 48.5848 27.3349C48.8006 26.8785 52.2858 17.1694 52.2858 17.0337C52.2858 16.9967 51.9404 16.9843 51.3235 17.0028L50.3551 17.0337L49.2386 20.6545C48.6218 22.6469 48.1098 24.2816 48.0913 24.2816C48.0728 24.2816 47.5546 22.6531 46.944 20.6545L45.8275 17.0337L44.8282 17.0028C44.2854 16.9843 43.8351 16.9967 43.8351 17.0275Z" fill="#1E1E1E"/>
</g>
</g>
<defs>
<linearGradient id="paint0_linear_1615_22024" x1="32" y1="0" x2="32" y2="40" gradientUnits="userSpaceOnUse">
<stop offset="0.265266" stop-color="#B20426"/>
<stop offset="1" stop-color="#9A0825"/>
</linearGradient>
<clipPath id="clip0_1615_22024">
<rect width="64" height="40" rx="8" fill="white"/>
</clipPath>
</defs>
</svg>
