<svg width="64" height="40" viewBox="0 0 64 40" fill="none" xmlns="http://www.w3.org/2000/svg">
<g clip-path="url(#clip0_1589_21138)">
<mask id="mask0_1589_21138" style="mask-type:alpha" maskUnits="userSpaceOnUse" x="0" y="0" width="64" height="40">
<path d="M0 0H64V40H0V0Z" fill="#700000"/>
<path d="M0 0H64V40H0V0Z" fill="url(#paint0_linear_1589_21138)"/>
</mask>
<g mask="url(#mask0_1589_21138)">
<path fill-rule="evenodd" clip-rule="evenodd" d="M19.1614 11.7651C17.9586 12.1722 17.0703 13.3257 17.0642 14.4854V14.7198L17.4281 14.6951C18.2362 14.6396 19.0381 14.0227 19.4822 13.116C19.6981 12.6842 19.7413 12.5361 19.7659 12.1167C19.7968 11.5369 19.8091 11.543 19.1614 11.7651Z" fill="#1E1E1E"/>
<path fill-rule="evenodd" clip-rule="evenodd" d="M26.1748 12.5855C26.1502 12.6102 26.1317 15.4045 26.1317 18.7909V24.947H27.1186H28.1055V22.8559V20.7648L29.7895 20.734C31.2514 20.7093 31.529 20.6908 31.9546 20.5736C32.8922 20.3207 33.6879 19.7717 34.1876 19.0192C35.0203 17.767 35.1067 16.0707 34.4158 14.6458C34.1074 14.0043 33.4289 13.3257 32.7935 13.0235C31.9176 12.604 31.8251 12.5917 28.8766 12.567C27.4147 12.5485 26.1995 12.5608 26.1748 12.5855ZM31.5105 14.3867C31.93 14.5594 32.4419 14.9974 32.6208 15.349C33.0094 16.1077 33.0156 17.1686 32.6331 17.9212C32.4481 18.2975 31.9485 18.7354 31.5105 18.9143C31.1836 19.0438 31.054 19.0562 29.6353 19.0747L28.1055 19.0932V16.6505V14.2016L29.6353 14.2263C31.0479 14.2448 31.1836 14.2572 31.5105 14.3867Z" fill="#1E1E1E"/>
<path fill-rule="evenodd" clip-rule="evenodd" d="M14.6276 14.9602C13.3075 15.1144 12.2034 16.1692 11.8148 17.6496C11.6482 18.2726 11.6359 19.4384 11.784 20.2033C12.0862 21.7763 12.9621 23.5034 13.9491 24.4472C14.6831 25.1504 15.1211 25.2182 16.2005 24.7926C16.731 24.5829 16.842 24.5582 17.3725 24.5521C17.9092 24.5521 18.0079 24.5706 18.5137 24.7741C19.2416 25.064 19.55 25.1072 19.9818 24.9838C20.4444 24.8481 20.8515 24.5089 21.345 23.855C21.7336 23.3369 22.4553 22.0107 22.5293 21.6714C22.5602 21.5295 22.5293 21.4864 22.2579 21.3198C21.308 20.7338 20.8145 19.8764 20.8083 18.7784C20.8022 17.8532 21.2031 17.0204 21.9371 16.4406L22.2579 16.1877L21.9063 15.8238C21.3265 15.2131 20.5431 14.8923 19.624 14.8923C19.1675 14.8923 18.7728 14.991 17.8413 15.3241C17.1998 15.5524 17.1381 15.5524 16.2992 15.2378C15.6145 14.9787 15.1457 14.9047 14.6276 14.9602Z" fill="#1E1E1E"/>
<path fill-rule="evenodd" clip-rule="evenodd" d="M38.2465 16.0026C37.4137 16.2185 36.7105 16.6626 36.3096 17.2239C36.069 17.5632 35.8161 18.2108 35.8161 18.5069V18.655H36.6673H37.5124L37.6851 18.2849C37.8887 17.8469 38.2156 17.594 38.7523 17.4521C39.2087 17.3349 39.5788 17.3349 40.0415 17.4521C40.5411 17.5817 40.8372 17.8037 41.0284 18.18C41.1579 18.4452 41.1826 18.5809 41.1826 19.0559V19.6172L39.7639 19.6974C38.9312 19.7406 38.1108 19.8208 37.7838 19.8887C36.6859 20.1169 35.921 20.6227 35.5817 21.3567C35.4337 21.6713 35.4152 21.7762 35.4152 22.4177C35.4152 23.0592 35.4337 23.1641 35.5817 23.4787C36.0073 24.3916 36.9203 24.9591 38.1108 25.0454C39.2828 25.1318 40.5473 24.5705 41.0593 23.7439C41.1333 23.6267 41.2135 23.528 41.232 23.528C41.2566 23.528 41.269 23.8488 41.2566 24.2374L41.2381 24.9467H42.1326H43.0331V21.6158C43.0331 18.4267 43.027 18.2664 42.9098 17.9086C42.7371 17.409 42.5582 17.1375 42.1449 16.7613C41.4849 16.1506 40.6275 15.8792 39.4308 15.8854C38.9065 15.8854 38.5549 15.9224 38.2465 16.0026ZM41.0839 22.2573C40.9359 22.7014 40.4116 23.2134 39.9181 23.3985C39.1717 23.6822 38.265 23.6267 37.7221 23.2689C37.1547 22.8865 37.0806 22.0106 37.5803 21.5418C37.9874 21.1593 38.3143 21.0853 40.0476 20.9743L41.1518 20.9064L41.1703 21.4246C41.1826 21.7824 41.1579 22.0353 41.0839 22.2573Z" fill="#1E1E1E"/>
<path fill-rule="evenodd" clip-rule="evenodd" d="M43.8351 16.0275C43.8351 16.0522 44.5568 18.0878 45.445 20.5428L47.055 25.0025L46.8884 25.5022C46.5677 26.4706 46.1174 26.8222 45.2106 26.8222H44.6987V27.5501V28.278L44.859 28.315C45.1551 28.389 46.3148 28.2965 46.7281 28.1608C47.53 27.9079 48.1283 27.3219 48.5848 26.3349C48.8006 25.8785 52.2858 16.1694 52.2858 16.0337C52.2858 15.9967 51.9404 15.9843 51.3235 16.0028L50.3551 16.0337L49.2386 19.6545C48.6218 21.6469 48.1098 23.2816 48.0913 23.2816C48.0728 23.2816 47.5546 21.6531 46.944 19.6545L45.8275 16.0337L44.8282 16.0028C44.2854 15.9843 43.8351 15.9967 43.8351 16.0275Z" fill="#1E1E1E"/>
</g>
</g>
<defs>
<linearGradient id="paint0_linear_1589_21138" x1="32" y1="0" x2="32" y2="40" gradientUnits="userSpaceOnUse">
<stop offset="0.265266" stop-color="#B20426"/>
<stop offset="1" stop-color="#9A0825"/>
</linearGradient>
<clipPath id="clip0_1589_21138">
<rect width="64" height="40" rx="8" fill="white"/>
</clipPath>
</defs>
</svg>
