<svg width="18" height="18" viewBox="0 0 18 18" fill="none" xmlns="http://www.w3.org/2000/svg">
<mask id="mask0_791_7992" style="mask-type:alpha" maskUnits="userSpaceOnUse" x="0" y="0" width="18" height="18">
<rect width="18" height="18" fill="#D9D9D9"/>
</mask>
<g mask="url(#mask0_791_7992)">
<path d="M4.08123 0.307415C3.82703 0.403599 3.72742 0.472301 3.17436 0.939476C2.52169 1.48909 2.31215 1.68833 2.07169 1.98032C1.32627 2.89062 0.917492 3.94177 0.838484 5.15093C0.769782 6.21581 0.951843 7.24635 1.42245 8.48986C1.58734 8.92268 2.15413 10.0219 2.48047 10.5441C3.77894 12.6223 5.85719 14.8723 7.63658 16.1364C10.1648 17.9261 12.6656 18.3074 14.7919 17.2254C15.2557 16.9883 15.5889 16.7513 16.1282 16.2704C16.9767 15.5147 17.1209 15.3326 17.1828 14.9513C17.2824 14.3261 16.9011 13.7937 15.5373 12.6326C14.5686 11.8047 13.9366 11.4784 13.332 11.4784C12.748 11.4818 12.3976 11.6914 11.4221 12.6223C11.1541 12.8799 10.8828 13.1101 10.7934 13.1513C10.0274 13.5292 9.01406 13.0689 7.70528 11.7567C6.73658 10.7845 5.8778 9.67497 5.45871 8.85742C5.06367 8.08108 4.98123 7.49024 5.20795 7.00589C5.30757 6.79291 5.46215 6.62803 5.81597 6.36696C6.16291 6.10932 6.81215 5.53566 6.96329 5.3536C7.02856 5.27116 7.13505 5.0994 7.19345 4.9723C7.28276 4.7765 7.3068 4.68375 7.32055 4.42268C7.34116 4.00703 7.25528 3.66352 6.98734 3.11047C6.75719 2.63299 6.132 1.62993 5.78505 1.18337C5.1839 0.407034 4.61024 0.111614 4.08123 0.307415Z" fill="white"/>
</g>
</svg>
