<svg width="64" height="40" viewBox="0 0 64 40" fill="none" xmlns="http://www.w3.org/2000/svg">
<g clip-path="url(#clip0_1589_21135)">
<mask id="mask0_1589_21135" style="mask-type:alpha" maskUnits="userSpaceOnUse" x="0" y="0" width="64" height="40">
<path d="M0 0H64V40H0V0Z" fill="#700000"/>
<path d="M0 0H64V40H0V0Z" fill="url(#paint0_linear_1589_21135)"/>
</mask>
<g mask="url(#mask0_1589_21135)">
<path fill-rule="evenodd" clip-rule="evenodd" d="M32.1405 5.42407C40.2683 5.42407 46.8571 12.0127 46.8571 20.1405C46.8571 28.2683 40.2683 34.8569 32.1405 34.8569C24.0129 34.8569 17.4241 28.2683 17.4241 20.1405C17.4241 12.0127 24.0129 5.42407 32.1405 5.42407Z" fill="#F01010"/>
<path fill-rule="evenodd" clip-rule="evenodd" d="M31.5137 15.3695H30.2669C30.0628 15.3463 29.8135 15.3463 29.5645 15.324C29.4968 15.3463 29.4733 15.4152 29.4506 15.5056C29.4281 15.5966 29.4506 15.6645 29.4968 15.7322L29.7686 15.7552C30.1078 15.8224 30.3571 15.8906 30.5167 15.9593C30.6749 16.0495 30.7878 16.2083 30.8337 16.4124C30.8789 16.6165 30.9014 16.8881 30.8789 17.2285C30.8557 17.7044 30.8337 18.2707 30.811 18.9282C30.7878 19.5864 30.7428 20.2661 30.6971 20.9693C30.6524 22.0562 30.5548 24.7046 30.2593 25.4886C30.1908 25.67 30.0779 25.7836 29.9418 25.8525C29.7827 25.9195 29.6006 25.9877 29.374 26.0112L29.0104 26.0564C28.9426 26.1011 28.9197 26.17 28.9426 26.2834C28.9426 26.3516 28.9651 26.4191 29.0333 26.4875C29.3281 26.465 29.6006 26.4421 29.8958 26.4191H31.6898C32.0298 26.4421 32.3253 26.465 32.5975 26.4875C32.666 26.4421 32.7112 26.3741 32.7112 26.2834C32.7112 26.192 32.6887 26.1243 32.62 26.0564L31.9848 26.0112C31.78 25.9877 31.6211 25.9427 31.508 25.8525C31.451 25.8064 31.4053 25.7432 31.3713 25.6662C31.2374 25.3439 31.2345 24.7986 31.2414 24.4601C31.256 23.7574 31.2646 23.0549 31.2869 22.352C31.3096 21.6493 31.3323 21.0365 31.3546 20.5154C31.3766 20.0396 31.4233 19.5402 31.4453 19.0416C31.468 18.5435 31.4902 18.0442 31.5137 17.5455H31.5587C31.7403 17.9307 31.9219 18.3162 32.0805 18.7469C32.2621 19.1553 32.4432 19.5634 32.6241 19.9491L34.1431 23.1898C34.28 23.4628 34.4381 23.8028 34.619 24.2108C34.8236 24.6414 35.0269 25.0491 35.2088 25.457C35.3047 25.6731 35.3877 25.8755 35.4581 26.0659C35.4763 26.0659 35.6033 26.4837 35.6174 26.5323C35.7048 26.6208 35.8478 26.6186 35.9354 26.5323C36.0763 26.1944 36.2235 25.8525 36.3874 25.5257C36.8168 24.562 37.2647 23.6416 37.7705 22.7147L39.2441 19.7902C39.3577 19.5402 39.4706 19.2682 39.6293 18.9739C39.7881 18.6567 39.9465 18.3619 40.0829 18.1126C40.1961 17.8403 40.2865 17.6592 40.3315 17.591H40.3545L40.4004 24.5967C40.4224 24.9589 40.4004 25.2297 40.3777 25.4341C40.3595 25.5963 40.3138 25.7504 40.158 25.8296C40.0666 25.9427 39.8853 25.9877 39.5903 26.0112L39.0907 26.0564C39.0453 26.1011 39.0228 26.17 39.0453 26.2834C39.0453 26.3516 39.0682 26.4191 39.1366 26.4875C39.4766 26.465 39.8393 26.4421 40.18 26.4191H42.1331C42.4731 26.4421 42.8135 26.465 43.155 26.4875C43.2232 26.4421 43.2454 26.3741 43.2454 26.2834C43.2679 26.192 43.2454 26.1243 43.2002 26.0564L42.6552 26.0112C42.4054 25.9877 42.2238 25.9195 42.1096 25.8061C41.9974 25.6929 41.9063 25.5566 41.8836 25.375C41.8603 25.1711 41.8376 24.9206 41.8376 24.6486C41.7912 23.8052 41.7596 22.9482 41.7376 22.1029C41.7146 21.1949 41.6692 20.3343 41.6469 19.5189V17.3644C41.6469 16.979 41.6692 16.6845 41.7146 16.4574C41.7608 16.2538 41.874 16.0727 42.0321 15.9593C42.1912 15.8686 42.4628 15.7999 42.8255 15.7552L43.166 15.7322C43.2117 15.6868 43.2339 15.6188 43.2117 15.5056C43.2117 15.4372 43.1887 15.3695 43.1435 15.324C42.8712 15.3463 42.5989 15.3463 42.3499 15.3695H41.1258C40.9213 15.3463 40.6942 15.3463 40.4004 15.324C40.3777 15.7088 40.2415 16.1404 40.0374 16.6392C39.7881 17.1596 39.4939 17.7956 39.1311 18.5435L37.5437 21.7395C37.1322 22.6096 36.7572 23.4377 36.2529 24.2627H36.2077C35.8064 23.5057 35.4365 22.7202 35.0726 21.944L33.1461 18.0896C32.8971 17.5455 32.67 17.0247 32.4887 16.5486C32.3298 16.0727 32.2621 15.6645 32.2846 15.324C32.0128 15.3463 31.763 15.3463 31.5137 15.3695ZM22.2116 23.987C22.2116 24.5644 22.1889 25.0039 22.1427 25.3049C22.097 25.8877 21.7123 26.0786 21.1699 26.116L20.8225 26.1621C20.7108 26.2743 20.7194 26.5174 20.8467 26.6014C21.563 26.5569 22.2107 26.5318 22.9294 26.5318C23.6957 26.5318 24.4102 26.5655 25.1741 26.6014C25.2203 26.5552 25.2442 26.4858 25.2672 26.3935C25.2672 26.2779 25.2442 26.2078 25.1976 26.1621L24.7346 26.116C24.3642 26.092 24.1099 26.0226 23.9711 25.9068C23.9628 25.9009 23.9544 25.8946 23.9462 25.8882C23.8063 25.7719 23.706 25.5944 23.6639 25.3192C23.618 25.0187 23.5948 24.5799 23.618 24.0033V22.3843C23.1093 22.4077 22.6473 22.3843 22.231 22.3151L22.2116 23.987ZM20.7285 15.5442C20.7058 15.6363 20.7522 15.7054 20.8216 15.7753L21.4226 15.8437C21.6764 15.8676 21.8616 15.9365 21.9769 16.0523C22.0923 16.1445 22.1621 16.3067 22.1848 16.5605C22.2083 16.8146 22.231 17.1852 22.231 17.6697V21.0901C22.6933 21.1133 23.1553 21.1133 23.618 21.0901V16.3756C23.5948 16.1909 23.618 16.0523 23.6639 15.9365C23.6869 15.8676 23.7795 15.7973 23.8948 15.7753C24.0336 15.7521 24.2652 15.7521 24.5654 15.7521C25.4433 15.7753 26.1137 16.0059 26.5989 16.4914C27.0611 16.9761 27.292 17.6467 27.292 18.4794C27.3159 19.2184 27.1308 19.8424 26.7379 20.3503C26.3912 20.7903 25.8828 21.1133 25.1892 21.2751C24.5193 21.4371 23.5718 21.5064 22.3004 21.4827C21.191 21.461 19.9894 21.3911 18.6721 21.2526C20.1284 21.5529 21.2142 21.7605 21.908 21.8297C23.0397 21.9692 24.1491 21.9452 25.1892 21.7842C25.7206 21.7141 26.206 21.5761 26.6453 21.4143C27.0611 21.2296 27.4774 20.9753 27.9165 20.6743C28.1706 20.4898 28.4017 20.1884 28.6101 19.7962C28.7721 19.4263 28.8642 18.9873 28.8869 18.4554C28.8642 17.8774 28.7254 17.3702 28.4715 16.9304C28.217 16.4914 27.9165 16.1445 27.5234 15.8911C27.1308 15.6595 26.6453 15.4741 26.0907 15.3585C25.5591 15.2664 24.9349 15.22 24.2188 15.22C23.5252 15.22 22.9012 15.22 22.3468 15.2429C21.792 15.2664 21.2836 15.2894 20.844 15.3355C20.7751 15.3822 20.7285 15.4513 20.7285 15.5442Z" fill="white"/>
</g>
</g>
<defs>
<linearGradient id="paint0_linear_1589_21135" x1="32" y1="0" x2="32" y2="40" gradientUnits="userSpaceOnUse">
<stop offset="0.265266" stop-color="#B20426"/>
<stop offset="1" stop-color="#9A0825"/>
</linearGradient>
<clipPath id="clip0_1589_21135">
<rect width="64" height="40" rx="8" fill="white"/>
</clipPath>
</defs>
</svg>
