<svg width="64" height="40" viewBox="0 0 64 40" fill="none" xmlns="http://www.w3.org/2000/svg">
<g clip-path="url(#clip0_1589_21139)">
<mask id="mask0_1589_21139" style="mask-type:alpha" maskUnits="userSpaceOnUse" x="0" y="0" width="64" height="40">
<path d="M0 0H64V40H0V0Z" fill="#700000"/>
<path d="M0 0H64V40H0V0Z" fill="url(#paint0_linear_1589_21139)"/>
</mask>
<g mask="url(#mask0_1589_21139)">
<rect width="64" height="40" fill="#D2E4FF"/>
<path d="M18.5966 23.1258H17.2931V18.5171H21.9858V23.1258H20.6825V19.4124H18.5966V23.1258Z" fill="#60B238"/>
<path d="M22.6179 19.7813V24.3443H23.8192V22.7839C24.2218 23.2186 24.8776 23.2515 25.0356 23.2515C26.1813 23.2515 26.8844 22.5204 26.8844 21.4604C26.8844 20.3544 26.189 19.6565 25.0595 19.6565C24.7747 19.6565 24.2218 19.7026 23.7635 20.1833H23.7399L23.7476 19.7813H22.6179ZM23.7635 21.4471C23.7635 20.5124 24.3405 20.3281 24.7039 20.3281C25.0595 20.3281 25.6361 20.5124 25.6361 21.4471C25.6361 22.0268 25.3913 22.58 24.7039 22.58C24.0008 22.58 23.7635 22.0268 23.7635 21.4471Z" fill="#60B238"/>
<path d="M29.8627 22.7247C29.4204 23.1392 28.9943 23.2514 28.5198 23.2514C27.2242 23.2514 27.1765 22.2768 27.1765 21.8753V19.7812H28.3775V21.7171C28.3775 22.3823 28.6072 22.5799 29.0493 22.5799C29.8074 22.5799 29.8627 21.9016 29.8627 21.658V19.7812H31.0641V23.1261H29.8627V22.7247Z" fill="#60B238"/>
<path d="M32.7865 21.7171H33.5213C34.0898 21.7171 34.2084 21.8884 34.2084 22.1123C34.2084 22.2571 34.129 22.4547 33.5362 22.4547H32.7865V21.7171ZM31.5855 19.7812V23.1261H33.9715C34.8405 23.1261 35.4408 22.9549 35.4408 22.2702C35.4408 21.7435 35.1481 21.5131 34.4848 21.3947V21.3748C34.9195 21.3156 35.2989 21.0455 35.2989 20.5914C35.2989 19.7812 34.3507 19.7812 33.9793 19.7812H31.5855ZM32.7865 20.4532H33.4339C33.7737 20.4532 34.0657 20.5058 34.0657 20.7821C34.0657 21.0853 33.6077 21.0918 33.4102 21.0918H32.7865V20.4532Z" fill="#60B238"/>
<path d="M36.9576 20.8613C36.9576 20.3675 37.4789 20.3281 37.6924 20.3281C37.8269 20.3281 38.3242 20.3348 38.3404 20.7692C38.3404 20.8022 38.3404 20.8285 38.3404 20.8613C38.3167 21.1905 38.0007 21.1247 37.1161 21.2366C36.3888 21.3353 35.6224 21.5195 35.6224 22.2836C35.6224 22.5601 35.741 23.2515 37.021 23.2515C37.5111 23.2515 38.0484 23.1262 38.3639 22.7971H38.3883L38.4905 23.1262H39.7545V23.0671C39.5255 23.0209 39.5096 22.7971 39.5174 22.4349L39.5411 20.9072C39.5492 20.5191 39.5096 19.6565 37.7005 19.6565C37.2658 19.6565 35.8674 19.6959 35.8121 20.8613H36.9576ZM38.3482 21.7436C38.3482 22.4152 37.7635 22.58 37.4715 22.58C37.2499 22.58 36.8549 22.5073 36.8549 22.1915C36.8549 21.816 37.3051 21.7436 37.5583 21.7106C38.0244 21.6448 37.9847 21.6646 38.3482 21.5328V21.7436Z" fill="#60B238"/>
<path d="M39.6755 20.4532V19.7812H43.5308V20.4532H42.2035V23.1261H41.0028V20.4532H39.6755Z" fill="#60B238"/>
<path d="M8.57144 23.1382H11.5795V20.1301H8.57144V23.1382Z" fill="#373435"/>
<path d="M14.6783 17.036C14.6783 18.0588 14.6783 20.5257 14.6783 21.5486C14.3926 21.5486 14.3423 21.5486 14.0647 21.5486C13.7997 19.3169 12.3975 17.915 10.1654 17.65C10.1654 17.3724 10.1654 17.3223 10.1654 17.036C11.1883 17.036 13.6554 17.036 14.6783 17.036ZM8.57498 15.4458V19.1898H9.37042C11.4636 19.1898 12.525 20.251 12.525 22.3435V23.139H16.2687V15.4458H8.57498Z" fill="#60B238"/>
<path d="M49.1879 23.1516H43.989V22.1201L46.4426 19.5051C46.7794 19.1369 47.0278 18.8157 47.1875 18.5413C47.3507 18.267 47.4323 18.0065 47.4323 17.76C47.4323 17.4231 47.3473 17.1591 47.1771 16.9681C47.0069 16.7737 46.7638 16.6764 46.4478 16.6764C46.1074 16.6764 45.8383 16.7945 45.6403 17.0306C45.4459 17.2633 45.3486 17.5707 45.3486 17.9527H43.8379C43.8379 17.4908 43.9473 17.0689 44.1661 16.6868C44.3884 16.3048 44.7009 16.0062 45.1038 15.7908C45.5066 15.572 45.9633 15.4626 46.4738 15.4626C47.2552 15.4626 47.8612 15.6502 48.2919 16.0253C48.726 16.4003 48.943 16.9299 48.943 17.6141C48.943 17.9892 48.8458 18.3712 48.6513 18.7601C48.4568 19.1491 48.1234 19.6023 47.6511 20.1198L45.9269 21.9378H49.1879V23.1516Z" fill="#373435"/>
<path d="M54.5691 20.2969H55.4286V21.5107H54.5691V23.1516H53.0636V21.5107H49.9537L49.8859 20.5626L53.048 15.5668H54.5691V20.2969ZM51.3862 20.2969H53.0636V17.6193L52.9646 17.7912L51.3862 20.2969Z" fill="#373435"/>
</g>
</g>
<defs>
<linearGradient id="paint0_linear_1589_21139" x1="32" y1="0" x2="32" y2="40" gradientUnits="userSpaceOnUse">
<stop offset="0.265266" stop-color="#B20426"/>
<stop offset="1" stop-color="#9A0825"/>
</linearGradient>
<clipPath id="clip0_1589_21139">
<rect width="64" height="40" rx="8" fill="white"/>
</clipPath>
</defs>
</svg>
