<svg width="64" height="40" viewBox="0 0 64 40" fill="none" xmlns="http://www.w3.org/2000/svg">
<mask id="mask0_994_14403" style="mask-type:alpha" maskUnits="userSpaceOnUse" x="0" y="0" width="64" height="40">
<path d="M0 0H64V40H0V0Z" fill="#700000"/>
<path d="M0 0H64V40H0V0Z" fill="url(#paint0_linear_994_14403)"/>
</mask>
<g mask="url(#mask0_994_14403)">
<rect width="64" height="40" fill="#D2E4FF"/>
<path d="M19.6558 27.3854C21.1392 27.3854 22.7482 27.918 24.5295 29.5699C24.7083 29.7351 24.945 29.5294 24.7904 29.3238C23.0397 27.0112 21.421 26.5695 19.8056 26.1987C17.831 25.7419 16.8147 24.5789 16.1077 23.3029C15.9676 23.0484 15.9031 23.0939 15.8902 23.4209C15.8741 23.8204 15.9015 24.3496 15.9869 24.8688C15.908 24.8722 15.8274 24.8722 15.7469 24.8722C12.9219 24.8722 10.63 22.4753 10.63 19.5171C10.63 16.5606 12.9203 14.1621 15.7469 14.1621C18.5719 14.1621 20.8638 16.5589 20.8638 19.5171C20.8638 19.7278 20.8541 19.9351 20.8316 20.1391C20.4579 20.0683 19.7219 20.0616 19.2065 20.1071C19.0116 20.1239 19.039 20.22 19.1871 20.247C20.8783 20.5672 22.0411 21.6628 22.3069 23.6535C22.3133 23.699 22.3697 23.7125 22.3922 23.6737C23.088 22.4584 23.4875 21.0358 23.4875 19.5154C23.4858 15.0419 20.0198 11.4163 15.7453 11.4163C11.4708 11.4163 8.00635 15.0419 8.00635 19.5154C8.00635 23.9889 11.4708 27.6163 15.7453 27.6163C16.8808 27.6163 18.005 27.3854 19.6558 27.3854ZM20.2324 24.444C20.5771 24.7491 20.6818 25.1115 20.4998 25.366C20.3983 25.506 20.234 25.5835 20.0375 25.5835C19.8443 25.5835 19.6478 25.5093 19.5109 25.3846C19.1984 25.098 19.1066 24.6345 19.3096 24.3699C19.3901 24.2671 19.5189 24.2097 19.6752 24.2097C19.8636 24.2097 20.0617 24.294 20.2324 24.444ZM21.8205 23.6704C21.8704 24.026 21.7641 24.1727 21.6562 24.1727C21.5386 24.1727 21.3921 24.0294 21.2181 23.7445C21.0458 23.4647 20.983 23.1428 21.0683 22.9793C21.1247 22.8714 21.2423 22.8242 21.3904 22.8832C21.6771 22.9995 21.7915 23.4597 21.8205 23.6704ZM32.5487 21.8162L31.6564 20.6936C31.563 20.5757 31.6435 20.397 31.7901 20.397H33.6568C33.7454 20.1206 33.7953 19.8239 33.7953 19.5171C33.7953 18.1097 32.7951 16.8977 31.4213 16.8977C30.0474 16.8977 29.0472 18.1114 29.0472 19.5171C29.0472 20.9246 30.0474 22.1196 31.4213 22.1196C31.8384 22.1196 32.2185 22.0084 32.5487 21.8162ZM36.5865 23.7142C36.6831 23.8271 36.6042 24.0075 36.4576 24.0075H34.4202C34.3381 24.0075 34.2592 23.9687 34.206 23.903L33.8613 23.4681C33.1575 23.9451 32.32 24.2232 31.4229 24.2232C28.9426 24.2232 26.9261 22.1129 26.9261 19.5171C26.9261 16.9213 28.9426 14.811 31.4229 14.811C33.9032 14.811 35.9197 16.923 35.9197 19.5171C35.9197 20.4526 35.6572 21.324 35.2046 22.0573L36.5865 23.7142ZM55.4047 15.0268H53.7426C53.6202 15.0268 53.522 15.1296 53.522 15.2577V23.7749C53.522 23.903 53.6218 24.0058 53.7426 24.0058H55.4047C55.5272 24.0058 55.6254 23.903 55.6254 23.7749V15.2577C55.6254 15.1296 55.5272 15.0268 55.4047 15.0268ZM52.6071 15.0268H50.7469C50.6502 15.0268 50.5633 15.0925 50.5359 15.1886L49.0638 20.2217L47.4468 15.1835C47.4162 15.0891 47.3324 15.0268 47.2374 15.0268H45.9392C45.8442 15.0268 45.7589 15.0908 45.7299 15.1835L44.1128 20.2217L42.6407 15.1886C42.6117 15.0925 42.5264 15.0268 42.4297 15.0268H40.5695C40.4986 15.0268 40.431 15.0622 40.3907 15.1228C40.3488 15.1818 40.3376 15.2594 40.3601 15.3302L43.0917 23.8507C43.1223 23.9451 43.206 24.0075 43.3011 24.0075H44.778C44.873 24.0075 44.9584 23.9434 44.9874 23.8507L46.5899 18.8715L48.1925 23.8507C48.2231 23.9434 48.3068 24.0075 48.4018 24.0075H49.8788C49.9738 24.0075 50.0592 23.9434 50.0882 23.8507L52.8197 15.3302C52.8423 15.2594 52.831 15.1835 52.7891 15.1228C52.7456 15.0622 52.678 15.0268 52.6071 15.0268ZM39.6531 15.2577V23.7749C39.6531 23.903 39.5532 24.0058 39.4324 24.0058H37.7703C37.6479 24.0058 37.5496 23.903 37.5496 23.7749V15.2577C37.5496 15.1296 37.6479 15.0268 37.7703 15.0268H39.4324C39.5548 15.0268 39.6531 15.1296 39.6531 15.2577Z" fill="#F68C1F"/>
</g>
<defs>
<linearGradient id="paint0_linear_994_14403" x1="32" y1="0" x2="32" y2="40" gradientUnits="userSpaceOnUse">
<stop offset="0.265266" stop-color="#B20426"/>
<stop offset="1" stop-color="#9A0825"/>
</linearGradient>
</defs>
</svg>
