<svg width="19" height="19" viewBox="0 0 19 19" fill="none" xmlns="http://www.w3.org/2000/svg">
<path d="M18.778 17.6595L14.0564 12.9379C15.3431 11.3642 15.9757 9.35622 15.8234 7.32922C15.6711 5.30222 14.7455 3.41129 13.2381 2.04757C11.7307 0.683849 9.75687 -0.0483305 7.72479 0.00247793C5.69271 0.0532864 3.75789 0.883195 2.32054 2.32054C0.883195 3.75789 0.0532864 5.69271 0.00247793 7.72479C-0.0483305 9.75687 0.683849 11.7307 2.04757 13.2381C3.41129 14.7455 5.30222 15.6711 7.32922 15.8234C9.35622 15.9757 11.3642 15.3431 12.9379 14.0564L17.6595 18.778C17.8086 18.922 18.0085 19.0018 18.2159 19C18.4233 18.9982 18.6217 18.915 18.7683 18.7683C18.915 18.6217 18.9982 18.4233 19 18.2159C19.0018 18.0085 18.922 17.8086 18.778 17.6595ZM7.93549 14.2636C6.6839 14.2636 5.46042 13.8925 4.41976 13.1971C3.37911 12.5018 2.56801 11.5135 2.08905 10.3572C1.61009 9.20084 1.48477 7.92847 1.72895 6.70093C1.97312 5.47339 2.57581 4.34583 3.46082 3.46082C4.34583 2.57581 5.47339 1.97312 6.70093 1.72895C7.92847 1.48477 9.20084 1.61009 10.3572 2.08905C11.5135 2.56801 12.5018 3.37911 13.1971 4.41976C13.8925 5.46042 14.2636 6.6839 14.2636 7.93549C14.2617 9.61323 13.5944 11.2217 12.4081 12.4081C11.2217 13.5944 9.61323 14.2617 7.93549 14.2636Z" fill="white"/>
</svg>
