<svg width="23" height="22" viewBox="0 0 23 22" fill="none" xmlns="http://www.w3.org/2000/svg">
<mask id="mask0_791_7970" style="mask-type:alpha" maskUnits="userSpaceOnUse" x="0" y="0" width="23" height="22">
<rect x="0.5" width="22" height="22" fill="#D9D9D9"/>
</mask>
<g mask="url(#mask0_791_7970)">
<path d="M3.46725 10.148L13.9751 5.80209C15.0123 5.3494 18.53 3.90073 18.53 3.90073C18.53 3.90073 20.1536 3.267 20.0183 4.80612C19.9732 5.43991 19.6124 7.65814 19.2516 10.0575L18.1242 17.1648C18.1242 17.1648 18.034 18.206 17.2673 18.387C16.5006 18.5681 15.2379 17.7533 15.0123 17.5722C14.832 17.4364 11.63 15.3992 10.4575 14.4033C10.1417 14.1317 9.781 13.5885 10.5025 12.9547C12.1261 11.4608 14.0653 9.60476 15.2379 8.4277C15.779 7.88449 16.3202 6.61691 14.0653 8.15609L7.70646 12.4567C7.70646 12.4567 6.98486 12.9094 5.63192 12.502C4.27899 12.0946 2.70058 11.5513 2.70058 11.5513C2.70058 11.5513 1.6182 10.8723 3.46725 10.148Z" fill="white"/>
</g>
</svg>
