<svg width="64" height="40" viewBox="0 0 64 40" fill="none" xmlns="http://www.w3.org/2000/svg">
<g clip-path="url(#clip0_1592_21723)">
<mask id="mask0_1592_21723" style="mask-type:alpha" maskUnits="userSpaceOnUse" x="0" y="0" width="64" height="40">
<path d="M0 0H64V40H0V0Z" fill="#700000"/>
<path d="M0 0H64V40H0V0Z" fill="url(#paint0_linear_1592_21723)"/>
</mask>
<g mask="url(#mask0_1592_21723)">
<rect width="64" height="40" fill="#D2E4FF"/>
<path d="M17.4167 20.1873C17.4167 23.8922 14.4133 26.8956 10.7083 26.8956C7.00342 26.8956 4 23.8922 4 20.1873C4 16.4824 7.00342 13.479 10.7083 13.479C14.4133 13.479 17.4167 16.4824 17.4167 20.1873Z" fill="#50AF95"/>
<path fill-rule="evenodd" clip-rule="evenodd" d="M11.5986 20.7853C11.5489 20.7891 11.292 20.8045 10.719 20.8045C10.2632 20.8045 9.93968 20.7907 9.82612 20.7853C8.06485 20.7067 6.75024 20.3961 6.75024 20.0241C6.75024 19.6522 8.06485 19.3419 9.82612 19.2621V20.4758C9.94131 20.4842 10.2711 20.504 10.7269 20.504C11.2738 20.504 11.5477 20.4809 11.597 20.4762V19.263C13.3545 19.3424 14.6662 19.653 14.6662 20.0241C14.6662 20.3952 13.3549 20.7059 11.597 20.7848L11.5986 20.7853ZM11.5986 19.1374V18.0514H14.0514V16.3953H7.37338V18.0514H9.82573V19.1371C7.83244 19.2298 6.33344 19.6299 6.33344 20.1094C6.33344 20.5888 7.83244 20.9884 9.82573 21.0816V24.5619H11.5982V21.0804C13.5869 20.9876 15.0834 20.5879 15.0834 20.1089C15.0834 19.6299 13.5881 19.2302 11.5982 19.1371L11.5986 19.1374Z" fill="white"/>
<path d="M23.4782 17.7024V18.4749H22.0568V22.7567H21.1779V18.4749H19.75V17.7024H23.4782Z" fill="#252526"/>
<path d="M24.7373 19.1145C24.9486 19.1145 25.1424 19.1506 25.3189 19.2229C25.4975 19.2951 25.651 19.4011 25.7796 19.5409C25.908 19.6784 26.0083 19.8485 26.0801 20.0513C26.152 20.2516 26.188 20.4812 26.188 20.7398C26.188 20.8051 26.1847 20.8598 26.1782 20.9041C26.1738 20.946 26.164 20.9798 26.1488 21.0055C26.1357 21.0288 26.1172 21.0462 26.0932 21.0579C26.0693 21.0672 26.0388 21.0719 26.0017 21.0719H23.9302C23.9542 21.4401 24.0467 21.7104 24.2079 21.8828C24.3691 22.0552 24.5826 22.1414 24.8483 22.1414C24.979 22.1414 25.0912 22.1252 25.1849 22.0925C25.2807 22.0599 25.3635 22.0238 25.4332 21.9842C25.5051 21.9445 25.5672 21.9084 25.6194 21.8758C25.6739 21.8432 25.7262 21.8269 25.7763 21.8269C25.8089 21.8269 25.8373 21.8339 25.8612 21.8478C25.8852 21.8618 25.9059 21.8816 25.9233 21.9073L26.1585 22.2219C26.0693 22.3337 25.9691 22.4281 25.858 22.505C25.7469 22.5795 25.6303 22.6401 25.5084 22.6867C25.3885 22.731 25.2655 22.7624 25.1391 22.7811C25.015 22.7998 24.8941 22.8091 24.7765 22.8091C24.5434 22.8091 24.3266 22.7683 24.1262 22.6867C23.9258 22.6028 23.7516 22.4805 23.6034 22.3197C23.4553 22.1566 23.3387 21.9562 23.2538 21.7185C23.1689 21.4785 23.1264 21.2012 23.1264 20.8866C23.1264 20.6419 23.1635 20.4124 23.2375 20.198C23.3115 19.9813 23.4172 19.7937 23.5544 19.6353C23.6938 19.4745 23.8627 19.3475 24.0609 19.2543C24.2613 19.1611 24.4867 19.1145 24.7373 19.1145ZM24.7536 19.7332C24.5183 19.7332 24.3342 19.8042 24.2014 19.9464C24.0685 20.0885 23.9835 20.2901 23.9465 20.5511H25.4626C25.4626 20.4392 25.4484 20.3343 25.4201 20.2365C25.3918 20.1363 25.3482 20.0489 25.2894 19.9744C25.2306 19.8997 25.1565 19.8415 25.0673 19.7996C24.9779 19.7553 24.8734 19.7332 24.7536 19.7332Z" fill="#252526"/>
<path d="M27.9699 22.8124C27.6802 22.8124 27.4569 22.7251 27.3001 22.5503C27.1432 22.3732 27.0648 22.1296 27.0648 21.8197V19.8169H26.725C26.6814 19.8169 26.6433 19.8017 26.6107 19.7714C26.5802 19.7412 26.5649 19.6957 26.5649 19.6352V19.2926L27.104 19.1982L27.2739 18.2195C27.2827 18.1729 27.3023 18.1368 27.3328 18.1112C27.3654 18.0855 27.4057 18.0728 27.4537 18.0728H27.8719V19.2017H28.7541V19.8169H27.8719V21.7603C27.8719 21.8722 27.898 21.9595 27.9503 22.0224C28.0026 22.0853 28.0723 22.1168 28.1594 22.1168C28.2095 22.1168 28.2509 22.111 28.2836 22.0993C28.3185 22.0853 28.3478 22.0714 28.3718 22.0574C28.398 22.0434 28.4208 22.0306 28.4404 22.0189C28.46 22.005 28.4796 21.998 28.4992 21.998C28.5232 21.998 28.5428 22.005 28.558 22.0189C28.5733 22.0306 28.5897 22.0493 28.6071 22.0749L28.8488 22.4943C28.7312 22.5992 28.5962 22.6784 28.4437 22.732C28.2912 22.7856 28.1333 22.8124 27.9699 22.8124Z" fill="#252526"/>
<path d="M29.4221 22.7568V17.5627H30.2292V19.5586C30.3599 19.4257 30.5036 19.3185 30.6604 19.2369C30.8173 19.1554 31.0013 19.1147 31.2126 19.1147C31.3956 19.1147 31.5579 19.1485 31.6995 19.216C31.8411 19.2812 31.9587 19.3745 32.0524 19.4957C32.1482 19.6145 32.2201 19.7578 32.268 19.9256C32.3181 20.091 32.3432 20.2739 32.3432 20.4744V22.7568H31.5361V20.4744C31.5361 20.2553 31.4882 20.0863 31.3923 19.9675C31.2987 19.8463 31.1571 19.7857 30.9676 19.7857C30.8282 19.7857 30.6975 19.8195 30.5755 19.8871C30.4535 19.9547 30.338 20.0467 30.2292 20.1632V22.7568H29.4221Z" fill="#252526"/>
<path d="M34.5477 19.1145C34.759 19.1145 34.9529 19.1506 35.1293 19.2229C35.3079 19.2951 35.4615 19.4011 35.59 19.5409C35.7185 19.6784 35.8187 19.8485 35.8906 20.0513C35.9625 20.2516 35.9985 20.4812 35.9985 20.7398C35.9985 20.8051 35.9951 20.8598 35.9886 20.9041C35.9843 20.946 35.9745 20.9798 35.9593 21.0055C35.9462 21.0288 35.9276 21.0462 35.9037 21.0579C35.8798 21.0672 35.8492 21.0719 35.8122 21.0719H33.7406C33.7646 21.4401 33.8572 21.7104 34.0184 21.8828C34.1796 22.0552 34.393 22.1414 34.6588 22.1414C34.7895 22.1414 34.9016 22.1252 34.9953 22.0925C35.0912 22.0599 35.174 22.0238 35.2436 21.9842C35.3155 21.9445 35.3776 21.9084 35.4299 21.8758C35.4844 21.8432 35.5367 21.8269 35.5867 21.8269C35.6194 21.8269 35.6477 21.8339 35.6717 21.8478C35.6957 21.8618 35.7164 21.8816 35.7338 21.9073L35.969 22.2219C35.8798 22.3337 35.7795 22.4281 35.6685 22.505C35.5574 22.5795 35.4408 22.6401 35.3188 22.6867C35.199 22.731 35.076 22.7624 34.9496 22.7811C34.8255 22.7998 34.7045 22.8091 34.5869 22.8091C34.3538 22.8091 34.1371 22.7683 33.9367 22.6867C33.7363 22.6028 33.562 22.4805 33.4139 22.3197C33.2658 22.1566 33.1492 21.9562 33.0643 21.7185C32.9793 21.4785 32.9368 21.2012 32.9368 20.8866C32.9368 20.6419 32.9739 20.4124 33.048 20.198C33.122 19.9813 33.2276 19.7937 33.3649 19.6353C33.5043 19.4745 33.6731 19.3475 33.8713 19.2543C34.0717 19.1611 34.2972 19.1145 34.5477 19.1145ZM34.564 19.7332C34.3288 19.7332 34.1447 19.8042 34.0118 19.9464C33.879 20.0885 33.794 20.2901 33.757 20.5511H35.2731C35.2731 20.4392 35.2589 20.3343 35.2306 20.2365C35.2023 20.1363 35.1587 20.0489 35.0999 19.9744C35.0411 19.8997 34.967 19.8415 34.8777 19.7996C34.7884 19.7553 34.6838 19.7332 34.564 19.7332Z" fill="#252526"/>
<path d="M36.6793 22.7561V19.1699H37.153C37.2358 19.1699 37.2935 19.1862 37.3262 19.2188C37.3589 19.2515 37.3806 19.3074 37.3916 19.3866L37.4405 19.8201C37.5603 19.5987 37.7009 19.4239 37.862 19.2957C38.0233 19.1676 38.204 19.1035 38.4045 19.1035C38.57 19.1035 38.7072 19.1443 38.8162 19.2258L38.7116 19.8725C38.705 19.9144 38.6909 19.9447 38.6691 19.9634C38.6473 19.9797 38.6179 19.9878 38.5809 19.9878C38.5482 19.9878 38.5036 19.9797 38.4469 19.9634C38.3903 19.947 38.3152 19.9389 38.2215 19.9389C38.0537 19.9389 37.91 19.989 37.7902 20.0892C37.6704 20.1871 37.5691 20.3315 37.4863 20.5226V22.7561H36.6793Z" fill="#252526"/>
<path d="M43.6884 17.7024V18.4504H41.5939V19.852H43.244V20.5755H41.5939V22.0051H43.6884V22.7567H40.7084V17.7024H43.6884Z" fill="#252526"/>
<path d="M45.3825 20.7817V22.7567H44.5036V17.7024H45.9445C46.2669 17.7024 46.5424 17.7385 46.7712 17.8107C47.0021 17.8806 47.1905 17.9797 47.3365 18.1078C47.4845 18.236 47.5924 18.3898 47.6599 18.5692C47.7296 18.7463 47.7645 18.9421 47.7645 19.1564C47.7645 19.3265 47.7405 19.4873 47.6926 19.6388C47.6469 19.7903 47.5793 19.9277 47.49 20.0513C47.4029 20.1747 47.2939 20.2831 47.1632 20.3763C47.0348 20.4695 46.8877 20.5441 46.7221 20.6C46.8332 20.6676 46.9291 20.7643 47.0097 20.8901L48.1925 22.7567H47.4018C47.3255 22.7567 47.2602 22.7403 47.2058 22.7077C47.1535 22.6751 47.1088 22.6284 47.0718 22.5679L46.0785 20.9495C46.0414 20.8889 46.0001 20.8458 45.9543 20.8202C45.9107 20.7946 45.8454 20.7817 45.7583 20.7817H45.3825ZM45.3825 20.1071H45.9314C46.097 20.1071 46.2407 20.085 46.3628 20.0408C46.4869 19.9965 46.5882 19.9359 46.6666 19.859C46.7472 19.7798 46.8071 19.6866 46.8463 19.5794C46.8855 19.4722 46.9051 19.3545 46.9051 19.2263C46.9051 18.97 46.8256 18.7731 46.6666 18.6356C46.5098 18.4981 46.2691 18.4294 45.9445 18.4294H45.3825V20.1071Z" fill="#252526"/>
<path d="M51.8708 21.5645C51.9187 21.5645 51.9601 21.5843 51.9949 21.6239L52.3413 22.0259C52.1496 22.2798 51.9133 22.4745 51.6322 22.6096C51.3534 22.7448 51.018 22.8123 50.6259 22.8123C50.2751 22.8123 49.9593 22.7482 49.6784 22.6201C49.3995 22.4919 49.161 22.3136 48.9627 22.0853C48.7645 21.8569 48.6121 21.5843 48.5053 21.2674C48.4008 20.9505 48.3485 20.6045 48.3485 20.2293C48.3485 19.8494 48.4073 19.5022 48.5249 19.1877C48.6425 18.8708 48.8081 18.5981 49.0216 18.3697C49.235 18.1414 49.4899 17.9643 49.7861 17.8385C50.0845 17.7103 50.4135 17.6462 50.7729 17.6462C51.1236 17.6462 51.4297 17.7068 51.6911 17.828C51.9546 17.9468 52.1801 18.1053 52.3674 18.3033L52.0733 18.7403C52.0559 18.7683 52.033 18.7927 52.0048 18.8136C51.9786 18.8346 51.9416 18.8451 51.8937 18.8451C51.8435 18.8451 51.7924 18.8241 51.7401 18.7822C51.6878 18.7403 51.6214 18.6948 51.5407 18.6459C51.4602 18.5969 51.3578 18.5515 51.2336 18.5096C51.1116 18.4676 50.9559 18.4466 50.7664 18.4466C50.5442 18.4466 50.3394 18.4886 50.1521 18.5725C49.9669 18.654 49.8068 18.7717 49.6718 18.9255C49.5389 19.0793 49.4344 19.2669 49.3581 19.4882C49.2841 19.7073 49.247 19.9543 49.247 20.2293C49.247 20.5136 49.2841 20.7664 49.3581 20.9877C49.4344 21.2091 49.5367 21.3956 49.6653 21.547C49.7938 21.6985 49.9451 21.815 50.1195 21.8966C50.2937 21.9758 50.481 22.0154 50.6814 22.0154C50.8012 22.0154 50.909 22.0084 51.0049 21.9944C51.1029 21.9804 51.1922 21.9583 51.2729 21.928C51.3556 21.8977 51.4329 21.8593 51.5048 21.8126C51.5789 21.7637 51.6518 21.7043 51.7237 21.6344C51.7455 21.6134 51.7684 21.5971 51.7924 21.5854C51.8163 21.5715 51.8424 21.5645 51.8708 21.5645Z" fill="#252526"/>
<path d="M54.5233 17.6462C54.7411 17.6462 54.9404 17.6812 55.1212 17.7511C55.302 17.8187 55.4567 17.9154 55.5852 18.0412C55.7137 18.167 55.814 18.3185 55.8858 18.4956C55.9577 18.6727 55.9936 18.8696 55.9936 19.0863C55.9936 19.2727 55.9675 19.4451 55.9152 19.6036C55.8651 19.7621 55.7965 19.9135 55.7094 20.058C55.6244 20.2025 55.5242 20.3423 55.4087 20.4774C55.2933 20.6126 55.1724 20.7501 55.0461 20.8899L53.9809 22.0538C54.0854 22.0212 54.1878 21.9968 54.288 21.9804C54.3882 21.9618 54.4841 21.9525 54.5756 21.9525H55.7878C55.8749 21.9525 55.9435 21.9793 55.9936 22.0329C56.0459 22.0841 56.0721 22.1529 56.0721 22.2391V22.7564H52.8308V22.4698C52.8308 22.4115 52.8417 22.351 52.8634 22.2881C52.8874 22.2252 52.9244 22.1669 52.9745 22.1133L54.4089 20.5753C54.5288 20.4448 54.6355 20.3202 54.7291 20.2013C54.825 20.0825 54.9045 19.9648 54.9676 19.8483C55.033 19.7318 55.082 19.6141 55.1147 19.4953C55.1496 19.3741 55.167 19.2471 55.167 19.1143C55.167 18.9931 55.1506 18.8871 55.118 18.7962C55.0853 18.703 55.0385 18.6249 54.9775 18.562C54.9165 18.4991 54.8435 18.4525 54.7585 18.4222C54.6758 18.3895 54.5821 18.3733 54.4776 18.3733C54.2837 18.3733 54.1236 18.4257 53.9972 18.5305C53.8731 18.6354 53.7859 18.7764 53.7358 18.9535C53.7119 19.042 53.6759 19.1061 53.628 19.1457C53.5801 19.183 53.5191 19.2017 53.445 19.2017C53.4123 19.2017 53.3764 19.1982 53.3372 19.1912L52.9124 19.1108C52.9451 18.8684 53.0083 18.6564 53.1019 18.4746C53.1956 18.2906 53.3122 18.1379 53.4516 18.0168C53.5932 17.8932 53.7543 17.8012 53.9352 17.7406C54.1181 17.6777 54.3142 17.6462 54.5233 17.6462Z" fill="#252526"/>
<path d="M59.9999 20.2293C59.9999 20.6697 59.9553 21.053 59.866 21.3792C59.7789 21.7032 59.6568 21.9711 59.5 22.1832C59.3454 22.3952 59.1613 22.5537 58.9479 22.6586C58.7366 22.7611 58.5078 22.8123 58.2617 22.8123C58.0155 22.8123 57.7868 22.7611 57.5755 22.6586C57.3664 22.5537 57.1845 22.3952 57.0299 22.1832C56.8752 21.9711 56.7543 21.7032 56.6672 21.3792C56.58 21.053 56.5365 20.6697 56.5365 20.2293C56.5365 19.7865 56.58 19.4032 56.6672 19.0793C56.7543 18.7554 56.8752 18.4874 57.0299 18.2754C57.1845 18.0633 57.3664 17.9061 57.5755 17.8035C57.7868 17.6987 58.0155 17.6462 58.2617 17.6462C58.5078 17.6462 58.7366 17.6987 58.9479 17.8035C59.1613 17.9061 59.3454 18.0633 59.5 18.2754C59.6568 18.4874 59.7789 18.7554 59.866 19.0793C59.9553 19.4032 59.9999 19.7865 59.9999 20.2293ZM59.1667 20.2293C59.1667 19.8634 59.1417 19.5605 59.0916 19.3205C59.0415 19.0805 58.974 18.8894 58.889 18.7472C58.8062 18.6051 58.7104 18.5061 58.6015 18.4502C58.4926 18.3919 58.3793 18.3628 58.2617 18.3628C58.1462 18.3628 58.034 18.3919 57.9251 18.4502C57.8184 18.5061 57.7236 18.6051 57.6408 18.7472C57.5581 18.8894 57.4917 19.0805 57.4415 19.3205C57.3936 19.5605 57.3696 19.8634 57.3696 20.2293C57.3696 20.5951 57.3936 20.8981 57.4415 21.1381C57.4917 21.3781 57.5581 21.5692 57.6408 21.7113C57.7236 21.8535 57.8184 21.9536 57.9251 22.0119C58.034 22.0678 58.1462 22.0958 58.2617 22.0958C58.3793 22.0958 58.4926 22.0678 58.6015 22.0119C58.7104 21.9536 58.8062 21.8535 58.889 21.7113C58.974 21.5692 59.0415 21.3781 59.0916 21.1381C59.1417 20.8981 59.1667 20.5951 59.1667 20.2293Z" fill="#252526"/>
</g>
</g>
<defs>
<linearGradient id="paint0_linear_1592_21723" x1="32" y1="0" x2="32" y2="40" gradientUnits="userSpaceOnUse">
<stop offset="0.265266" stop-color="#B20426"/>
<stop offset="1" stop-color="#9A0825"/>
</linearGradient>
<clipPath id="clip0_1592_21723">
<rect width="64" height="40" rx="8" fill="white"/>
</clipPath>
</defs>
</svg>
