<svg width="64" height="40" viewBox="0 0 64 40" fill="none" xmlns="http://www.w3.org/2000/svg">
<g clip-path="url(#clip0_1592_21702)">
<mask id="mask0_1592_21702" style="mask-type:alpha" maskUnits="userSpaceOnUse" x="0" y="0" width="64" height="40">
<path d="M0 0H64V40H0V0Z" fill="#700000"/>
<path d="M0 0H64V40H0V0Z" fill="url(#paint0_linear_1592_21702)"/>
</mask>
<g mask="url(#mask0_1592_21702)">
<path d="M16.45 20.186C16.45 24.1548 13.2152 27.3721 9.22498 27.3721C5.23473 27.3721 2 24.1548 2 20.186C2 16.2173 5.23473 13 9.22498 13C13.2152 13 16.45 16.2173 16.45 20.186Z" fill="#EC0928"/>
<path fill-rule="evenodd" clip-rule="evenodd" d="M10.1762 20.757C10.123 20.7609 9.84856 20.7769 9.23628 20.7769C8.74923 20.7769 8.40347 20.7626 8.28221 20.757C6.40016 20.6757 4.99538 20.3541 4.99538 19.969C4.99538 19.584 6.40016 19.2628 8.28221 19.1802V20.4367C8.40528 20.4453 8.75768 20.4658 9.24465 20.4658C9.82909 20.4658 10.1217 20.4418 10.1744 20.4371V19.1811C12.0524 19.2633 13.4541 19.5848 13.4541 19.969C13.4541 20.3532 12.0529 20.6748 10.1744 20.7565L10.1762 20.757ZM10.1762 19.0512V17.9269H12.7971V16.2124H5.66124V17.9269H8.28172V19.0508C6.15178 19.1468 4.54999 19.561 4.54999 20.0573C4.54999 20.5535 6.15178 20.9673 8.28172 21.0638V24.6665H10.1757V21.0625C12.3008 20.9664 13.9 20.5527 13.9 20.0568C13.9 19.561 12.3021 19.1472 10.1757 19.0508L10.1762 19.0512Z" fill="white"/>
<path d="M22.8899 17.7949V18.5609H21.3739V22.807H20.4365V18.5609H18.9136V17.7949H22.8899Z" fill="#252526"/>
<path d="M24.2328 19.1951C24.4582 19.1951 24.6649 19.2309 24.8531 19.3025C25.0436 19.3742 25.2075 19.4793 25.3445 19.6179C25.4816 19.7543 25.5885 19.923 25.6651 20.124C25.7418 20.3228 25.7801 20.5504 25.7801 20.8069C25.7801 20.8716 25.7767 20.9259 25.7697 20.9698C25.765 21.0114 25.7546 21.0449 25.7383 21.0703C25.7244 21.0934 25.7046 21.1107 25.6791 21.1223C25.6535 21.1315 25.621 21.1361 25.5815 21.1361H23.372C23.3975 21.5013 23.4963 21.7693 23.6682 21.9403C23.8402 22.1113 24.0679 22.1968 24.3513 22.1968C24.4907 22.1968 24.6103 22.1806 24.7102 22.1483C24.8125 22.116 24.9008 22.0802 24.9751 22.0408C25.0518 22.0015 25.118 21.9657 25.1738 21.9334C25.2318 21.9011 25.2876 21.8849 25.3411 21.8849C25.3759 21.8849 25.4061 21.8918 25.4316 21.9057C25.4572 21.9196 25.4793 21.9392 25.4978 21.9646L25.7488 22.2766C25.6535 22.3875 25.5467 22.481 25.4281 22.5573C25.3097 22.6313 25.1853 22.6913 25.0553 22.7376C24.9275 22.7815 24.7962 22.8126 24.6615 22.8311C24.529 22.8496 24.4001 22.8588 24.2746 22.8588C24.026 22.8588 23.7949 22.8184 23.5811 22.7376C23.3673 22.6543 23.1815 22.533 23.0235 22.3736C22.8655 22.2118 22.7412 22.0131 22.6506 21.7774C22.56 21.5394 22.5147 21.2644 22.5147 20.9524C22.5147 20.7098 22.5542 20.4822 22.6332 20.2696C22.7122 20.0547 22.8249 19.8687 22.9713 19.7116C23.1199 19.5521 23.3 19.4261 23.5114 19.3338C23.7252 19.2413 23.9656 19.1951 24.2328 19.1951ZM24.2502 19.8086C23.9993 19.8086 23.803 19.8791 23.6613 20.0201C23.5196 20.161 23.4289 20.3609 23.3895 20.6197H25.0065C25.0065 20.5088 24.9914 20.4048 24.9612 20.3077C24.931 20.2084 24.8845 20.1217 24.8218 20.0478C24.7591 19.9738 24.68 19.916 24.5848 19.8745C24.4895 19.8306 24.378 19.8086 24.2502 19.8086Z" fill="#252526"/>
<path d="M27.6807 22.8623C27.3717 22.8623 27.1335 22.7756 26.9662 22.6023C26.7989 22.4267 26.7153 22.1852 26.7153 21.8779V19.8917H26.3529C26.3064 19.8917 26.2658 19.8767 26.2309 19.8467C26.1984 19.8166 26.1821 19.7716 26.1821 19.7115V19.3718L26.7572 19.2782L26.9383 18.3077C26.9477 18.2615 26.9685 18.2257 27.0011 18.2002C27.0359 18.1748 27.0789 18.1621 27.1301 18.1621H27.5761V19.2817H28.517V19.8917H27.5761V21.819C27.5761 21.9299 27.604 22.0166 27.6597 22.0789C27.7155 22.1413 27.7899 22.1725 27.8828 22.1725C27.9362 22.1725 27.9804 22.1668 28.0152 22.1552C28.0524 22.1413 28.0838 22.1275 28.1093 22.1136C28.1372 22.0997 28.1616 22.087 28.1825 22.0754C28.2034 22.0616 28.2243 22.0546 28.2452 22.0546C28.2708 22.0546 28.2917 22.0616 28.3079 22.0754C28.3242 22.087 28.3416 22.1055 28.3602 22.1309L28.6181 22.5469C28.4927 22.6509 28.3486 22.7294 28.186 22.7825C28.0234 22.8357 27.8549 22.8623 27.6807 22.8623Z" fill="#252526"/>
<path d="M29.2296 22.807V17.6562H30.0903V19.6355C30.2297 19.5038 30.3831 19.3974 30.5504 19.3166C30.7177 19.2357 30.9139 19.1953 31.1394 19.1953C31.3345 19.1953 31.5076 19.2288 31.6586 19.2958C31.8096 19.3605 31.9351 19.4529 32.035 19.5731C32.1372 19.6909 32.2139 19.8331 32.265 19.9995C32.3184 20.1635 32.3452 20.3449 32.3452 20.5436V22.807H31.4844V20.5436C31.4844 20.3264 31.4332 20.1589 31.331 20.041C31.2311 19.9208 31.0801 19.8608 30.8779 19.8608C30.7293 19.8608 30.5899 19.8943 30.4598 19.9613C30.3296 20.0283 30.2065 20.1196 30.0903 20.2351V22.807H29.2296Z" fill="#252526"/>
<path d="M34.6965 19.1951C34.9218 19.1951 35.1286 19.2309 35.3168 19.3025C35.5073 19.3742 35.6711 19.4793 35.8082 19.6179C35.9453 19.7543 36.0521 19.923 36.1288 20.124C36.2055 20.3228 36.2438 20.5504 36.2438 20.8069C36.2438 20.8716 36.2404 20.9259 36.2334 20.9698C36.2287 21.0114 36.2183 21.0449 36.202 21.0703C36.188 21.0934 36.1683 21.1107 36.1428 21.1223C36.1172 21.1315 36.0846 21.1361 36.0452 21.1361H33.8357C33.8612 21.5013 33.96 21.7693 34.1319 21.9403C34.3038 22.1113 34.5316 22.1968 34.815 22.1968C34.9543 22.1968 35.074 22.1806 35.1739 22.1483C35.2762 22.116 35.3644 22.0802 35.4388 22.0408C35.5155 22.0015 35.5817 21.9657 35.6374 21.9334C35.6955 21.9011 35.7513 21.8849 35.8047 21.8849C35.8396 21.8849 35.8698 21.8918 35.8953 21.9057C35.9209 21.9196 35.943 21.9392 35.9615 21.9646L36.2125 22.2766C36.1172 22.3875 36.0103 22.481 35.8918 22.5573C35.7733 22.6313 35.649 22.6913 35.519 22.7376C35.3912 22.7815 35.2599 22.8126 35.1251 22.8311C34.9927 22.8496 34.8638 22.8588 34.7383 22.8588C34.4897 22.8588 34.2586 22.8184 34.0448 22.7376C33.831 22.6543 33.6452 22.533 33.4872 22.3736C33.3292 22.2118 33.2049 22.0131 33.1143 21.7774C33.0237 21.5394 32.9784 21.2644 32.9784 20.9524C32.9784 20.7098 33.0179 20.4822 33.0969 20.2696C33.1759 20.0547 33.2886 19.8687 33.435 19.7116C33.5836 19.5521 33.7637 19.4261 33.9751 19.3338C34.1889 19.2413 34.4293 19.1951 34.6965 19.1951ZM34.7139 19.8086C34.463 19.8086 34.2666 19.8791 34.125 20.0201C33.9833 20.161 33.8926 20.3609 33.8531 20.6197H35.4701C35.4701 20.5088 35.4551 20.4048 35.4249 20.3077C35.3946 20.2084 35.3482 20.1217 35.2855 20.0478C35.2227 19.9738 35.1437 19.916 35.0485 19.8745C34.9532 19.8306 34.8417 19.8086 34.7139 19.8086Z" fill="#252526"/>
<path d="M36.97 22.807V19.2507H37.4753C37.5636 19.2507 37.6252 19.2669 37.66 19.2992C37.6949 19.3315 37.7181 19.387 37.7297 19.4656L37.782 19.8954C37.9098 19.6759 38.0596 19.5025 38.2316 19.3755C38.4035 19.2484 38.5963 19.1848 38.8101 19.1848C38.9867 19.1848 39.133 19.2253 39.2492 19.3061L39.1376 19.9474C39.1307 19.989 39.1156 20.019 39.0924 20.0375C39.0691 20.0537 39.0377 20.0618 38.9982 20.0618C38.9634 20.0618 38.9158 20.0537 38.8554 20.0375C38.7949 20.0213 38.7148 20.0132 38.6149 20.0132C38.436 20.0132 38.2826 20.0629 38.1549 20.1623C38.0271 20.2594 37.9191 20.4026 37.8308 20.5921V22.807H36.97Z" fill="#252526"/>
<path d="M44.8185 17.7949V18.5609H43.3026V22.807H42.3651V18.5609H40.8422V17.7949H44.8185Z" fill="#252526"/>
<path d="M46.4093 20.8486V22.807H45.4719V17.7949H47.0087C47.3526 17.7949 47.6464 17.8307 47.8904 17.9024C48.1367 17.9716 48.3376 18.0699 48.4934 18.197C48.6513 18.324 48.7663 18.4765 48.8384 18.6545C48.9127 18.8301 48.9498 19.0242 48.9498 19.2368C48.9498 19.4055 48.9243 19.565 48.8732 19.7152C48.8244 19.8654 48.7524 20.0017 48.6571 20.1242C48.5642 20.2467 48.448 20.3541 48.3086 20.4466C48.1715 20.5389 48.0147 20.6129 47.8382 20.6684C47.9566 20.7354 48.0588 20.8313 48.1448 20.9561L49.4064 22.807H48.5631C48.4817 22.807 48.412 22.7908 48.354 22.7585C48.2981 22.7262 48.2506 22.68 48.2111 22.6198L47.1516 21.015C47.1121 20.9549 47.0679 20.9122 47.0192 20.8867C46.9727 20.8613 46.903 20.8486 46.8101 20.8486H46.4093ZM46.4093 20.1796H46.9948C47.1713 20.1796 47.3247 20.1577 47.4548 20.1138C47.5872 20.0699 47.6953 20.0098 47.7789 19.9336C47.8649 19.8549 47.9288 19.7626 47.9706 19.6562C48.0124 19.5499 48.0333 19.4333 48.0333 19.3062C48.0333 19.052 47.9485 18.8567 47.7789 18.7204C47.6116 18.5841 47.3549 18.5159 47.0087 18.5159H46.4093V20.1796Z" fill="#252526"/>
<path d="M53.3295 21.6251C53.3807 21.6251 53.4248 21.6447 53.4619 21.684L53.8314 22.0827C53.6269 22.3345 53.3749 22.5275 53.0752 22.6615C52.7777 22.7955 52.42 22.8625 52.0018 22.8625C51.6277 22.8625 51.2908 22.799 50.9911 22.6719C50.6937 22.5448 50.4393 22.368 50.2279 22.1415C50.0165 21.9151 49.8538 21.6447 49.74 21.3305C49.6285 21.0162 49.5728 20.673 49.5728 20.301C49.5728 19.9243 49.6355 19.58 49.7609 19.2681C49.8864 18.9538 50.0629 18.6835 50.2907 18.457C50.5183 18.2305 50.7901 18.0549 51.1061 17.9301C51.4244 17.8031 51.7752 17.7395 52.1585 17.7395C52.5326 17.7395 52.8591 17.7996 53.1379 17.9197C53.419 18.0375 53.6594 18.1947 53.8593 18.3911L53.5456 18.8244C53.527 18.8522 53.5026 18.8764 53.4724 18.8972C53.4446 18.918 53.405 18.9284 53.3539 18.9284C53.3005 18.9284 53.2459 18.9076 53.1901 18.866C53.1344 18.8244 53.0635 18.7793 52.9775 18.7308C52.8916 18.6823 52.7824 18.6372 52.65 18.5956C52.5199 18.554 52.3538 18.5332 52.1516 18.5332C51.9146 18.5332 51.6963 18.5748 51.4965 18.658C51.2989 18.7389 51.1282 18.8556 50.9842 19.0081C50.8425 19.1606 50.7309 19.3467 50.6496 19.5662C50.5706 19.7834 50.5311 20.0284 50.5311 20.301C50.5311 20.5829 50.5706 20.8336 50.6496 21.0532C50.7309 21.2727 50.8401 21.4575 50.9772 21.6078C51.1143 21.758 51.2757 21.8735 51.4616 21.9544C51.6474 22.033 51.8472 22.0723 52.061 22.0723C52.1888 22.0723 52.3038 22.0653 52.406 22.0515C52.5106 22.0376 52.6058 22.0156 52.6918 21.9856C52.7801 21.9555 52.8626 21.9174 52.9392 21.8712C53.0182 21.8226 53.096 21.7638 53.1727 21.6944C53.1959 21.6736 53.2203 21.6574 53.2459 21.6459C53.2715 21.632 53.2993 21.6251 53.3295 21.6251Z" fill="#252526"/>
<path d="M56.1586 17.7395C56.391 17.7395 56.6035 17.7741 56.7964 17.8435C56.9892 17.9105 57.1541 18.0064 57.2912 18.1312C57.4283 18.2559 57.5351 18.4061 57.6118 18.5817C57.6885 18.7574 57.7269 18.9526 57.7269 19.1676C57.7269 19.3525 57.699 19.5235 57.6432 19.6806C57.5898 19.8377 57.5166 19.9879 57.4236 20.1311C57.333 20.2744 57.2261 20.4131 57.103 20.5471C56.9799 20.6811 56.8509 20.8175 56.7162 20.9561L55.5801 22.1104C55.6916 22.078 55.8008 22.0538 55.9077 22.0376C56.0146 22.0191 56.1168 22.0098 56.2144 22.0098H57.5073C57.6002 22.0098 57.6734 22.0364 57.7269 22.0896C57.7826 22.1404 57.8105 22.2086 57.8105 22.2941V22.8071H54.3534V22.5228C54.3534 22.4651 54.365 22.405 54.3882 22.3426C54.4138 22.2802 54.4533 22.2225 54.5067 22.1693L56.0366 20.6441C56.1644 20.5148 56.2783 20.3912 56.3782 20.2732C56.4804 20.1554 56.5652 20.0388 56.6326 19.9232C56.7023 19.8076 56.7545 19.691 56.7894 19.5731C56.8266 19.4529 56.8451 19.327 56.8451 19.1953C56.8451 19.0751 56.8277 18.97 56.7929 18.8799C56.758 18.7874 56.708 18.71 56.643 18.6476C56.5779 18.5852 56.5001 18.539 56.4095 18.509C56.3213 18.4766 56.2213 18.4605 56.1098 18.4605C55.9031 18.4605 55.7323 18.5125 55.5975 18.6164C55.4651 18.7204 55.3721 18.8602 55.3187 19.0358C55.2932 19.1236 55.2549 19.1872 55.2037 19.2265C55.1526 19.2634 55.0876 19.2819 55.0086 19.2819C54.9737 19.2819 54.9354 19.2785 54.8935 19.2715L54.4405 19.1919C54.4753 18.9515 54.5427 18.7412 54.6426 18.5609C54.7426 18.3784 54.8668 18.227 55.0156 18.1069C55.1665 17.9845 55.3384 17.8931 55.5313 17.8331C55.7265 17.7707 55.9356 17.7395 56.1586 17.7395Z" fill="#252526"/>
<path d="M62 20.301C62 20.7378 61.9523 21.1179 61.8571 21.4414C61.7641 21.7626 61.634 22.0283 61.4667 22.2386C61.3018 22.4489 61.1055 22.6061 60.8778 22.71C60.6524 22.8117 60.4085 22.8625 60.146 22.8625C59.8834 22.8625 59.6395 22.8117 59.4141 22.71C59.1911 22.6061 58.9971 22.4489 58.8321 22.2386C58.6672 22.0283 58.5382 21.7626 58.4453 21.4414C58.3524 21.1179 58.3058 20.7378 58.3058 20.301C58.3058 19.862 58.3524 19.4818 58.4453 19.1606C58.5382 18.8395 58.6672 18.5737 58.8321 18.3634C58.9971 18.1531 59.1911 17.9972 59.4141 17.8954C59.6395 17.7915 59.8834 17.7395 60.146 17.7395C60.4085 17.7395 60.6524 17.7915 60.8778 17.8954C61.1055 17.9972 61.3018 18.1531 61.4667 18.3634C61.634 18.5737 61.7641 18.8395 61.8571 19.1606C61.9523 19.4818 62 19.862 62 20.301ZM61.1113 20.301C61.1113 19.9382 61.0845 19.6378 61.0312 19.3998C60.9777 19.1618 60.9057 18.9723 60.8151 18.8314C60.7268 18.6904 60.6246 18.5922 60.5084 18.5367C60.3922 18.479 60.2714 18.4501 60.146 18.4501C60.0228 18.4501 59.9032 18.479 59.787 18.5367C59.6732 18.5922 59.5721 18.6904 59.4838 18.8314C59.3955 18.9723 59.3247 19.1618 59.2712 19.3998C59.2201 19.6378 59.1945 19.9382 59.1945 20.301C59.1945 20.6638 59.2201 20.9642 59.2712 21.2022C59.3247 21.4402 59.3955 21.6297 59.4838 21.7707C59.5721 21.9117 59.6732 22.011 59.787 22.0688C59.9032 22.1242 60.0228 22.1519 60.146 22.1519C60.2714 22.1519 60.3922 22.1242 60.5084 22.0688C60.6246 22.011 60.7268 21.9117 60.8151 21.7707C60.9057 21.6297 60.9777 21.4402 61.0312 21.2022C61.0845 20.9642 61.1113 20.6638 61.1113 20.301Z" fill="#252526"/>
</g>
</g>
<defs>
<linearGradient id="paint0_linear_1592_21702" x1="32" y1="0" x2="32" y2="40" gradientUnits="userSpaceOnUse">
<stop offset="0.265266" stop-color="#B20426"/>
<stop offset="1" stop-color="#9A0825"/>
</linearGradient>
<clipPath id="clip0_1592_21702">
<rect width="64" height="40" rx="8" fill="white"/>
</clipPath>
</defs>
</svg>
