<svg width="64" height="40" viewBox="0 0 64 40" fill="none" xmlns="http://www.w3.org/2000/svg">
<g clip-path="url(#clip0_1592_21702)">
<mask id="mask0_1592_21702" style="mask-type:alpha" maskUnits="userSpaceOnUse" x="0" y="0" width="64" height="40">
<path d="M0 0H64V40H0V0Z" fill="#700000"/>
<path d="M0 0H64V40H0V0Z" fill="url(#paint0_linear_1592_21702)"/>
</mask>
<g mask="url(#mask0_1592_21702)">
<rect width="64" height="40" fill="#D2E4FF"/>
<path d="M17.4866 20.186C17.4866 23.8901 14.4675 26.893 10.7433 26.893C7.01908 26.893 4 23.8901 4 20.186C4 16.4818 7.01908 13.479 10.7433 13.479C14.4675 13.479 17.4866 16.4818 17.4866 20.186Z" fill="#EC0928"/>
<path fill-rule="evenodd" clip-rule="evenodd" d="M11.6311 20.7187C11.5814 20.7223 11.3253 20.7373 10.7538 20.7373C10.2992 20.7373 9.97653 20.7239 9.86335 20.7187C8.10678 20.6428 6.79564 20.3426 6.79564 19.9832C6.79564 19.6239 8.10678 19.3241 9.86335 19.247V20.4197C9.97822 20.4278 10.3071 20.4469 10.7616 20.4469C11.3071 20.4469 11.5802 20.4245 11.6294 20.4201V19.2479C13.3822 19.3245 14.6905 19.6246 14.6905 19.9832C14.6905 20.3418 13.3826 20.642 11.6294 20.7182L11.6311 20.7187ZM11.6311 19.1266V18.0772H14.0773V16.4771H7.41711V18.0772H9.8629V19.1262C7.87495 19.2158 6.37994 19.6024 6.37994 20.0656C6.37994 20.5288 7.87495 20.915 9.8629 21.005V24.3676H11.6306V21.0038C13.6141 20.9141 15.1066 20.528 15.1066 20.0652C15.1066 19.6024 13.6153 19.2162 11.6306 19.1262L11.6311 19.1266Z" fill="white"/>
<path d="M23.4972 17.9541V18.669H22.0823V22.6321H21.2074V18.669H19.786V17.9541H23.4972Z" fill="#252526"/>
<path d="M24.7506 19.261C24.961 19.261 25.154 19.2945 25.3296 19.3613C25.5074 19.4281 25.6603 19.5263 25.7883 19.6557C25.9162 19.783 26.0159 19.9404 26.0875 20.128C26.159 20.3135 26.1948 20.5259 26.1948 20.7654C26.1948 20.8257 26.1916 20.8764 26.1851 20.9174C26.1807 20.9562 26.171 20.9875 26.1558 21.0112C26.1428 21.0328 26.1243 21.0489 26.1005 21.0598C26.0767 21.0684 26.0463 21.0727 26.0094 21.0727H23.9472C23.9711 21.4135 24.0633 21.6636 24.2237 21.8232C24.3842 21.9828 24.5967 22.0626 24.8612 22.0626C24.9913 22.0626 25.103 22.0475 25.1962 22.0174C25.2917 21.9871 25.3741 21.9537 25.4435 21.917C25.515 21.8804 25.5768 21.847 25.6289 21.8167C25.683 21.7866 25.7351 21.7715 25.785 21.7715C25.8175 21.7715 25.8457 21.7779 25.8695 21.7909C25.8934 21.8038 25.914 21.8221 25.9313 21.8458L26.1656 22.137C26.0767 22.2406 25.9769 22.3279 25.8663 22.3991C25.7557 22.4681 25.6397 22.5242 25.5183 22.5673C25.399 22.6083 25.2765 22.6374 25.1507 22.6547C25.0271 22.6719 24.9068 22.6805 24.7897 22.6805C24.5576 22.6805 24.3419 22.6428 24.1424 22.5673C23.9429 22.4896 23.7694 22.3764 23.622 22.2276C23.4745 22.0766 23.3585 21.8912 23.2739 21.6712C23.1894 21.449 23.1471 21.1924 23.1471 20.9012C23.1471 20.6747 23.184 20.4623 23.2577 20.2639C23.3314 20.0633 23.4366 19.8897 23.5732 19.743C23.712 19.5943 23.88 19.4767 24.0773 19.3904C24.2769 19.3042 24.5013 19.261 24.7506 19.261ZM24.7669 19.8336C24.5327 19.8336 24.3495 19.8994 24.2172 20.031C24.085 20.1625 24.0004 20.3491 23.9635 20.5907H25.4727C25.4727 20.4871 25.4587 20.39 25.4305 20.2995C25.4023 20.2067 25.3589 20.1259 25.3004 20.0568C25.2418 19.9878 25.168 19.9339 25.0792 19.8951C24.9903 19.8541 24.8862 19.8336 24.7669 19.8336Z" fill="#252526"/>
<path d="M27.9686 22.6837C27.6802 22.6837 27.458 22.6028 27.3019 22.4411C27.1457 22.2772 27.0676 22.0518 27.0676 21.7649V19.9112H26.7293C26.686 19.9112 26.6481 19.8972 26.6155 19.8692C26.5852 19.8411 26.57 19.799 26.57 19.743V19.4259L27.1067 19.3386L27.2758 18.4328C27.2845 18.3896 27.304 18.3562 27.3343 18.3324C27.3669 18.3087 27.407 18.2969 27.4547 18.2969H27.871V19.3418H28.7493V19.9112H27.871V21.7099C27.871 21.8135 27.8971 21.8944 27.9491 21.9526C28.0011 22.0108 28.0705 22.0399 28.1573 22.0399C28.2072 22.0399 28.2484 22.0346 28.2809 22.0237C28.3156 22.0108 28.3449 21.9979 28.3687 21.9849C28.3948 21.972 28.4175 21.9601 28.437 21.9493C28.4566 21.9364 28.476 21.9299 28.4956 21.9299C28.5194 21.9299 28.5389 21.9364 28.5541 21.9493C28.5693 21.9601 28.5856 21.9774 28.6029 22.0011L28.8436 22.3893C28.7265 22.4864 28.5921 22.5597 28.4403 22.6093C28.2885 22.6589 28.1313 22.6837 27.9686 22.6837Z" fill="#252526"/>
<path d="M29.4142 22.6321V17.8247H30.2176V19.672C30.3478 19.5491 30.4909 19.4498 30.647 19.3743C30.8032 19.2989 30.9863 19.2611 31.1967 19.2611C31.3789 19.2611 31.5404 19.2924 31.6813 19.3549C31.8223 19.4153 31.9394 19.5016 32.0326 19.6138C32.128 19.7238 32.1996 19.8564 32.2473 20.0117C32.2972 20.1648 32.3221 20.3341 32.3221 20.5196V22.6321H31.5187V20.5196C31.5187 20.3168 31.471 20.1605 31.3756 20.0505C31.2824 19.9383 31.1414 19.8823 30.9527 19.8823C30.814 19.8823 30.6839 19.9136 30.5624 19.9761C30.441 20.0387 30.3261 20.1238 30.2176 20.2317V22.6321H29.4142Z" fill="#252526"/>
<path d="M34.5168 19.261C34.7271 19.261 34.9201 19.2945 35.0957 19.3613C35.2735 19.4281 35.4264 19.5263 35.5544 19.6557C35.6823 19.783 35.782 19.9404 35.8536 20.128C35.9252 20.3135 35.9609 20.5259 35.9609 20.7654C35.9609 20.8257 35.9577 20.8764 35.9512 20.9174C35.9468 20.9562 35.9371 20.9875 35.9219 21.0112C35.9089 21.0328 35.8905 21.0489 35.8666 21.0598C35.8428 21.0684 35.8124 21.0727 35.7755 21.0727H33.7134C33.7372 21.4135 33.8294 21.6636 33.9898 21.8232C34.1503 21.9828 34.3628 22.0626 34.6273 22.0626C34.7574 22.0626 34.8691 22.0475 34.9624 22.0174C35.0578 21.9871 35.1402 21.9537 35.2096 21.917C35.2812 21.8804 35.343 21.847 35.395 21.8167C35.4492 21.7866 35.5013 21.7715 35.5511 21.7715C35.5836 21.7715 35.6118 21.7779 35.6357 21.7909C35.6596 21.8038 35.6801 21.8221 35.6975 21.8458L35.9317 22.137C35.8428 22.2406 35.743 22.3279 35.6324 22.3991C35.5218 22.4681 35.4058 22.5242 35.2844 22.5673C35.1651 22.6083 35.0426 22.6374 34.9168 22.6547C34.7932 22.6719 34.6729 22.6805 34.5558 22.6805C34.3238 22.6805 34.108 22.6428 33.9085 22.5673C33.709 22.4896 33.5355 22.3764 33.3881 22.2276C33.2406 22.0766 33.1246 21.8912 33.0401 21.6712C32.9555 21.449 32.9132 21.1924 32.9132 20.9012C32.9132 20.6747 32.9501 20.4623 33.0238 20.2639C33.0976 20.0633 33.2027 19.8897 33.3393 19.743C33.4781 19.5943 33.6462 19.4767 33.8435 19.3904C34.043 19.3042 34.2674 19.261 34.5168 19.261ZM34.533 19.8336C34.2988 19.8336 34.1156 19.8994 33.9833 20.031C33.8511 20.1625 33.7665 20.3491 33.7296 20.5907H35.2388C35.2388 20.4871 35.2248 20.39 35.1966 20.2995C35.1684 20.2067 35.125 20.1259 35.0665 20.0568C35.0079 19.9878 34.9342 19.9339 34.8453 19.8951C34.7564 19.8541 34.6523 19.8336 34.533 19.8336Z" fill="#252526"/>
<path d="M36.6387 22.6324V19.3132H37.1103C37.1927 19.3132 37.2502 19.3283 37.2827 19.3585C37.3152 19.3886 37.3369 19.4404 37.3478 19.5137L37.3966 19.9149C37.5159 19.7101 37.6557 19.5482 37.8162 19.4297C37.9766 19.311 38.1566 19.2517 38.3561 19.2517C38.5209 19.2517 38.6575 19.2895 38.766 19.3649L38.6618 19.9634C38.6553 20.0023 38.6413 20.0303 38.6196 20.0476C38.5979 20.0627 38.5686 20.0702 38.5317 20.0702C38.4992 20.0702 38.4548 20.0627 38.3984 20.0476C38.342 20.0325 38.2672 20.0249 38.1739 20.0249C38.007 20.0249 37.8638 20.0713 37.7446 20.1641C37.6253 20.2546 37.5245 20.3883 37.4421 20.5652V22.6324H36.6387Z" fill="#252526"/>
<path d="M43.964 17.9541V18.669H42.5491V22.6321H41.6741V18.669H40.2527V17.9541H43.964Z" fill="#252526"/>
<path d="M45.4487 20.8042V22.6321H44.5737V17.9541H46.0081C46.3291 17.9541 46.6033 17.9875 46.8311 18.0544C47.0609 18.119 47.2484 18.2107 47.3938 18.3294C47.5412 18.4479 47.6485 18.5903 47.7158 18.7564C47.7851 18.9203 47.8198 19.1015 47.8198 19.2999C47.8198 19.4573 47.796 19.6062 47.7483 19.7464C47.7028 19.8866 47.6356 20.0138 47.5466 20.1281C47.4599 20.2424 47.3515 20.3427 47.2214 20.429C47.0934 20.5152 46.9471 20.5842 46.7823 20.636C46.8928 20.6986 46.9882 20.788 47.0685 20.9045L48.246 22.6321H47.4588C47.3829 22.6321 47.3179 22.6169 47.2637 22.5868C47.2116 22.5566 47.1672 22.5135 47.1303 22.4573L46.1415 20.9595C46.1046 20.9034 46.0634 20.8636 46.0179 20.8398C45.9745 20.8161 45.9095 20.8042 45.8227 20.8042H45.4487ZM45.4487 20.1798H45.9952C46.1599 20.1798 46.303 20.1593 46.4245 20.1184C46.5481 20.0774 46.6489 20.0213 46.727 19.9502C46.8072 19.8768 46.8669 19.7906 46.9059 19.6913C46.9449 19.5921 46.9644 19.4832 46.9644 19.3646C46.9644 19.1274 46.8853 18.9451 46.727 18.8179C46.5708 18.6906 46.3312 18.627 46.0081 18.627H45.4487V20.1798Z" fill="#252526"/>
<path d="M51.9076 21.5292C51.9554 21.5292 51.9966 21.5475 52.0312 21.5841L52.376 21.9562C52.1852 22.1913 51.95 22.3714 51.6702 22.4965C51.3926 22.6216 51.0587 22.6841 50.6684 22.6841C50.3192 22.6841 50.0049 22.6248 49.7251 22.5062C49.4475 22.3875 49.2101 22.2225 49.0128 22.0112C48.8154 21.7998 48.6637 21.5475 48.5574 21.2542C48.4533 20.9608 48.4013 20.6405 48.4013 20.2933C48.4013 19.9418 48.4598 19.6204 48.5769 19.3293C48.694 19.0359 48.8588 18.7836 49.0714 18.5722C49.2838 18.3609 49.5375 18.197 49.8324 18.0805C50.1295 17.9619 50.457 17.9026 50.8147 17.9026C51.1639 17.9026 51.4685 17.9587 51.7287 18.0708C51.9911 18.1808 52.2156 18.3275 52.4021 18.5108L52.1093 18.9151C52.092 18.9411 52.0692 18.9637 52.041 18.9831C52.015 19.0025 51.9781 19.0122 51.9304 19.0122C51.8805 19.0122 51.8295 18.9928 51.7775 18.954C51.7255 18.9151 51.6593 18.8731 51.5791 18.8278C51.4989 18.7825 51.397 18.7404 51.2734 18.7016C51.1519 18.6628 50.9969 18.6434 50.8083 18.6434C50.5871 18.6434 50.3833 18.6822 50.1968 18.7598C50.0124 18.8354 49.8531 18.9443 49.7186 19.0866C49.5864 19.2289 49.4822 19.4026 49.4064 19.6075C49.3326 19.8102 49.2957 20.0389 49.2957 20.2933C49.2957 20.5565 49.3326 20.7904 49.4064 20.9954C49.4822 21.2003 49.5841 21.3728 49.7121 21.513C49.8401 21.6532 49.9907 21.761 50.1642 21.8365C50.3377 21.9098 50.5242 21.9465 50.7237 21.9465C50.8429 21.9465 50.9503 21.94 51.0457 21.9271C51.1433 21.9141 51.2322 21.8936 51.3124 21.8656C51.3948 21.8376 51.4718 21.8019 51.5434 21.7588C51.6171 21.7135 51.6897 21.6586 51.7612 21.5938C51.7829 21.5744 51.8057 21.5593 51.8296 21.5486C51.8534 21.5356 51.8794 21.5292 51.9076 21.5292Z" fill="#252526"/>
<path d="M54.5481 17.9026C54.7649 17.9026 54.9633 17.9349 55.1433 17.9996C55.3233 18.0622 55.4772 18.1517 55.6052 18.2682C55.7332 18.3846 55.8328 18.5248 55.9044 18.6887C55.976 18.8526 56.0118 19.0348 56.0118 19.2355C56.0118 19.408 55.9857 19.5676 55.9337 19.7143C55.8838 19.8609 55.8155 20.0011 55.7288 20.1348C55.6442 20.2685 55.5444 20.3979 55.4295 20.523C55.3146 20.6481 55.1943 20.7754 55.0685 20.9048L54.0082 21.9821C54.1122 21.9518 54.2141 21.9292 54.3139 21.9141C54.4136 21.8969 54.509 21.8882 54.6001 21.8882H55.8069C55.8936 21.8882 55.9619 21.913 56.0118 21.9627C56.0638 22.0101 56.0899 22.0737 56.0899 22.1535V22.6323H52.8632V22.367C52.8632 22.3131 52.874 22.257 52.8957 22.1988C52.9196 22.1406 52.9565 22.0867 53.0063 22.0371L54.4342 20.6136C54.5535 20.4928 54.6598 20.3775 54.753 20.2674C54.8484 20.1574 54.9275 20.0486 54.9904 19.9407C55.0555 19.8328 55.1043 19.724 55.1368 19.614C55.1715 19.5018 55.1888 19.3842 55.1888 19.2613C55.1888 19.1492 55.1726 19.051 55.1401 18.9669C55.1075 18.8806 55.0609 18.8084 55.0002 18.7501C54.9395 18.6919 54.8668 18.6488 54.7823 18.6208C54.6999 18.5905 54.6066 18.5755 54.5025 18.5755C54.3096 18.5755 54.1502 18.624 54.0244 18.721C53.9008 18.8181 53.814 18.9486 53.7642 19.1125C53.7403 19.1944 53.7046 19.2538 53.6569 19.2904C53.6091 19.3249 53.5484 19.3422 53.4747 19.3422C53.4422 19.3422 53.4064 19.339 53.3674 19.3325L52.9446 19.2581C52.977 19.0338 53.0399 18.8375 53.1332 18.6693C53.2264 18.4989 53.3424 18.3576 53.4812 18.2455C53.6221 18.1312 53.7826 18.046 53.9626 17.9899C54.1448 17.9317 54.3399 17.9026 54.5481 17.9026Z" fill="#252526"/>
<path d="M60 20.2933C60 20.701 59.9555 21.0557 59.8666 21.3577C59.7799 21.6575 59.6584 21.9055 59.5023 22.1017C59.3483 22.298 59.1651 22.4447 58.9526 22.5417C58.7422 22.6367 58.5146 22.6841 58.2696 22.6841C58.0245 22.6841 57.7968 22.6367 57.5865 22.5417C57.3783 22.4447 57.1973 22.298 57.0433 22.1017C56.8894 21.9055 56.769 21.6575 56.6823 21.3577C56.5956 21.0557 56.5521 20.701 56.5521 20.2933C56.5521 19.8836 56.5956 19.5287 56.6823 19.2289C56.769 18.9292 56.8894 18.6812 57.0433 18.4849C57.1973 18.2886 57.3783 18.1431 57.5865 18.0481C57.7968 17.9511 58.0245 17.9026 58.2696 17.9026C58.5146 17.9026 58.7422 17.9511 58.9526 18.0481C59.1651 18.1431 59.3483 18.2886 59.5023 18.4849C59.6584 18.6812 59.7799 18.9292 59.8666 19.2289C59.9555 19.5287 60 19.8836 60 20.2933ZM59.1705 20.2933C59.1705 19.9547 59.1456 19.6743 59.0958 19.4522C59.0459 19.23 58.9786 19.0532 58.8941 18.9217C58.8117 18.7901 58.7163 18.6984 58.6078 18.6467C58.4994 18.5928 58.3866 18.5658 58.2696 18.5658C58.1546 18.5658 58.043 18.5928 57.9345 18.6467C57.8283 18.6984 57.734 18.7901 57.6515 18.9217C57.5692 19.0532 57.503 19.23 57.4531 19.4522C57.4054 19.6743 57.3816 19.9547 57.3816 20.2933C57.3816 20.6319 57.4054 20.9123 57.4531 21.1344C57.503 21.3566 57.5692 21.5335 57.6515 21.665C57.734 21.7966 57.8283 21.8893 57.9345 21.9432C58.043 21.995 58.1546 22.0209 58.2696 22.0209C58.3866 22.0209 58.4994 21.995 58.6078 21.9432C58.7163 21.8893 58.8117 21.7966 58.8941 21.665C58.9786 21.5335 59.0459 21.3566 59.0958 21.1344C59.1456 20.9123 59.1705 20.6319 59.1705 20.2933Z" fill="#252526"/>
</g>
</g>
<defs>
<linearGradient id="paint0_linear_1592_21702" x1="32" y1="0" x2="32" y2="40" gradientUnits="userSpaceOnUse">
<stop offset="0.265266" stop-color="#B20426"/>
<stop offset="1" stop-color="#9A0825"/>
</linearGradient>
<clipPath id="clip0_1592_21702">
<rect width="64" height="40" rx="8" fill="white"/>
</clipPath>
</defs>
</svg>
