<svg width="64" height="40" viewBox="0 0 64 40" fill="none" xmlns="http://www.w3.org/2000/svg">
<g clip-path="url(#clip0_1592_21723)">
<mask id="mask0_1592_21723" style="mask-type:alpha" maskUnits="userSpaceOnUse" x="0" y="0" width="64" height="40">
<path d="M0 0H64V40H0V0Z" fill="#700000"/>
<path d="M0 0H64V40H0V0Z" fill="url(#paint0_linear_1592_21723)"/>
</mask>
<g mask="url(#mask0_1592_21723)">
<path d="M16.375 20.1874C16.375 24.157 13.1571 27.375 9.18751 27.375C5.21795 27.375 2 24.157 2 20.1874C2 16.218 5.21795 13 9.18751 13C13.1571 13 16.375 16.218 16.375 20.1874Z" fill="#50AF95"/>
<path fill-rule="evenodd" clip-rule="evenodd" d="M10.1413 20.8283C10.0881 20.8324 9.81283 20.849 9.19887 20.849C8.71057 20.849 8.36389 20.8341 8.24222 20.8283C6.35515 20.7442 4.94664 20.4113 4.94664 20.0128C4.94664 19.6143 6.35515 19.2819 8.24222 19.1964V20.4968C8.36564 20.5058 8.71901 20.5269 9.20731 20.5269C9.79329 20.5269 10.0867 20.5022 10.1395 20.4972V19.1973C12.0226 19.2824 13.428 19.6152 13.428 20.0128C13.428 20.4104 12.0231 20.7433 10.1395 20.8279L10.1413 20.8283ZM10.1413 19.0628V17.8992H12.7693V16.1248H5.61428V17.8992H8.2418V19.0624C6.10614 19.1618 4.50006 19.5905 4.50006 20.1042C4.50006 20.6178 6.10614 21.046 8.2418 21.1458V24.8747H10.1409V21.1445C12.2716 21.0451 13.875 20.6169 13.875 20.1037C13.875 19.5905 12.273 19.1622 10.1409 19.0624L10.1413 19.0628Z" fill="white"/>
<path d="M22.8695 17.5251V18.3528H21.3466V22.9404H20.4049V18.3528H18.875V17.5251H22.8695Z" fill="#252526"/>
<path d="M24.2185 19.0378C24.4449 19.0378 24.6526 19.0765 24.8416 19.1539C25.033 19.2313 25.1975 19.3449 25.3352 19.4947C25.4729 19.642 25.5803 19.8243 25.6573 20.0415C25.7343 20.2562 25.7728 20.5021 25.7728 20.7792C25.7728 20.8491 25.7693 20.9078 25.7623 20.9553C25.7577 21.0002 25.7471 21.0364 25.7308 21.0639C25.7168 21.0889 25.697 21.1076 25.6713 21.1201C25.6456 21.13 25.613 21.1351 25.5733 21.1351H23.3538C23.3794 21.5295 23.4786 21.8191 23.6513 22.0039C23.824 22.1886 24.0528 22.281 24.3375 22.281C24.4775 22.281 24.5977 22.2635 24.698 22.2286C24.8007 22.1936 24.8894 22.1549 24.9641 22.1125C25.0412 22.07 25.1076 22.0314 25.1637 21.9964C25.222 21.9614 25.278 21.9439 25.3317 21.9439C25.3667 21.9439 25.397 21.9515 25.4227 21.9664C25.4484 21.9814 25.4706 22.0026 25.4893 22.0301L25.7413 22.3671C25.6456 22.487 25.5383 22.5881 25.4192 22.6705C25.3002 22.7504 25.1753 22.8153 25.0446 22.8652C24.9163 22.9127 24.7844 22.9464 24.6491 22.9663C24.516 22.9863 24.3865 22.9963 24.2605 22.9963C24.0108 22.9963 23.7785 22.9526 23.5638 22.8652C23.3491 22.7754 23.1624 22.6443 23.0037 22.472C22.8449 22.2972 22.7201 22.0825 22.6291 21.8278C22.538 21.5707 22.4926 21.2736 22.4926 20.9366C22.4926 20.6744 22.5323 20.4284 22.6116 20.1988C22.6909 19.9666 22.8041 19.7656 22.9511 19.5958C23.1005 19.4236 23.2814 19.2875 23.4938 19.1876C23.7085 19.0877 23.9501 19.0378 24.2185 19.0378ZM24.236 19.7007C23.9839 19.7007 23.7867 19.7768 23.6443 19.9291C23.5019 20.0814 23.4109 20.2974 23.3713 20.5771H24.9956C24.9956 20.4572 24.9805 20.3448 24.9501 20.24C24.9198 20.1326 24.8731 20.039 24.8101 19.9591C24.7471 19.8792 24.6677 19.8168 24.572 19.7719C24.4763 19.7244 24.3643 19.7007 24.236 19.7007Z" fill="#252526"/>
<path d="M27.682 23C27.3716 23 27.1324 22.9065 26.9644 22.7192C26.7963 22.5295 26.7123 22.2685 26.7123 21.9365V19.7906H26.3482C26.3015 19.7906 26.2607 19.7743 26.2257 19.7419C26.193 19.7095 26.1767 19.6608 26.1767 19.5959V19.2288L26.7543 19.1277L26.9363 18.0791C26.9457 18.0292 26.9667 17.9905 26.9994 17.963C27.0344 17.9355 27.0775 17.9219 27.1289 17.9219H27.577V19.1315H28.5222V19.7906H27.577V21.8728C27.577 21.9927 27.605 22.0863 27.661 22.1537C27.717 22.2211 27.7917 22.2548 27.8851 22.2548C27.9387 22.2548 27.9831 22.2486 28.0181 22.2361C28.0555 22.2211 28.0869 22.2062 28.1126 22.1912C28.1407 22.1762 28.1651 22.1624 28.1861 22.1499C28.2071 22.135 28.2281 22.1275 28.2491 22.1275C28.2748 22.1275 28.2958 22.135 28.3121 22.1499C28.3285 22.1624 28.346 22.1824 28.3647 22.2099L28.6237 22.6593C28.4977 22.7716 28.353 22.8565 28.1896 22.9139C28.0263 22.9714 27.857 23 27.682 23Z" fill="#252526"/>
<path d="M29.238 22.9403V17.3752H30.1027V19.5136C30.2427 19.3713 30.3967 19.2565 30.5647 19.169C30.7328 19.0817 30.93 19.038 31.1564 19.038C31.3524 19.038 31.5263 19.0742 31.678 19.1466C31.8297 19.2165 31.9558 19.3164 32.0561 19.4462C32.1588 19.5735 32.2358 19.7271 32.2872 19.9068C32.3408 20.0841 32.3677 20.2801 32.3677 20.4948V22.9403H31.503V20.4948C31.503 20.2601 31.4516 20.0791 31.3489 19.9518C31.2486 19.8219 31.0969 19.757 30.8938 19.757C30.7445 19.757 30.6044 19.7932 30.4738 19.8657C30.343 19.938 30.2193 20.0367 30.1027 20.1615V22.9403H29.238Z" fill="#252526"/>
<path d="M34.7296 19.0378C34.956 19.0378 35.1638 19.0765 35.3528 19.1539C35.5442 19.2313 35.7087 19.3449 35.8464 19.4947C35.9841 19.642 36.0915 19.8243 36.1685 20.0415C36.2455 20.2562 36.284 20.5021 36.284 20.7792C36.284 20.8491 36.2805 20.9078 36.2735 20.9553C36.2688 21.0002 36.2584 21.0364 36.242 21.0639C36.228 21.0889 36.2081 21.1076 36.1825 21.1201C36.1569 21.13 36.1241 21.1351 36.0844 21.1351H33.8649C33.8906 21.5295 33.9898 21.8191 34.1626 22.0039C34.3352 22.1886 34.5639 22.281 34.8487 22.281C34.9887 22.281 35.1089 22.2635 35.2093 22.2286C35.312 22.1936 35.4007 22.1549 35.4753 22.1125C35.5523 22.07 35.6189 22.0314 35.6749 21.9964C35.7332 21.9614 35.7893 21.9439 35.8429 21.9439C35.8779 21.9439 35.9083 21.9515 35.934 21.9664C35.9596 21.9814 35.9818 22.0026 36.0004 22.0301L36.2525 22.3671C36.1569 22.487 36.0495 22.5881 35.9305 22.6705C35.8114 22.7504 35.6866 22.8153 35.5559 22.8652C35.4275 22.9127 35.2957 22.9464 35.1602 22.9663C35.0273 22.9863 34.8977 22.9963 34.7717 22.9963C34.5219 22.9963 34.2897 22.9526 34.075 22.8652C33.8603 22.7754 33.6736 22.6443 33.5149 22.472C33.3562 22.2972 33.2313 22.0825 33.1403 21.8278C33.0493 21.5707 33.0037 21.2736 33.0037 20.9366C33.0037 20.6744 33.0434 20.4284 33.1228 20.1988C33.2021 19.9666 33.3153 19.7656 33.4624 19.5958C33.6117 19.4236 33.7926 19.2875 34.005 19.1876C34.2197 19.0877 34.4612 19.0378 34.7296 19.0378ZM34.7471 19.7007C34.4951 19.7007 34.2979 19.7768 34.1555 19.9291C34.0132 20.0814 33.9221 20.2974 33.8824 20.5771H35.5068C35.5068 20.4572 35.4917 20.3448 35.4613 20.24C35.431 20.1326 35.3843 20.039 35.3213 19.9591C35.2583 19.8792 35.1789 19.8168 35.0832 19.7719C34.9876 19.7244 34.8755 19.7007 34.7471 19.7007Z" fill="#252526"/>
<path d="M37.0135 22.9399V19.0975H37.5211C37.6098 19.0975 37.6716 19.115 37.7066 19.1499C37.7417 19.1849 37.765 19.2448 37.7767 19.3297L37.8291 19.7941C37.9575 19.5569 38.1081 19.3696 38.2807 19.2323C38.4535 19.095 38.6472 19.0264 38.8619 19.0264C39.0393 19.0264 39.1863 19.07 39.303 19.1574L39.191 19.8503C39.184 19.8952 39.1688 19.9276 39.1455 19.9476C39.1221 19.9651 39.0906 19.9738 39.051 19.9738C39.016 19.9738 38.9681 19.9651 38.9074 19.9476C38.8468 19.9301 38.7663 19.9214 38.6659 19.9214C38.4861 19.9214 38.3321 19.9751 38.2038 20.0824C38.0754 20.1873 37.9669 20.3421 37.8782 20.5468V22.9399H37.0135Z" fill="#252526"/>
<path d="M44.5232 17.5251V18.3266H42.2791V19.8283H44.0471V20.6035H42.2791V22.1352H44.5232V22.9404H41.3304V17.5251H44.5232Z" fill="#252526"/>
<path d="M46.3384 20.8244V22.9404H45.3967V17.5251H46.9406C47.286 17.5251 47.5812 17.5638 47.8263 17.6412C48.0737 17.7161 48.2755 17.8222 48.4319 17.9595C48.5906 18.0969 48.7061 18.2616 48.7785 18.4539C48.8532 18.6437 48.8905 18.8534 48.8905 19.0831C48.8905 19.2653 48.8648 19.4375 48.8135 19.5998C48.7645 19.7622 48.6922 19.9094 48.5964 20.0418C48.5031 20.1741 48.3864 20.2902 48.2463 20.3901C48.1087 20.4899 47.9512 20.5698 47.7737 20.6297C47.8928 20.7021 47.9955 20.8058 48.0818 20.9405L49.3491 22.9404H48.5019C48.4202 22.9404 48.3502 22.9229 48.2919 22.888C48.2359 22.853 48.188 22.8031 48.1483 22.7382L47.0841 21.0042C47.0444 20.9393 47.0001 20.8931 46.951 20.8657C46.9044 20.8382 46.8344 20.8244 46.741 20.8244H46.3384ZM46.3384 20.1017H46.9266C47.1039 20.1017 47.2579 20.0779 47.3887 20.0306C47.5217 19.9831 47.6302 19.9182 47.7142 19.8358C47.8006 19.7509 47.8648 19.651 47.9068 19.5362C47.9488 19.4214 47.9698 19.2953 47.9698 19.1579C47.9698 18.8833 47.8846 18.6723 47.7142 18.5251C47.5462 18.3777 47.2883 18.3041 46.9406 18.3041H46.3384V20.1017Z" fill="#252526"/>
<path d="M53.2901 21.6632C53.3414 21.6632 53.3858 21.6844 53.4231 21.7269L53.7942 22.1576C53.5888 22.4297 53.3356 22.6382 53.0345 22.783C52.7358 22.9278 52.3764 23.0002 51.9563 23.0002C51.5805 23.0002 51.2421 22.9315 50.9411 22.7942C50.6423 22.6569 50.3868 22.4659 50.1743 22.2212C49.9619 21.9765 49.7986 21.6844 49.6842 21.3449C49.5722 21.0054 49.5162 20.6346 49.5162 20.2326C49.5162 19.8257 49.5792 19.4537 49.7053 19.1166C49.8313 18.7771 50.0086 18.4849 50.2374 18.2403C50.4661 17.9956 50.7392 17.8059 51.0565 17.671C51.3763 17.5337 51.7287 17.4651 52.1138 17.4651C52.4896 17.4651 52.8175 17.53 53.0976 17.6598C53.3799 17.7871 53.6215 17.9569 53.8222 18.1691L53.5071 18.6373C53.4885 18.6673 53.4639 18.6934 53.4337 18.7159C53.4056 18.7383 53.366 18.7496 53.3146 18.7496C53.2609 18.7496 53.2061 18.7271 53.15 18.6822C53.094 18.6373 53.0229 18.5886 52.9365 18.5362C52.8502 18.4837 52.7404 18.435 52.6074 18.3901C52.4767 18.3451 52.3098 18.3227 52.1068 18.3227C51.8688 18.3227 51.6493 18.3676 51.4486 18.4575C51.2503 18.5449 51.0787 18.6709 50.934 18.8357C50.7917 19.0005 50.6796 19.2015 50.5979 19.4387C50.5186 19.6734 50.4789 19.938 50.4789 20.2326C50.4789 20.5372 50.5186 20.8081 50.5979 21.0453C50.6796 21.2825 50.7893 21.4822 50.927 21.6445C51.0648 21.8068 51.2269 21.9316 51.4137 22.019C51.6004 22.1039 51.8011 22.1463 52.0158 22.1463C52.1441 22.1463 52.2597 22.1388 52.3624 22.1239C52.4674 22.1089 52.5631 22.0852 52.6495 22.0527C52.7381 22.0203 52.8209 21.979 52.898 21.9291C52.9774 21.8767 53.0555 21.813 53.1325 21.7381C53.1559 21.7157 53.1804 21.6982 53.2061 21.6857C53.2317 21.6707 53.2597 21.6632 53.2901 21.6632Z" fill="#252526"/>
<path d="M56.1321 17.4651C56.3655 17.4651 56.579 17.5026 56.7728 17.5774C56.9664 17.6498 57.1321 17.7534 57.2699 17.8882C57.4076 18.0231 57.515 18.1854 57.5919 18.3751C57.6689 18.5648 57.7074 18.7758 57.7074 19.008C57.7074 19.2077 57.6795 19.3925 57.6234 19.5623C57.5698 19.732 57.4963 19.8943 57.4029 20.0491C57.3119 20.2039 57.2045 20.3537 57.0808 20.4985C56.9571 20.6433 56.8276 20.7906 56.6923 20.9404L55.5509 22.1875C55.663 22.1526 55.7726 22.1264 55.88 22.1089C55.9874 22.0889 56.0901 22.0789 56.1881 22.0789H57.4869C57.5803 22.0789 57.6538 22.1076 57.7074 22.165C57.7635 22.2199 57.7915 22.2936 57.7915 22.386V22.9403H54.3187V22.6332C54.3187 22.5707 54.3303 22.5059 54.3537 22.4385C54.3793 22.3711 54.419 22.3086 54.4727 22.2512L56.0096 20.6034C56.138 20.4636 56.2523 20.33 56.3526 20.2027C56.4553 20.0754 56.5405 19.9492 56.6082 19.8244C56.6782 19.6996 56.7308 19.5735 56.7657 19.4462C56.8031 19.3164 56.8217 19.1803 56.8217 19.038C56.8217 18.9082 56.8042 18.7946 56.7693 18.6972C56.7343 18.5973 56.6841 18.5137 56.6187 18.4463C56.5533 18.3788 56.4752 18.3289 56.3842 18.2964C56.2955 18.2615 56.1951 18.244 56.0831 18.244C55.8753 18.244 55.7039 18.3002 55.5684 18.4125C55.4355 18.5249 55.342 18.676 55.2884 18.8657C55.2627 18.9606 55.2242 19.0292 55.1729 19.0717C55.1215 19.1116 55.0562 19.1316 54.9768 19.1316C54.9418 19.1316 54.9033 19.1279 54.8613 19.1204L54.4062 19.0342C54.4412 18.7746 54.5089 18.5474 54.6092 18.3527C54.7096 18.1554 54.8345 17.9919 54.9839 17.8621C55.1355 17.7297 55.3082 17.6311 55.502 17.5662C55.698 17.4988 55.9081 17.4651 56.1321 17.4651Z" fill="#252526"/>
<path d="M62 20.2326C62 20.7045 61.9521 21.1152 61.8564 21.4647C61.7631 21.8118 61.6323 22.0989 61.4643 22.3261C61.2987 22.5533 61.1014 22.723 60.8727 22.8354C60.6463 22.9453 60.4012 23.0002 60.1375 23.0002C59.8738 23.0002 59.6287 22.9453 59.4024 22.8354C59.1783 22.723 58.9834 22.5533 58.8177 22.3261C58.652 22.0989 58.5225 21.8118 58.4291 21.4647C58.3358 21.1152 58.2891 20.7045 58.2891 20.2326C58.2891 19.7583 58.3358 19.3476 58.4291 19.0005C58.5225 18.6535 58.652 18.3663 58.8177 18.1392C58.9834 17.9119 59.1783 17.7435 59.4024 17.6336C59.6287 17.5212 59.8738 17.4651 60.1375 17.4651C60.4012 17.4651 60.6463 17.5212 60.8727 17.6336C61.1014 17.7435 61.2987 17.9119 61.4643 18.1392C61.6323 18.3663 61.7631 18.6535 61.8564 19.0005C61.9521 19.3476 62 19.7583 62 20.2326ZM61.1072 20.2326C61.1072 19.8407 61.0804 19.5161 61.0267 19.2589C60.973 19.0018 60.9007 18.797 60.8097 18.6447C60.721 18.4925 60.6183 18.3864 60.5016 18.3264C60.3849 18.264 60.2635 18.2328 60.1375 18.2328C60.0138 18.2328 59.8936 18.264 59.777 18.3264C59.6626 18.3864 59.561 18.4925 59.4723 18.6447C59.3837 18.797 59.3125 19.0018 59.2588 19.2589C59.2074 19.5161 59.1818 19.8407 59.1818 20.2326C59.1818 20.6246 59.2074 20.9492 59.2588 21.2064C59.3125 21.4635 59.3837 21.6682 59.4723 21.8205C59.561 21.9728 59.6626 22.0801 59.777 22.1426C59.8936 22.2025 60.0138 22.2324 60.1375 22.2324C60.2635 22.2324 60.3849 22.2025 60.5016 22.1426C60.6183 22.0801 60.721 21.9728 60.8097 21.8205C60.9007 21.6682 60.973 21.4635 61.0267 21.2064C61.0804 20.9492 61.1072 20.6246 61.1072 20.2326Z" fill="#252526"/>
</g>
</g>
<defs>
<linearGradient id="paint0_linear_1592_21723" x1="32" y1="0" x2="32" y2="40" gradientUnits="userSpaceOnUse">
<stop offset="0.265266" stop-color="#B20426"/>
<stop offset="1" stop-color="#9A0825"/>
</linearGradient>
<clipPath id="clip0_1592_21723">
<rect width="64" height="40" rx="8" fill="white"/>
</clipPath>
</defs>
</svg>
