<svg width="32" height="32" viewBox="0 0 32 32" fill="none" xmlns="http://www.w3.org/2000/svg">
<rect width="32" height="32" rx="8" fill="#D2E4FF" fill-opacity="0.06"/>
<mask id="mask0_927_23768" style="mask-type:alpha" maskUnits="userSpaceOnUse" x="4" y="4" width="24" height="24">
<path d="M6.5 4.5C5.39543 4.5 4.5 5.39543 4.5 6.5V25.5C4.5 26.6046 5.39543 27.5 6.5 27.5H25.5C26.6046 27.5 27.5 26.6046 27.5 25.5V6.5C27.5 5.39543 26.6046 4.5 25.5 4.5H6.5Z" fill="#012169"/>
</mask>
<g mask="url(#mask0_927_23768)">
<path d="M4.5 4.5V27.5H27.5V4.5H4.5Z" fill="#012169"/>
<path d="M4.5 4.5L27.5 27.5ZM27.5 4.5L4.5 27.5Z" fill="black"/>
<path d="M4.5 4.5L27.5 27.5M27.5 4.5L4.5 27.5" stroke="white" stroke-width="6"/>
<path d="M4.5 4.5L27.5 27.5ZM27.5 4.5L4.5 27.5Z" fill="black"/>
<path d="M4.5 4.5L27.5 27.5M27.5 4.5L4.5 27.5" stroke="#C8102E" stroke-width="3"/>
<path d="M16 4.5V27.5ZM4.5 16H27.5Z" fill="black"/>
<path d="M16 4.5V27.5M4.5 16H27.5" stroke="white" stroke-width="6"/>
<path d="M16 4.5V27.5ZM4.5 16H27.5Z" fill="black"/>
<path d="M16 4.5V27.5M4.5 16H27.5" stroke="#C8102E" stroke-width="3"/>
</g>
</svg>
