<svg width="32" height="32" viewBox="0 0 32 32" fill="none" xmlns="http://www.w3.org/2000/svg">
<rect width="32" height="32" rx="8" fill="#D2E4FF" fill-opacity="0.06"/>
<path d="M7 3.44739H25V22.4734C25 23.1406 24.8056 23.7933 24.4403 24.3526C24.075 24.9119 23.5546 25.3535 22.9421 25.6241L16 28.5527L9.05787 25.4862C8.44544 25.2157 7.92501 24.774 7.55972 24.2147C7.19444 23.6555 7 23.0027 7 22.3356V3.44739Z" fill="#005BBB" stroke="#FFD500"/>
<path d="M16.6189 11.7777C16.5472 13.9621 17.0508 16.1239 18.0713 18.0132C18.757 19.2825 18.9962 20.7749 18.7454 22.2183C18.4946 23.6617 17.7705 24.9599 16.7052 25.8763C16.4137 26.0699 16.1715 26.3385 16.0003 26.6579C15.8291 26.3385 15.5869 26.0699 15.2954 25.8763C14.2301 24.9599 13.506 23.6617 13.2552 22.2183C13.0044 20.7749 13.2437 19.2825 13.9293 18.0132C14.9499 16.1239 15.4534 13.9621 15.3817 11.7777L15.2164 6.73945C15.1881 5.87841 15.4689 5.03873 16.0003 4.39478C16.5317 5.03873 16.8125 5.87841 16.7842 6.73945L16.6189 11.7777ZM16.5171 24.5568C17.2151 23.7717 17.6571 22.7634 17.7763 21.684C17.8956 20.6045 17.6856 19.5126 17.178 18.573C16.666 17.6252 16.2701 16.6098 16.0003 15.5524C15.7305 16.6098 15.3346 17.6252 14.8226 18.573C14.315 19.5126 14.105 20.6045 14.2243 21.684C14.3435 22.7634 14.7855 23.7717 15.4836 24.5568V21.0921H16.5171V24.5568Z" fill="#FFD500"/>
<path d="M19.1106 11.5849C19.2385 10.4805 19.6251 9.42339 20.2379 8.50206C20.8507 7.58073 21.6718 6.82204 22.6326 6.28955V22.3948H16.0739L15.5273 21.2841C15.5273 20.7166 15.7174 20.1661 16.0663 19.7229C16.4152 19.2798 16.9021 18.9705 17.447 18.846L19.0466 18.4802C19.1869 18.4482 19.3195 18.3883 19.4369 18.3041C19.5544 18.22 19.6543 18.1131 19.731 17.9896C19.8077 17.8661 19.8597 17.7284 19.8841 17.5845C19.9084 17.4406 19.9045 17.2932 19.8727 17.1507C19.8409 17.0083 19.7817 16.8737 19.6986 16.7545C19.6156 16.6354 19.5102 16.534 19.3885 16.4563C19.2668 16.3786 19.1312 16.326 18.9895 16.3016C18.8478 16.2771 18.7028 16.2813 18.5627 16.3139L19.1106 11.5849ZM19.7662 15.4006C20.1731 15.6026 20.5083 15.9279 20.7254 16.3317C20.9424 16.7356 21.0308 17.1979 20.9781 17.6549C20.9255 18.1119 20.7344 18.541 20.4314 18.883C20.1284 19.2249 19.7284 19.4629 19.2866 19.5639L17.6869 19.9296C17.3842 19.9988 17.1137 20.1706 16.9199 20.4168C16.7261 20.663 16.6205 20.9688 16.6205 21.2841H21.5395V8.59599C20.7982 9.47601 20.3309 10.5599 20.1967 11.7102L19.7662 15.4006ZM20.665 16.8413H21.7581V17.952H20.665V16.8413Z" fill="#FFD500"/>
<path d="M12.8894 11.5849C12.7615 10.4805 12.3749 9.42339 11.7621 8.50206C11.1493 7.58073 10.3282 6.82204 9.36739 6.28955V22.3948H15.9261L16.4727 21.2841C16.4727 20.7166 16.2826 20.1661 15.9337 19.7229C15.5848 19.2798 15.0979 18.9705 14.553 18.846L12.9534 18.4802C12.8131 18.4482 12.6805 18.3883 12.5631 18.3041C12.4456 18.22 12.3457 18.1131 12.269 17.9896C12.1923 17.8661 12.1403 17.7284 12.1159 17.5845C12.0916 17.4406 12.0955 17.2932 12.1273 17.1507C12.1591 17.0083 12.2183 16.8737 12.3014 16.7545C12.3844 16.6354 12.4898 16.534 12.6115 16.4563C12.7332 16.3786 12.8688 16.326 13.0105 16.3016C13.1522 16.2771 13.2972 16.2813 13.4373 16.3139L12.8894 11.5849ZM12.2338 15.4006C11.8269 15.6026 11.4917 15.9279 11.2746 16.3317C11.0576 16.7356 10.9692 17.1979 11.0219 17.6549C11.0745 18.1119 11.2656 18.541 11.5686 18.883C11.8716 19.2249 12.2716 19.4629 12.7134 19.5639L14.3131 19.9296C14.6158 19.9988 14.8863 20.1706 15.0801 20.4168C15.2739 20.663 15.3795 20.9688 15.3795 21.2841H10.4605V8.59599C11.2018 9.47601 11.6691 10.5599 11.8033 11.7102L12.2338 15.4006ZM11.335 16.8413H10.2419V17.952H11.335V16.8413Z" fill="#FFD500"/>
</svg>
