<svg width="64" height="40" viewBox="0 0 64 40" fill="none" xmlns="http://www.w3.org/2000/svg">
<mask id="mask0_994_14388" style="mask-type:alpha" maskUnits="userSpaceOnUse" x="0" y="0" width="64" height="40">
<path d="M0 0H64V40H0V0Z" fill="#700000"/>
<path d="M0 0H64V40H0V0Z" fill="url(#paint0_linear_994_14388)"/>
</mask>
<g mask="url(#mask0_994_14388)">
<rect width="64" height="40" rx="8" fill="#D2E4FF"/>
<path d="M29.0794 27.0742H25.6191L27.7834 13.1101H31.2434L29.0794 27.0742Z" fill="#00579F"/>
<path d="M41.6263 13.4517C40.9438 13.1691 39.8613 12.8572 38.5228 12.8572C35.1057 12.8572 32.6994 14.7586 32.6846 17.477C32.6563 19.4826 34.4075 20.5966 35.7172 21.2654C37.0559 21.9487 37.511 22.3947 37.511 23.0038C37.4974 23.9393 36.4293 24.3706 35.433 24.3706C34.0515 24.3706 33.3113 24.1482 32.1864 23.6278L31.7308 23.4047L31.2466 26.5393C32.0581 26.9251 33.5533 27.2675 35.1057 27.2825C38.7364 27.2825 41.1001 25.4105 41.1281 22.5136C41.1419 20.924 40.2172 19.7059 38.2236 18.7106C37.0134 18.0717 36.2722 17.6409 36.2722 16.9871C36.2864 16.3928 36.8991 15.7841 38.2652 15.7841C39.3901 15.7543 40.2166 16.0364 40.8428 16.3188L41.1557 16.4671L41.6263 13.4517Z" fill="#00579F"/>
<path d="M46.2246 22.1272C46.5096 21.325 47.6061 18.2202 47.6061 18.2202C47.5917 18.25 47.8905 17.4031 48.0614 16.8833L48.3032 18.0865C48.3032 18.0865 48.9584 21.429 49.1007 22.1272C48.56 22.1272 46.9081 22.1272 46.2246 22.1272ZM50.4958 13.1101H47.8194C46.994 13.1101 46.3669 13.3624 46.0108 14.2687L40.8711 27.074H44.5018C44.5018 27.074 45.0995 25.3505 45.228 24.9793C45.6263 24.9793 49.1583 24.9793 49.6707 24.9793C49.77 25.4695 50.0835 27.074 50.0835 27.074H53.2874L50.4958 13.1101Z" fill="#00579F"/>
<path d="M22.7315 13.1101L19.3428 22.6323L18.9725 20.7011C18.346 18.4727 16.3811 16.0516 14.1885 14.8478L17.2924 27.0594H20.9515L26.3904 13.1101H22.7315Z" fill="#00579F"/>
<path d="M16.1954 13.1101H10.6282L10.5713 13.3923C14.914 14.5511 17.7901 17.3443 18.9718 20.7016L17.7616 14.2839C17.5623 13.3921 16.95 13.1395 16.1954 13.1101Z" fill="#FAA61A"/>
</g>
<defs>
<linearGradient id="paint0_linear_994_14388" x1="32" y1="0" x2="32" y2="40" gradientUnits="userSpaceOnUse">
<stop offset="0.265266" stop-color="#B20426"/>
<stop offset="1" stop-color="#9A0825"/>
</linearGradient>
</defs>
</svg>
