<svg width="64" height="40" viewBox="0 0 64 40" fill="none" xmlns="http://www.w3.org/2000/svg">
<mask id="mask0_994_14413" style="mask-type:alpha" maskUnits="userSpaceOnUse" x="0" y="0" width="64" height="40">
<path d="M0 0H64V40H0V0Z" fill="#700000"/>
<path d="M0 0H64V40H0V0Z" fill="url(#paint0_linear_994_14413)"/>
</mask>
<g mask="url(#mask0_994_14413)">
<rect width="64" height="40" fill="#D2E4FF"/>
<path d="M12.342 12.2236C13.5194 12.2236 14.6395 12.5068 15.6447 13.0134C15.8023 13.088 15.961 13.1774 16.1181 13.2669L15.4289 13.9078L14.3956 12.7901L12.6152 14.4292L11.5668 13.2518L8.29287 16.3069L10.3889 18.7063L9.57066 19.4512L11.6386 21.8506L10.8203 22.5952L13.7784 26.008L15.5292 24.3388L17.0519 26.1276C16.7501 26.3661 16.4199 26.605 16.0614 26.8133C14.9699 27.454 13.7061 27.8259 12.3565 27.8259C8.20641 27.8259 4.83257 24.3245 4.83257 20.018C4.81791 15.7407 8.19235 12.2236 12.342 12.2236ZM10.9633 19.5408L12.7583 17.8716L14.3668 19.7344L12.5715 21.4034L10.9633 19.5408ZM12.2416 22.7598L14.022 21.0759L15.6447 22.9385L13.8497 24.6078L12.2416 22.7598ZM9.68614 16.3667L11.4806 14.6976L13.0887 16.5603L11.2937 18.2294L9.68614 16.3667ZM12.9737 15.4723L14.3092 14.2206L15.5156 15.6065L14.1801 16.8731L12.9737 15.4723ZM15.3576 21.2098L16.6926 19.9579L17.899 21.3584L16.5634 22.611L15.3576 21.2098ZM16.5348 24.0266L17.8704 22.7746L19.0758 24.1605L17.7408 25.4268L16.5348 24.0266ZM17.0806 17.5885L17.9707 16.7538L18.7745 17.6781L17.8845 18.5124L17.0806 17.5885ZM15.9318 14.8315L16.822 13.9822L17.6264 14.9209L16.7356 15.7555L15.9318 14.8315ZM18.2148 20.3457L19.1049 19.5111L19.9233 20.4351L19.019 21.2694L18.2148 20.3457ZM14.2087 18.2741L15.5443 17.0223L16.7502 18.408L15.4152 19.66L14.2087 18.2741Z" fill="#036CB5"/>
<mask id="mask1_994_14413" style="mask-type:alpha" maskUnits="userSpaceOnUse" x="20" y="16" width="8" height="7">
<path d="M20.5732 16.1887V22.2493H27.1765V16.1887H20.5732Z" fill="white"/>
</mask>
<g mask="url(#mask1_994_14413)">
<path d="M23.4978 16.1887H24.2191L25.3453 20.7109H25.402L26.2285 16.1887H27.1765L25.8636 22.2493H24.9885L23.8871 17.9833H23.8301L22.7603 22.2493H21.8859L20.5732 16.1887H21.4805L22.388 20.7109H22.4447L23.4978 16.1887Z" fill="#036CB5"/>
</g>
<path d="M28.3273 19.6691H30.1823C30.1421 18.7719 29.7286 18.4132 29.2913 18.4132C28.7971 18.4132 28.4161 18.8148 28.3273 19.6691ZM30.8304 21.2766V21.9264C30.4659 22.1486 29.98 22.3197 29.3963 22.3197C28.0356 22.3197 27.4766 21.4307 27.4766 20.0802C27.4766 18.7804 28.1003 17.8401 29.3156 17.8401C30.3281 17.8401 30.9523 18.5329 30.9523 19.9259V20.2423H28.3111C28.3111 21.2677 28.7078 21.7209 29.5426 21.7209C29.98 21.7209 30.3851 21.5582 30.8304 21.2766Z" fill="#036CB5"/>
<path d="M32.8379 21.6342C33.0972 21.7539 33.381 21.7716 33.5839 21.7716C34.1833 21.7716 34.6365 21.3778 34.6365 19.9934C34.6365 18.9078 34.2638 18.5573 33.7212 18.5573C33.3969 18.5573 33.1621 18.6516 32.8379 18.8393V21.6342H32.8379ZM32.8464 18.2069C33.0889 18.0706 33.502 17.8905 33.9397 17.8905C34.9444 17.8905 35.4873 18.6256 35.4873 19.9934C35.4873 21.592 34.758 22.3698 33.5839 22.3698C33.1541 22.3698 32.4898 22.2245 32.0034 21.9503V15.9844L32.8464 15.771V18.2069H32.8464Z" fill="#036CB5"/>
<path d="M39.3112 22.2459H38.7932L37.1398 17.9545H37.0671V22.2459H36.3379V16.1848H37.3185L39.1331 20.9632H39.1737L40.9071 16.1848H41.9123V22.2459H41.0373V17.8518H40.9643L39.3112 22.2459Z" fill="#036CB5"/>
<path d="M45.4878 20.08C45.4878 18.9261 45.0426 18.4391 44.4917 18.4391C43.9571 18.4391 43.4949 18.9261 43.4949 20.08C43.4949 21.2512 43.9167 21.7209 44.4917 21.7209C45.0666 21.7209 45.4878 21.2512 45.4878 20.08ZM42.6445 20.08C42.6445 18.5835 43.4225 17.8401 44.4917 17.8401C45.5614 17.8401 46.339 18.5835 46.339 20.08C46.339 21.5414 45.6018 22.3197 44.4917 22.3197C43.3817 22.3197 42.6445 21.5414 42.6445 20.08Z" fill="#036CB5"/>
<path d="M46.98 18.4731C47.3445 18.2419 48.1146 17.8401 49.046 17.8401C50.0182 17.8401 50.3821 18.2419 50.3821 19.1222V22.217H49.5401V19.319C49.5401 18.6439 49.2247 18.5242 48.811 18.5242C48.4873 18.5242 48.0736 18.6783 47.8226 18.8321V22.217H46.98V18.4731H46.98Z" fill="#036CB5"/>
<path d="M52.1645 19.6691H54.0196C53.9798 18.7719 53.5661 18.4132 53.1286 18.4132C52.6342 18.4132 52.2539 18.8148 52.1645 19.6691ZM54.6676 21.2766V21.9264C54.3032 22.1486 53.8171 22.3197 53.2337 22.3197C51.8733 22.3197 51.314 21.4307 51.314 20.0802C51.314 18.7804 51.9375 17.8401 53.1529 17.8401C54.166 17.8401 54.7901 18.5329 54.7901 19.9259V20.2423H52.1485C52.1485 21.2677 52.5456 21.7209 53.3801 21.7209C53.8171 21.7209 54.2228 21.5582 54.6676 21.2766Z" fill="#036CB5"/>
<path d="M58.1549 17.8401H59.022L57.5555 22.1136C57.1498 23.2933 56.6562 23.9088 55.7247 23.9088V23.2083C56.2759 23.2083 56.6156 22.7465 56.8105 22.1136L55.2549 17.8401H56.1462L57.1832 20.9857H57.2318L58.1549 17.8401Z" fill="#036CB5"/>
</g>
<defs>
<linearGradient id="paint0_linear_994_14413" x1="32" y1="0" x2="32" y2="40" gradientUnits="userSpaceOnUse">
<stop offset="0.265266" stop-color="#B20426"/>
<stop offset="1" stop-color="#9A0825"/>
</linearGradient>
</defs>
</svg>
