<svg width="64" height="40" viewBox="0 0 64 40" fill="none" xmlns="http://www.w3.org/2000/svg">
<g clip-path="url(#clip0_1589_21133)">
<mask id="mask0_1589_21133" style="mask-type:alpha" maskUnits="userSpaceOnUse" x="0" y="0" width="64" height="40">
<path d="M0 0H64V40H0V0Z" fill="#700000"/>
<path d="M0 0H64V40H0V0Z" fill="url(#paint0_linear_1589_21133)"/>
</mask>
<g mask="url(#mask0_1589_21133)">
<path d="M11.5493 13.9867H10.8252C9.73162 13.9867 8.6719 14.7225 8.6719 16.8553C8.6719 18.9179 9.64184 19.5819 10.8252 19.5819H11.5493V13.9867ZM10.4204 20.7291L8.26715 25.6439H6.6967L9.06194 20.3896C7.94923 19.8153 7.2089 18.7743 7.2089 16.8568C7.2089 14.1661 8.88532 12.8215 10.8797 12.8215H12.9093V25.6439H11.5508V20.7291H10.4204Z" fill="#FF0000"/>
<path d="M39.3103 21.1245C39.3103 18.2903 40.3877 16.479 42.4688 16.479C43.2621 16.479 43.7214 16.6944 44.1099 16.9457L43.9156 18.2723C43.5447 17.9492 43.0163 17.6441 42.4512 17.6441C41.4636 17.6441 40.7571 18.7734 40.7571 21.0513C40.7571 23.3112 41.2869 24.602 42.3982 24.602C43.0693 24.602 43.5801 24.3328 43.898 24.0456L44.2159 25.0851C43.739 25.4979 43.1753 25.7671 42.3629 25.7671C40.4583 25.7701 39.3103 24.2101 39.3103 21.1245ZM35.2878 21.1425V25.6445H33.9116V16.6061H35.2878V20.785L37.4234 16.6061H38.8172L36.6109 20.8568L39.1351 25.6445H37.6339L35.2878 21.1425ZM28.8102 20.3004H31.0871C31.0871 18.7584 30.8399 17.6277 30.0466 17.6277C29.1988 17.6277 28.8985 18.6851 28.8102 20.3004ZM30.3277 25.7701C28.4923 25.7701 27.3634 24.2819 27.3634 21.5029C27.3634 18.5969 28.1582 16.4805 30.0466 16.4805C31.5287 16.4805 32.5001 17.6097 32.5001 20.6773V21.4491H28.794C28.794 23.4937 29.3592 24.5691 30.4528 24.5691C31.2299 24.5691 31.8466 24.2101 32.1998 23.9588L32.5178 25.0342C31.9526 25.4829 31.2108 25.7701 30.3277 25.7701ZM24.4698 17.7354H22.9347V17.8969C22.9347 19.7979 22.8463 22.5768 22.1045 24.4958H24.4698V17.7354ZM26.5333 27.4198H25.2984V25.6445H21.4864V27.4198H20.2515V24.4958H20.799C21.61 22.5768 21.6983 19.7799 21.6983 17.3764V16.6046H25.8283V24.4958H26.5348V27.4198H26.5333ZM19.4567 16.6061V25.6445H18.0982V21.5912H16.0509V25.6445H14.6747V16.6061H16.0509V20.444H18.0982V16.6061H19.4567Z" fill="black"/>
<path d="M47.1609 18.9225C47.1609 18.1731 47.2227 17.699 48.749 16.5414C50.0133 15.5826 54.0623 12.3071 54.0623 12.3071V17.7753H57.1429V25.644H48.1235C47.5951 25.644 47.1609 25.2043 47.1609 24.6658V18.9225Z" fill="#FFCF01"/>
<path d="M54.0626 17.7749V20.9427L48.4034 24.8599L55.5594 22.4937V17.7749H54.0626Z" fill="#D3AB07"/>
<path d="M51.476 17.6105C51.8072 17.2097 52.2899 17.0676 52.5563 17.2949C52.8212 17.5208 52.7683 18.0293 52.4371 18.4301C52.1059 18.831 51.6232 18.9716 51.3568 18.7457C51.0918 18.5199 51.1448 18.0113 51.476 17.6105Z" fill="#231F20"/>
</g>
</g>
<defs>
<linearGradient id="paint0_linear_1589_21133" x1="32" y1="0" x2="32" y2="40" gradientUnits="userSpaceOnUse">
<stop offset="0.265266" stop-color="#B20426"/>
<stop offset="1" stop-color="#9A0825"/>
</linearGradient>
<clipPath id="clip0_1589_21133">
<rect width="64" height="40" rx="8" fill="white"/>
</clipPath>
</defs>
</svg>
